G75*
%MOIN*%
%OFA0B0*%
%FSLAX25Y25*%
%IPPOS*%
%LPD*%
%AMOC8*
5,1,8,0,0,1.08239X$1,22.5*
%
%ADD10C,0.00000*%
%ADD11OC8,0.05200*%
%ADD12C,0.05200*%
%ADD13C,0.07400*%
%ADD14C,0.05200*%
%ADD15C,0.05150*%
%ADD16C,0.11220*%
%ADD17C,0.06600*%
%ADD18C,0.04756*%
%ADD19C,0.01600*%
%ADD20R,0.03562X0.03562*%
D10*
X0006800Y0011800D02*
X0006800Y0208650D01*
X0203650Y0208650D01*
X0203650Y0011800D01*
X0006800Y0011800D01*
D11*
X0041800Y0021800D03*
X0066800Y0026800D03*
X0066800Y0036800D03*
X0041800Y0061800D03*
X0026800Y0061800D03*
X0016800Y0061800D03*
X0141800Y0141800D03*
X0156800Y0166800D03*
X0156800Y0176800D03*
X0156800Y0189300D03*
X0151800Y0196800D03*
X0161800Y0196800D03*
X0171800Y0196800D03*
X0181800Y0196800D03*
X0181800Y0181800D03*
X0171800Y0181800D03*
X0171800Y0166800D03*
X0181800Y0166800D03*
X0196800Y0156800D03*
X0196800Y0196800D03*
X0141800Y0181800D03*
X0131800Y0186800D03*
X0056800Y0191800D03*
X0016800Y0191800D03*
X0146800Y0076800D03*
D12*
X0136800Y0076800D03*
X0131800Y0196800D03*
D13*
X0106800Y0176800D03*
X0096800Y0176800D03*
X0086800Y0176800D03*
X0076800Y0176800D03*
X0066800Y0176800D03*
X0011800Y0146800D03*
X0011800Y0136800D03*
X0011800Y0126800D03*
X0011800Y0116800D03*
X0011800Y0106800D03*
X0011800Y0096800D03*
X0011800Y0086800D03*
X0011800Y0076800D03*
X0199300Y0076800D03*
X0199300Y0086800D03*
X0199300Y0096800D03*
X0199300Y0106800D03*
X0199300Y0116800D03*
X0199300Y0126800D03*
X0199300Y0136800D03*
X0199300Y0146800D03*
D14*
X0124400Y0146800D02*
X0119200Y0146800D01*
X0119200Y0136800D02*
X0124400Y0136800D01*
X0124400Y0126800D02*
X0119200Y0126800D01*
X0119200Y0116800D02*
X0124400Y0116800D01*
X0124400Y0106800D02*
X0119200Y0106800D01*
X0119200Y0096800D02*
X0124400Y0096800D01*
X0124400Y0086800D02*
X0119200Y0086800D01*
X0119200Y0076800D02*
X0124400Y0076800D01*
X0124400Y0066800D02*
X0119200Y0066800D01*
X0119200Y0056800D02*
X0124400Y0056800D01*
X0124400Y0046800D02*
X0119200Y0046800D01*
X0119200Y0036800D02*
X0124400Y0036800D01*
X0124400Y0026800D02*
X0119200Y0026800D01*
X0094400Y0026800D02*
X0089200Y0026800D01*
X0089200Y0036800D02*
X0094400Y0036800D01*
X0094400Y0046800D02*
X0089200Y0046800D01*
X0089200Y0056800D02*
X0094400Y0056800D01*
X0094400Y0066800D02*
X0089200Y0066800D01*
X0089200Y0076800D02*
X0094400Y0076800D01*
X0094400Y0086800D02*
X0089200Y0086800D01*
X0089200Y0096800D02*
X0094400Y0096800D01*
X0094400Y0106800D02*
X0089200Y0106800D01*
X0089200Y0116800D02*
X0094400Y0116800D01*
X0094400Y0126800D02*
X0089200Y0126800D01*
X0089200Y0136800D02*
X0094400Y0136800D01*
X0094400Y0146800D02*
X0089200Y0146800D01*
X0089200Y0156800D02*
X0094400Y0156800D01*
X0119200Y0156800D02*
X0124400Y0156800D01*
D15*
X0094674Y0196800D03*
X0086800Y0196800D03*
X0078926Y0196800D03*
X0180501Y0036879D03*
X0183650Y0032154D03*
X0186800Y0036879D03*
X0189950Y0032154D03*
X0193099Y0036879D03*
D16*
X0201170Y0016800D03*
X0172430Y0016800D03*
D17*
X0036643Y0171800D03*
X0016957Y0171800D03*
X0016957Y0201800D03*
X0036643Y0201800D03*
X0071052Y0196800D03*
X0102548Y0196800D03*
D18*
X0071800Y0081300D03*
X0071800Y0071906D03*
X0071800Y0062300D03*
D19*
X0077300Y0062300D01*
X0081800Y0066800D01*
X0091800Y0066800D01*
X0091800Y0076800D02*
X0081800Y0076800D01*
X0077300Y0081300D01*
X0071800Y0081300D01*
X0071800Y0096800D02*
X0091800Y0096800D01*
X0091800Y0106800D02*
X0071800Y0106800D01*
X0051800Y0126800D01*
X0011800Y0126800D01*
X0011800Y0116800D02*
X0051800Y0116800D01*
X0071800Y0096800D01*
X0061800Y0096800D02*
X0061800Y0061800D01*
X0066800Y0056800D01*
X0091800Y0056800D01*
X0091800Y0046800D02*
X0066800Y0046800D01*
X0056800Y0056800D01*
X0056800Y0091800D01*
X0051800Y0096800D01*
X0011800Y0096800D01*
X0011800Y0086800D02*
X0046800Y0086800D01*
X0051800Y0081800D01*
X0051800Y0041800D01*
X0056800Y0036800D01*
X0066800Y0036800D01*
X0091800Y0036800D01*
X0096800Y0036800D01*
X0101800Y0041800D01*
X0101800Y0096800D01*
X0111800Y0106800D01*
X0121800Y0106800D01*
X0121800Y0116800D02*
X0171800Y0116800D01*
X0181800Y0126800D01*
X0199300Y0126800D01*
X0199300Y0136800D02*
X0181800Y0136800D01*
X0171800Y0126800D01*
X0121800Y0126800D01*
X0121800Y0136800D02*
X0171800Y0136800D01*
X0181800Y0146800D01*
X0199300Y0146800D01*
X0171800Y0161800D02*
X0151800Y0141800D01*
X0141800Y0141800D01*
X0141800Y0151800D01*
X0136800Y0156800D01*
X0121800Y0156800D01*
X0121800Y0176800D01*
X0111800Y0186800D01*
X0101800Y0186800D01*
X0096800Y0181800D01*
X0096800Y0176800D01*
X0106800Y0176800D02*
X0091800Y0161800D01*
X0091800Y0156800D01*
X0046800Y0156800D01*
X0036800Y0166800D01*
X0036800Y0171800D01*
X0036643Y0171800D01*
X0026800Y0171800D02*
X0026800Y0151800D01*
X0011800Y0146800D02*
X0091800Y0146800D01*
X0091800Y0136800D02*
X0011800Y0136800D01*
X0011800Y0106800D02*
X0051800Y0106800D01*
X0061800Y0096800D01*
X0041800Y0061800D02*
X0026800Y0061800D01*
X0016800Y0061800D02*
X0016800Y0051800D01*
X0021800Y0046800D01*
X0091800Y0026800D02*
X0091800Y0021800D01*
X0096800Y0016800D01*
X0161800Y0016800D01*
X0171800Y0026800D01*
X0184595Y0026800D01*
X0189950Y0032154D01*
X0183650Y0032154D02*
X0156446Y0032154D01*
X0141800Y0046800D01*
X0141800Y0091800D01*
X0136800Y0096800D01*
X0121800Y0096800D01*
X0121800Y0086800D02*
X0111800Y0086800D01*
X0106800Y0081800D01*
X0106800Y0026800D01*
X0111800Y0021800D01*
X0136800Y0021800D01*
X0146800Y0031800D01*
X0180501Y0036879D02*
X0180501Y0068099D01*
X0136800Y0111800D01*
X0111800Y0111800D01*
X0106800Y0116800D01*
X0106800Y0166800D01*
X0086800Y0166800D02*
X0056800Y0166800D01*
X0051800Y0171800D01*
X0051800Y0186800D01*
X0026800Y0171800D02*
X0016800Y0181800D01*
X0016800Y0191800D01*
X0016957Y0186957D01*
X0016957Y0201800D01*
X0094674Y0196800D02*
X0094674Y0193926D01*
X0096800Y0191800D01*
X0151800Y0191800D01*
X0156800Y0186800D01*
X0156800Y0176800D01*
X0151800Y0176800D01*
X0146800Y0171800D01*
X0146800Y0151800D01*
X0171800Y0161800D02*
X0171800Y0166800D01*
X0171800Y0181800D01*
X0171800Y0196800D01*
X0166800Y0201800D01*
X0156800Y0201800D01*
X0151800Y0196800D01*
X0131800Y0196800D01*
X0156800Y0189300D02*
X0156800Y0186800D01*
X0181800Y0196800D02*
X0196800Y0196800D01*
X0151800Y0111800D02*
X0146800Y0111800D01*
X0151800Y0111800D02*
X0176800Y0086800D01*
X0199300Y0086800D01*
X0136800Y0076800D02*
X0121800Y0076800D01*
D20*
X0146800Y0111800D03*
X0146800Y0151800D03*
X0106800Y0166800D03*
X0086800Y0166800D03*
X0051800Y0186800D03*
X0026800Y0151800D03*
X0021800Y0046800D03*
X0146800Y0031800D03*
M02*
