G75*
%MOIN*%
%OFA0B0*%
%FSLAX25Y25*%
%IPPOS*%
%LPD*%
%AMOC8*
5,1,8,0,0,1.08239X$1,22.5*
%
%ADD10C,0.00000*%
%ADD11C,0.00400*%
%ADD12C,0.00600*%
%ADD13R,0.03400X0.02400*%
%ADD14C,0.00500*%
%ADD15R,0.02400X0.03400*%
%ADD16C,0.01000*%
%ADD17C,0.00800*%
%ADD18C,0.01600*%
D10*
X0006800Y0011800D02*
X0006800Y0208650D01*
X0203650Y0208650D01*
X0203650Y0011800D01*
X0006800Y0011800D01*
D11*
X0017000Y0147000D02*
X0017000Y0150069D01*
X0018535Y0151604D01*
X0020069Y0150069D01*
X0020069Y0147000D01*
X0021604Y0147767D02*
X0024673Y0150837D01*
X0024673Y0147767D01*
X0023906Y0147000D01*
X0022371Y0147000D01*
X0021604Y0147767D01*
X0021604Y0150837D01*
X0022371Y0151604D01*
X0023906Y0151604D01*
X0024673Y0150837D01*
X0020069Y0149302D02*
X0017000Y0149302D01*
X0178793Y0041311D02*
X0178793Y0040543D01*
X0179560Y0040543D01*
X0179560Y0041311D01*
X0178793Y0041311D01*
D12*
X0190095Y0042100D02*
X0190095Y0046370D01*
X0190095Y0044235D02*
X0196500Y0044235D01*
X0195432Y0048545D02*
X0193297Y0048545D01*
X0192230Y0049613D01*
X0192230Y0051748D01*
X0193297Y0052816D01*
X0194365Y0052816D01*
X0194365Y0048545D01*
X0195432Y0048545D02*
X0196500Y0049613D01*
X0196500Y0051748D01*
X0196500Y0054991D02*
X0190095Y0054991D01*
X0192230Y0058194D02*
X0194365Y0054991D01*
X0196500Y0058194D01*
X0195432Y0060362D02*
X0193297Y0060362D01*
X0192230Y0061430D01*
X0192230Y0063565D01*
X0193297Y0064633D01*
X0194365Y0064633D01*
X0194365Y0060362D01*
X0195432Y0060362D02*
X0196500Y0061430D01*
X0196500Y0063565D01*
X0193194Y0077100D02*
X0189991Y0077100D01*
X0189991Y0083505D01*
X0193194Y0083505D01*
X0194261Y0082438D01*
X0194261Y0078168D01*
X0193194Y0077100D01*
X0187816Y0077100D02*
X0187816Y0083505D01*
X0185681Y0087100D02*
X0187816Y0089235D01*
X0187816Y0093505D01*
X0183545Y0093505D02*
X0183545Y0089235D01*
X0185681Y0087100D01*
X0183545Y0083505D02*
X0187816Y0077100D01*
X0183545Y0077100D02*
X0183545Y0083505D01*
X0181370Y0082438D02*
X0180303Y0083505D01*
X0178168Y0083505D01*
X0177100Y0082438D01*
X0177100Y0078168D01*
X0178168Y0077100D01*
X0180303Y0077100D01*
X0181370Y0078168D01*
X0181370Y0080303D01*
X0179235Y0080303D01*
X0178168Y0087100D02*
X0177100Y0088168D01*
X0178168Y0087100D02*
X0180303Y0087100D01*
X0181370Y0088168D01*
X0181370Y0090303D01*
X0180303Y0091370D01*
X0179235Y0091370D01*
X0177100Y0090303D01*
X0177100Y0093505D01*
X0181370Y0093505D01*
X0180303Y0097100D02*
X0177100Y0097100D01*
X0177100Y0103505D01*
X0180303Y0103505D01*
X0181370Y0102438D01*
X0181370Y0101370D01*
X0180303Y0100303D01*
X0177100Y0100303D01*
X0180303Y0100303D02*
X0181370Y0099235D01*
X0181370Y0098168D01*
X0180303Y0097100D01*
X0183545Y0097100D02*
X0183545Y0098168D01*
X0187816Y0102438D01*
X0187816Y0103505D01*
X0183545Y0103505D01*
X0184613Y0107100D02*
X0183545Y0108168D01*
X0183545Y0109235D01*
X0184613Y0110303D01*
X0186748Y0110303D01*
X0187816Y0109235D01*
X0187816Y0108168D01*
X0186748Y0107100D01*
X0184613Y0107100D01*
X0184613Y0110303D02*
X0183545Y0111370D01*
X0183545Y0112438D01*
X0184613Y0113505D01*
X0186748Y0113505D01*
X0187816Y0112438D01*
X0187816Y0111370D01*
X0186748Y0110303D01*
X0181370Y0111370D02*
X0180303Y0110303D01*
X0177100Y0110303D01*
X0177100Y0113505D02*
X0177100Y0107100D01*
X0180303Y0107100D01*
X0181370Y0108168D01*
X0181370Y0109235D01*
X0180303Y0110303D01*
X0181370Y0111370D02*
X0181370Y0112438D01*
X0180303Y0113505D01*
X0177100Y0113505D01*
X0177100Y0117100D02*
X0180303Y0117100D01*
X0181370Y0118168D01*
X0181370Y0119235D01*
X0180303Y0120303D01*
X0177100Y0120303D01*
X0177100Y0123505D02*
X0180303Y0123505D01*
X0181370Y0122438D01*
X0181370Y0121370D01*
X0180303Y0120303D01*
X0183545Y0121370D02*
X0183545Y0122438D01*
X0184613Y0123505D01*
X0186748Y0123505D01*
X0187816Y0122438D01*
X0187816Y0118168D01*
X0186748Y0117100D01*
X0184613Y0117100D01*
X0183545Y0118168D01*
X0184613Y0120303D02*
X0183545Y0121370D01*
X0184613Y0120303D02*
X0187816Y0120303D01*
X0187816Y0127100D02*
X0183545Y0127100D01*
X0185681Y0127100D02*
X0185681Y0133505D01*
X0183545Y0131370D01*
X0181370Y0131370D02*
X0181370Y0132438D01*
X0180303Y0133505D01*
X0177100Y0133505D01*
X0177100Y0127100D01*
X0180303Y0127100D01*
X0181370Y0128168D01*
X0181370Y0129235D01*
X0180303Y0130303D01*
X0177100Y0130303D01*
X0180303Y0130303D02*
X0181370Y0131370D01*
X0180303Y0137100D02*
X0177100Y0137100D01*
X0177100Y0143505D01*
X0180303Y0143505D01*
X0181370Y0142438D01*
X0181370Y0141370D01*
X0180303Y0140303D01*
X0177100Y0140303D01*
X0180303Y0140303D02*
X0181370Y0139235D01*
X0181370Y0138168D01*
X0180303Y0137100D01*
X0183545Y0137100D02*
X0187816Y0137100D01*
X0185681Y0137100D02*
X0185681Y0143505D01*
X0183545Y0141370D01*
X0183545Y0147100D02*
X0187816Y0147100D01*
X0185681Y0147100D02*
X0185681Y0153505D01*
X0183545Y0151370D01*
X0181370Y0151370D02*
X0181370Y0152438D01*
X0180303Y0153505D01*
X0177100Y0153505D01*
X0177100Y0147100D01*
X0180303Y0147100D01*
X0181370Y0148168D01*
X0181370Y0149235D01*
X0180303Y0150303D01*
X0177100Y0150303D01*
X0180303Y0150303D02*
X0181370Y0151370D01*
X0189991Y0150303D02*
X0192126Y0151370D01*
X0193194Y0151370D01*
X0194261Y0150303D01*
X0194261Y0148168D01*
X0193194Y0147100D01*
X0191059Y0147100D01*
X0189991Y0148168D01*
X0189991Y0150303D02*
X0189991Y0153505D01*
X0194261Y0153505D01*
X0193194Y0143505D02*
X0189991Y0140303D01*
X0194261Y0140303D01*
X0193194Y0143505D02*
X0193194Y0137100D01*
X0193194Y0133505D02*
X0191059Y0133505D01*
X0189991Y0132438D01*
X0192126Y0130303D02*
X0193194Y0130303D01*
X0194261Y0129235D01*
X0194261Y0128168D01*
X0193194Y0127100D01*
X0191059Y0127100D01*
X0189991Y0128168D01*
X0193194Y0130303D02*
X0194261Y0131370D01*
X0194261Y0132438D01*
X0193194Y0133505D01*
X0177100Y0123505D02*
X0177100Y0117100D01*
X0145300Y0149300D02*
X0138300Y0149300D01*
X0138240Y0149302D01*
X0138179Y0149307D01*
X0138120Y0149316D01*
X0138061Y0149329D01*
X0138002Y0149345D01*
X0137945Y0149365D01*
X0137890Y0149388D01*
X0137835Y0149415D01*
X0137783Y0149444D01*
X0137732Y0149477D01*
X0137683Y0149513D01*
X0137637Y0149551D01*
X0137593Y0149593D01*
X0137551Y0149637D01*
X0137513Y0149683D01*
X0137477Y0149732D01*
X0137444Y0149783D01*
X0137415Y0149835D01*
X0137388Y0149890D01*
X0137365Y0149945D01*
X0137345Y0150002D01*
X0137329Y0150061D01*
X0137316Y0150120D01*
X0137307Y0150179D01*
X0137302Y0150240D01*
X0137300Y0150300D01*
X0137300Y0151800D01*
X0137800Y0152300D01*
X0137800Y0171300D01*
X0137300Y0171800D01*
X0137300Y0173300D01*
X0137302Y0173360D01*
X0137307Y0173421D01*
X0137316Y0173480D01*
X0137329Y0173539D01*
X0137345Y0173598D01*
X0137365Y0173655D01*
X0137388Y0173710D01*
X0137415Y0173765D01*
X0137444Y0173817D01*
X0137477Y0173868D01*
X0137513Y0173917D01*
X0137551Y0173963D01*
X0137593Y0174007D01*
X0137637Y0174049D01*
X0137683Y0174087D01*
X0137732Y0174123D01*
X0137783Y0174156D01*
X0137835Y0174185D01*
X0137890Y0174212D01*
X0137945Y0174235D01*
X0138002Y0174255D01*
X0138061Y0174271D01*
X0138120Y0174284D01*
X0138179Y0174293D01*
X0138240Y0174298D01*
X0138300Y0174300D01*
X0145300Y0174300D01*
X0145360Y0174298D01*
X0145421Y0174293D01*
X0145480Y0174284D01*
X0145539Y0174271D01*
X0145598Y0174255D01*
X0145655Y0174235D01*
X0145710Y0174212D01*
X0145765Y0174185D01*
X0145817Y0174156D01*
X0145868Y0174123D01*
X0145917Y0174087D01*
X0145963Y0174049D01*
X0146007Y0174007D01*
X0146049Y0173963D01*
X0146087Y0173917D01*
X0146123Y0173868D01*
X0146156Y0173817D01*
X0146185Y0173765D01*
X0146212Y0173710D01*
X0146235Y0173655D01*
X0146255Y0173598D01*
X0146271Y0173539D01*
X0146284Y0173480D01*
X0146293Y0173421D01*
X0146298Y0173360D01*
X0146300Y0173300D01*
X0146300Y0171800D01*
X0145800Y0171300D01*
X0145800Y0152300D01*
X0146300Y0151800D01*
X0146300Y0150300D01*
X0146298Y0150240D01*
X0146293Y0150179D01*
X0146284Y0150120D01*
X0146271Y0150061D01*
X0146255Y0150002D01*
X0146235Y0149945D01*
X0146212Y0149890D01*
X0146185Y0149835D01*
X0146156Y0149783D01*
X0146123Y0149732D01*
X0146087Y0149683D01*
X0146049Y0149637D01*
X0146007Y0149593D01*
X0145963Y0149551D01*
X0145917Y0149513D01*
X0145868Y0149477D01*
X0145817Y0149444D01*
X0145765Y0149415D01*
X0145710Y0149388D01*
X0145655Y0149365D01*
X0145598Y0149345D01*
X0145539Y0149329D01*
X0145480Y0149316D01*
X0145421Y0149307D01*
X0145360Y0149302D01*
X0145300Y0149300D01*
X0152800Y0162300D02*
X0160800Y0162300D01*
X0160860Y0162302D01*
X0160921Y0162307D01*
X0160980Y0162316D01*
X0161039Y0162329D01*
X0161098Y0162345D01*
X0161155Y0162365D01*
X0161210Y0162388D01*
X0161265Y0162415D01*
X0161317Y0162444D01*
X0161368Y0162477D01*
X0161417Y0162513D01*
X0161463Y0162551D01*
X0161507Y0162593D01*
X0161549Y0162637D01*
X0161587Y0162683D01*
X0161623Y0162732D01*
X0161656Y0162783D01*
X0161685Y0162835D01*
X0161712Y0162890D01*
X0161735Y0162945D01*
X0161755Y0163002D01*
X0161771Y0163061D01*
X0161784Y0163120D01*
X0161793Y0163179D01*
X0161798Y0163240D01*
X0161800Y0163300D01*
X0161800Y0180300D01*
X0161798Y0180360D01*
X0161793Y0180421D01*
X0161784Y0180480D01*
X0161771Y0180539D01*
X0161755Y0180598D01*
X0161735Y0180655D01*
X0161712Y0180710D01*
X0161685Y0180765D01*
X0161656Y0180817D01*
X0161623Y0180868D01*
X0161587Y0180917D01*
X0161549Y0180963D01*
X0161507Y0181007D01*
X0161463Y0181049D01*
X0161417Y0181087D01*
X0161368Y0181123D01*
X0161317Y0181156D01*
X0161265Y0181185D01*
X0161210Y0181212D01*
X0161155Y0181235D01*
X0161098Y0181255D01*
X0161039Y0181271D01*
X0160980Y0181284D01*
X0160921Y0181293D01*
X0160860Y0181298D01*
X0160800Y0181300D01*
X0152800Y0181300D01*
X0152740Y0181298D01*
X0152679Y0181293D01*
X0152620Y0181284D01*
X0152561Y0181271D01*
X0152502Y0181255D01*
X0152445Y0181235D01*
X0152390Y0181212D01*
X0152335Y0181185D01*
X0152283Y0181156D01*
X0152232Y0181123D01*
X0152183Y0181087D01*
X0152137Y0181049D01*
X0152093Y0181007D01*
X0152051Y0180963D01*
X0152013Y0180917D01*
X0151977Y0180868D01*
X0151944Y0180817D01*
X0151915Y0180765D01*
X0151888Y0180710D01*
X0151865Y0180655D01*
X0151845Y0180598D01*
X0151829Y0180539D01*
X0151816Y0180480D01*
X0151807Y0180421D01*
X0151802Y0180360D01*
X0151800Y0180300D01*
X0151800Y0163300D01*
X0151802Y0163240D01*
X0151807Y0163179D01*
X0151816Y0163120D01*
X0151829Y0163061D01*
X0151845Y0163002D01*
X0151865Y0162945D01*
X0151888Y0162890D01*
X0151915Y0162835D01*
X0151944Y0162783D01*
X0151977Y0162732D01*
X0152013Y0162683D01*
X0152051Y0162637D01*
X0152093Y0162593D01*
X0152137Y0162551D01*
X0152183Y0162513D01*
X0152232Y0162477D01*
X0152283Y0162444D01*
X0152335Y0162415D01*
X0152390Y0162388D01*
X0152445Y0162365D01*
X0152502Y0162345D01*
X0152561Y0162329D01*
X0152620Y0162316D01*
X0152679Y0162307D01*
X0152740Y0162302D01*
X0152800Y0162300D01*
X0156800Y0170300D02*
X0156800Y0170800D01*
X0156800Y0172800D02*
X0156800Y0173300D01*
X0167300Y0170800D02*
X0167300Y0162800D01*
X0167302Y0162740D01*
X0167307Y0162679D01*
X0167316Y0162620D01*
X0167329Y0162561D01*
X0167345Y0162502D01*
X0167365Y0162445D01*
X0167388Y0162390D01*
X0167415Y0162335D01*
X0167444Y0162283D01*
X0167477Y0162232D01*
X0167513Y0162183D01*
X0167551Y0162137D01*
X0167593Y0162093D01*
X0167637Y0162051D01*
X0167683Y0162013D01*
X0167732Y0161977D01*
X0167783Y0161944D01*
X0167835Y0161915D01*
X0167890Y0161888D01*
X0167945Y0161865D01*
X0168002Y0161845D01*
X0168061Y0161829D01*
X0168120Y0161816D01*
X0168179Y0161807D01*
X0168240Y0161802D01*
X0168300Y0161800D01*
X0185300Y0161800D01*
X0185360Y0161802D01*
X0185421Y0161807D01*
X0185480Y0161816D01*
X0185539Y0161829D01*
X0185598Y0161845D01*
X0185655Y0161865D01*
X0185710Y0161888D01*
X0185765Y0161915D01*
X0185817Y0161944D01*
X0185868Y0161977D01*
X0185917Y0162013D01*
X0185963Y0162051D01*
X0186007Y0162093D01*
X0186049Y0162137D01*
X0186087Y0162183D01*
X0186123Y0162232D01*
X0186156Y0162283D01*
X0186185Y0162335D01*
X0186212Y0162390D01*
X0186235Y0162445D01*
X0186255Y0162502D01*
X0186271Y0162561D01*
X0186284Y0162620D01*
X0186293Y0162679D01*
X0186298Y0162740D01*
X0186300Y0162800D01*
X0186300Y0170800D01*
X0186298Y0170860D01*
X0186293Y0170921D01*
X0186284Y0170980D01*
X0186271Y0171039D01*
X0186255Y0171098D01*
X0186235Y0171155D01*
X0186212Y0171210D01*
X0186185Y0171265D01*
X0186156Y0171317D01*
X0186123Y0171368D01*
X0186087Y0171417D01*
X0186049Y0171463D01*
X0186007Y0171507D01*
X0185963Y0171549D01*
X0185917Y0171587D01*
X0185868Y0171623D01*
X0185817Y0171656D01*
X0185765Y0171685D01*
X0185710Y0171712D01*
X0185655Y0171735D01*
X0185598Y0171755D01*
X0185539Y0171771D01*
X0185480Y0171784D01*
X0185421Y0171793D01*
X0185360Y0171798D01*
X0185300Y0171800D01*
X0168300Y0171800D01*
X0168240Y0171798D01*
X0168179Y0171793D01*
X0168120Y0171784D01*
X0168061Y0171771D01*
X0168002Y0171755D01*
X0167945Y0171735D01*
X0167890Y0171712D01*
X0167835Y0171685D01*
X0167783Y0171656D01*
X0167732Y0171623D01*
X0167683Y0171587D01*
X0167637Y0171549D01*
X0167593Y0171507D01*
X0167551Y0171463D01*
X0167513Y0171417D01*
X0167477Y0171368D01*
X0167444Y0171317D01*
X0167415Y0171265D01*
X0167388Y0171210D01*
X0167365Y0171155D01*
X0167345Y0171098D01*
X0167329Y0171039D01*
X0167316Y0170980D01*
X0167307Y0170921D01*
X0167302Y0170860D01*
X0167300Y0170800D01*
X0168300Y0176800D02*
X0185300Y0176800D01*
X0185360Y0176802D01*
X0185421Y0176807D01*
X0185480Y0176816D01*
X0185539Y0176829D01*
X0185598Y0176845D01*
X0185655Y0176865D01*
X0185710Y0176888D01*
X0185765Y0176915D01*
X0185817Y0176944D01*
X0185868Y0176977D01*
X0185917Y0177013D01*
X0185963Y0177051D01*
X0186007Y0177093D01*
X0186049Y0177137D01*
X0186087Y0177183D01*
X0186123Y0177232D01*
X0186156Y0177283D01*
X0186185Y0177335D01*
X0186212Y0177390D01*
X0186235Y0177445D01*
X0186255Y0177502D01*
X0186271Y0177561D01*
X0186284Y0177620D01*
X0186293Y0177679D01*
X0186298Y0177740D01*
X0186300Y0177800D01*
X0186300Y0185800D01*
X0186298Y0185860D01*
X0186293Y0185921D01*
X0186284Y0185980D01*
X0186271Y0186039D01*
X0186255Y0186098D01*
X0186235Y0186155D01*
X0186212Y0186210D01*
X0186185Y0186265D01*
X0186156Y0186317D01*
X0186123Y0186368D01*
X0186087Y0186417D01*
X0186049Y0186463D01*
X0186007Y0186507D01*
X0185963Y0186549D01*
X0185917Y0186587D01*
X0185868Y0186623D01*
X0185817Y0186656D01*
X0185765Y0186685D01*
X0185710Y0186712D01*
X0185655Y0186735D01*
X0185598Y0186755D01*
X0185539Y0186771D01*
X0185480Y0186784D01*
X0185421Y0186793D01*
X0185360Y0186798D01*
X0185300Y0186800D01*
X0168300Y0186800D01*
X0168240Y0186798D01*
X0168179Y0186793D01*
X0168120Y0186784D01*
X0168061Y0186771D01*
X0168002Y0186755D01*
X0167945Y0186735D01*
X0167890Y0186712D01*
X0167835Y0186685D01*
X0167783Y0186656D01*
X0167732Y0186623D01*
X0167683Y0186587D01*
X0167637Y0186549D01*
X0167593Y0186507D01*
X0167551Y0186463D01*
X0167513Y0186417D01*
X0167477Y0186368D01*
X0167444Y0186317D01*
X0167415Y0186265D01*
X0167388Y0186210D01*
X0167365Y0186155D01*
X0167345Y0186098D01*
X0167329Y0186039D01*
X0167316Y0185980D01*
X0167307Y0185921D01*
X0167302Y0185860D01*
X0167300Y0185800D01*
X0167300Y0177800D01*
X0167302Y0177740D01*
X0167307Y0177679D01*
X0167316Y0177620D01*
X0167329Y0177561D01*
X0167345Y0177502D01*
X0167365Y0177445D01*
X0167388Y0177390D01*
X0167415Y0177335D01*
X0167444Y0177283D01*
X0167477Y0177232D01*
X0167513Y0177183D01*
X0167551Y0177137D01*
X0167593Y0177093D01*
X0167637Y0177051D01*
X0167683Y0177013D01*
X0167732Y0176977D01*
X0167783Y0176944D01*
X0167835Y0176915D01*
X0167890Y0176888D01*
X0167945Y0176865D01*
X0168002Y0176845D01*
X0168061Y0176829D01*
X0168120Y0176816D01*
X0168179Y0176807D01*
X0168240Y0176802D01*
X0168300Y0176800D01*
X0175300Y0181800D02*
X0175800Y0181800D01*
X0177800Y0181800D02*
X0178300Y0181800D01*
X0192300Y0186800D02*
X0192300Y0188300D01*
X0192302Y0188360D01*
X0192307Y0188421D01*
X0192316Y0188480D01*
X0192329Y0188539D01*
X0192345Y0188598D01*
X0192365Y0188655D01*
X0192388Y0188710D01*
X0192415Y0188765D01*
X0192444Y0188817D01*
X0192477Y0188868D01*
X0192513Y0188917D01*
X0192551Y0188963D01*
X0192593Y0189007D01*
X0192637Y0189049D01*
X0192683Y0189087D01*
X0192732Y0189123D01*
X0192783Y0189156D01*
X0192835Y0189185D01*
X0192890Y0189212D01*
X0192945Y0189235D01*
X0193002Y0189255D01*
X0193061Y0189271D01*
X0193120Y0189284D01*
X0193179Y0189293D01*
X0193240Y0189298D01*
X0193300Y0189300D01*
X0200300Y0189300D01*
X0200360Y0189298D01*
X0200421Y0189293D01*
X0200480Y0189284D01*
X0200539Y0189271D01*
X0200598Y0189255D01*
X0200655Y0189235D01*
X0200710Y0189212D01*
X0200765Y0189185D01*
X0200817Y0189156D01*
X0200868Y0189123D01*
X0200917Y0189087D01*
X0200963Y0189049D01*
X0201007Y0189007D01*
X0201049Y0188963D01*
X0201087Y0188917D01*
X0201123Y0188868D01*
X0201156Y0188817D01*
X0201185Y0188765D01*
X0201212Y0188710D01*
X0201235Y0188655D01*
X0201255Y0188598D01*
X0201271Y0188539D01*
X0201284Y0188480D01*
X0201293Y0188421D01*
X0201298Y0188360D01*
X0201300Y0188300D01*
X0201300Y0186800D01*
X0200800Y0186300D01*
X0200800Y0167300D01*
X0201300Y0166800D01*
X0201300Y0165300D01*
X0201298Y0165240D01*
X0201293Y0165179D01*
X0201284Y0165120D01*
X0201271Y0165061D01*
X0201255Y0165002D01*
X0201235Y0164945D01*
X0201212Y0164890D01*
X0201185Y0164835D01*
X0201156Y0164783D01*
X0201123Y0164732D01*
X0201087Y0164683D01*
X0201049Y0164637D01*
X0201007Y0164593D01*
X0200963Y0164551D01*
X0200917Y0164513D01*
X0200868Y0164477D01*
X0200817Y0164444D01*
X0200765Y0164415D01*
X0200710Y0164388D01*
X0200655Y0164365D01*
X0200598Y0164345D01*
X0200539Y0164329D01*
X0200480Y0164316D01*
X0200421Y0164307D01*
X0200360Y0164302D01*
X0200300Y0164300D01*
X0193300Y0164300D01*
X0193240Y0164302D01*
X0193179Y0164307D01*
X0193120Y0164316D01*
X0193061Y0164329D01*
X0193002Y0164345D01*
X0192945Y0164365D01*
X0192890Y0164388D01*
X0192835Y0164415D01*
X0192783Y0164444D01*
X0192732Y0164477D01*
X0192683Y0164513D01*
X0192637Y0164551D01*
X0192593Y0164593D01*
X0192551Y0164637D01*
X0192513Y0164683D01*
X0192477Y0164732D01*
X0192444Y0164783D01*
X0192415Y0164835D01*
X0192388Y0164890D01*
X0192365Y0164945D01*
X0192345Y0165002D01*
X0192329Y0165061D01*
X0192316Y0165120D01*
X0192307Y0165179D01*
X0192302Y0165240D01*
X0192300Y0165300D01*
X0192300Y0166800D01*
X0192800Y0167300D01*
X0192800Y0186300D01*
X0192300Y0186800D01*
X0176800Y0190800D02*
X0176648Y0190802D01*
X0176497Y0190808D01*
X0176346Y0190817D01*
X0176194Y0190831D01*
X0176044Y0190848D01*
X0175894Y0190869D01*
X0175744Y0190894D01*
X0175595Y0190922D01*
X0175447Y0190955D01*
X0175300Y0190991D01*
X0175153Y0191030D01*
X0175008Y0191074D01*
X0174864Y0191121D01*
X0174721Y0191172D01*
X0174580Y0191226D01*
X0174439Y0191284D01*
X0174301Y0191345D01*
X0174164Y0191410D01*
X0174028Y0191479D01*
X0173895Y0191550D01*
X0173763Y0191625D01*
X0173633Y0191704D01*
X0173506Y0191785D01*
X0173380Y0191870D01*
X0173256Y0191958D01*
X0173135Y0192049D01*
X0173016Y0192143D01*
X0172900Y0192241D01*
X0172786Y0192341D01*
X0172674Y0192443D01*
X0172566Y0192549D01*
X0172460Y0192657D01*
X0172356Y0192768D01*
X0172256Y0192882D01*
X0172158Y0192998D01*
X0172064Y0193117D01*
X0176800Y0202800D02*
X0176954Y0202798D01*
X0177108Y0202792D01*
X0177262Y0202782D01*
X0177416Y0202768D01*
X0177569Y0202751D01*
X0177721Y0202729D01*
X0177873Y0202703D01*
X0178025Y0202674D01*
X0178175Y0202640D01*
X0178325Y0202603D01*
X0178473Y0202562D01*
X0178621Y0202517D01*
X0178767Y0202468D01*
X0178912Y0202416D01*
X0179055Y0202360D01*
X0179198Y0202300D01*
X0179338Y0202237D01*
X0179477Y0202170D01*
X0179614Y0202099D01*
X0179749Y0202025D01*
X0179882Y0201948D01*
X0180014Y0201867D01*
X0180143Y0201783D01*
X0180270Y0201695D01*
X0180394Y0201604D01*
X0180516Y0201511D01*
X0180636Y0201413D01*
X0180753Y0201313D01*
X0180868Y0201210D01*
X0180980Y0201104D01*
X0181089Y0200996D01*
X0181195Y0200884D01*
X0181299Y0200770D01*
X0181399Y0200653D01*
X0181497Y0200534D01*
X0181591Y0200412D01*
X0181682Y0200287D01*
X0176800Y0202800D02*
X0176650Y0202798D01*
X0176499Y0202792D01*
X0176349Y0202783D01*
X0176200Y0202770D01*
X0176050Y0202753D01*
X0175901Y0202732D01*
X0175753Y0202708D01*
X0175605Y0202680D01*
X0175458Y0202648D01*
X0175312Y0202613D01*
X0175167Y0202573D01*
X0175023Y0202531D01*
X0174880Y0202484D01*
X0174738Y0202434D01*
X0174597Y0202381D01*
X0174458Y0202324D01*
X0174320Y0202264D01*
X0174184Y0202200D01*
X0174050Y0202133D01*
X0173917Y0202062D01*
X0173786Y0201988D01*
X0173657Y0201911D01*
X0173530Y0201830D01*
X0173405Y0201747D01*
X0173282Y0201660D01*
X0173161Y0201571D01*
X0173043Y0201478D01*
X0172927Y0201382D01*
X0172813Y0201284D01*
X0172702Y0201183D01*
X0172593Y0201078D01*
X0172488Y0200972D01*
X0172384Y0200862D01*
X0172284Y0200750D01*
X0172186Y0200636D01*
X0172092Y0200519D01*
X0172000Y0200400D01*
X0176800Y0190800D02*
X0176952Y0190802D01*
X0177103Y0190808D01*
X0177254Y0190817D01*
X0177406Y0190831D01*
X0177556Y0190848D01*
X0177706Y0190869D01*
X0177856Y0190894D01*
X0178005Y0190922D01*
X0178153Y0190955D01*
X0178300Y0190991D01*
X0178447Y0191030D01*
X0178592Y0191074D01*
X0178736Y0191121D01*
X0178879Y0191172D01*
X0179020Y0191226D01*
X0179161Y0191284D01*
X0179299Y0191345D01*
X0179436Y0191410D01*
X0179572Y0191479D01*
X0179705Y0191550D01*
X0179837Y0191625D01*
X0179967Y0191704D01*
X0180094Y0191785D01*
X0180220Y0191870D01*
X0180344Y0191958D01*
X0180465Y0192049D01*
X0180584Y0192143D01*
X0180700Y0192241D01*
X0180814Y0192341D01*
X0180926Y0192443D01*
X0181034Y0192549D01*
X0181140Y0192657D01*
X0181244Y0192768D01*
X0181344Y0192882D01*
X0181442Y0192998D01*
X0181536Y0193117D01*
X0178300Y0166800D02*
X0177800Y0166800D01*
X0175800Y0166800D02*
X0175300Y0166800D01*
X0138800Y0196800D02*
X0135800Y0196800D01*
X0137300Y0195300D02*
X0137300Y0198300D01*
X0121800Y0191800D02*
X0121803Y0192045D01*
X0121812Y0192291D01*
X0121827Y0192536D01*
X0121848Y0192780D01*
X0121875Y0193024D01*
X0121908Y0193267D01*
X0121947Y0193510D01*
X0121992Y0193751D01*
X0122043Y0193991D01*
X0122100Y0194230D01*
X0122162Y0194467D01*
X0122231Y0194703D01*
X0122305Y0194937D01*
X0122385Y0195169D01*
X0122470Y0195399D01*
X0122561Y0195627D01*
X0122658Y0195852D01*
X0122760Y0196076D01*
X0122868Y0196296D01*
X0122981Y0196514D01*
X0123099Y0196729D01*
X0123223Y0196941D01*
X0123351Y0197150D01*
X0123485Y0197356D01*
X0123624Y0197558D01*
X0123768Y0197757D01*
X0123917Y0197952D01*
X0124070Y0198144D01*
X0124228Y0198332D01*
X0124390Y0198516D01*
X0124558Y0198695D01*
X0124729Y0198871D01*
X0124905Y0199042D01*
X0125084Y0199210D01*
X0125268Y0199372D01*
X0125456Y0199530D01*
X0125648Y0199683D01*
X0125843Y0199832D01*
X0126042Y0199976D01*
X0126244Y0200115D01*
X0126450Y0200249D01*
X0126659Y0200377D01*
X0126871Y0200501D01*
X0127086Y0200619D01*
X0127304Y0200732D01*
X0127524Y0200840D01*
X0127748Y0200942D01*
X0127973Y0201039D01*
X0128201Y0201130D01*
X0128431Y0201215D01*
X0128663Y0201295D01*
X0128897Y0201369D01*
X0129133Y0201438D01*
X0129370Y0201500D01*
X0129609Y0201557D01*
X0129849Y0201608D01*
X0130090Y0201653D01*
X0130333Y0201692D01*
X0130576Y0201725D01*
X0130820Y0201752D01*
X0131064Y0201773D01*
X0131309Y0201788D01*
X0131555Y0201797D01*
X0131800Y0201800D01*
X0132045Y0201797D01*
X0132291Y0201788D01*
X0132536Y0201773D01*
X0132780Y0201752D01*
X0133024Y0201725D01*
X0133267Y0201692D01*
X0133510Y0201653D01*
X0133751Y0201608D01*
X0133991Y0201557D01*
X0134230Y0201500D01*
X0134467Y0201438D01*
X0134703Y0201369D01*
X0134937Y0201295D01*
X0135169Y0201215D01*
X0135399Y0201130D01*
X0135627Y0201039D01*
X0135852Y0200942D01*
X0136076Y0200840D01*
X0136296Y0200732D01*
X0136514Y0200619D01*
X0136729Y0200501D01*
X0136941Y0200377D01*
X0137150Y0200249D01*
X0137356Y0200115D01*
X0137558Y0199976D01*
X0137757Y0199832D01*
X0137952Y0199683D01*
X0138144Y0199530D01*
X0138332Y0199372D01*
X0138516Y0199210D01*
X0138695Y0199042D01*
X0138871Y0198871D01*
X0139042Y0198695D01*
X0139210Y0198516D01*
X0139372Y0198332D01*
X0139530Y0198144D01*
X0139683Y0197952D01*
X0139832Y0197757D01*
X0139976Y0197558D01*
X0140115Y0197356D01*
X0140249Y0197150D01*
X0140377Y0196941D01*
X0140501Y0196729D01*
X0140619Y0196514D01*
X0140732Y0196296D01*
X0140840Y0196076D01*
X0140942Y0195852D01*
X0141039Y0195627D01*
X0141130Y0195399D01*
X0141215Y0195169D01*
X0141295Y0194937D01*
X0141369Y0194703D01*
X0141438Y0194467D01*
X0141500Y0194230D01*
X0141557Y0193991D01*
X0141608Y0193751D01*
X0141653Y0193510D01*
X0141692Y0193267D01*
X0141725Y0193024D01*
X0141752Y0192780D01*
X0141773Y0192536D01*
X0141788Y0192291D01*
X0141797Y0192045D01*
X0141800Y0191800D01*
X0141797Y0191555D01*
X0141788Y0191309D01*
X0141773Y0191064D01*
X0141752Y0190820D01*
X0141725Y0190576D01*
X0141692Y0190333D01*
X0141653Y0190090D01*
X0141608Y0189849D01*
X0141557Y0189609D01*
X0141500Y0189370D01*
X0141438Y0189133D01*
X0141369Y0188897D01*
X0141295Y0188663D01*
X0141215Y0188431D01*
X0141130Y0188201D01*
X0141039Y0187973D01*
X0140942Y0187748D01*
X0140840Y0187524D01*
X0140732Y0187304D01*
X0140619Y0187086D01*
X0140501Y0186871D01*
X0140377Y0186659D01*
X0140249Y0186450D01*
X0140115Y0186244D01*
X0139976Y0186042D01*
X0139832Y0185843D01*
X0139683Y0185648D01*
X0139530Y0185456D01*
X0139372Y0185268D01*
X0139210Y0185084D01*
X0139042Y0184905D01*
X0138871Y0184729D01*
X0138695Y0184558D01*
X0138516Y0184390D01*
X0138332Y0184228D01*
X0138144Y0184070D01*
X0137952Y0183917D01*
X0137757Y0183768D01*
X0137558Y0183624D01*
X0137356Y0183485D01*
X0137150Y0183351D01*
X0136941Y0183223D01*
X0136729Y0183099D01*
X0136514Y0182981D01*
X0136296Y0182868D01*
X0136076Y0182760D01*
X0135852Y0182658D01*
X0135627Y0182561D01*
X0135399Y0182470D01*
X0135169Y0182385D01*
X0134937Y0182305D01*
X0134703Y0182231D01*
X0134467Y0182162D01*
X0134230Y0182100D01*
X0133991Y0182043D01*
X0133751Y0181992D01*
X0133510Y0181947D01*
X0133267Y0181908D01*
X0133024Y0181875D01*
X0132780Y0181848D01*
X0132536Y0181827D01*
X0132291Y0181812D01*
X0132045Y0181803D01*
X0131800Y0181800D01*
X0131555Y0181803D01*
X0131309Y0181812D01*
X0131064Y0181827D01*
X0130820Y0181848D01*
X0130576Y0181875D01*
X0130333Y0181908D01*
X0130090Y0181947D01*
X0129849Y0181992D01*
X0129609Y0182043D01*
X0129370Y0182100D01*
X0129133Y0182162D01*
X0128897Y0182231D01*
X0128663Y0182305D01*
X0128431Y0182385D01*
X0128201Y0182470D01*
X0127973Y0182561D01*
X0127748Y0182658D01*
X0127524Y0182760D01*
X0127304Y0182868D01*
X0127086Y0182981D01*
X0126871Y0183099D01*
X0126659Y0183223D01*
X0126450Y0183351D01*
X0126244Y0183485D01*
X0126042Y0183624D01*
X0125843Y0183768D01*
X0125648Y0183917D01*
X0125456Y0184070D01*
X0125268Y0184228D01*
X0125084Y0184390D01*
X0124905Y0184558D01*
X0124729Y0184729D01*
X0124558Y0184905D01*
X0124390Y0185084D01*
X0124228Y0185268D01*
X0124070Y0185456D01*
X0123917Y0185648D01*
X0123768Y0185843D01*
X0123624Y0186042D01*
X0123485Y0186244D01*
X0123351Y0186450D01*
X0123223Y0186659D01*
X0123099Y0186871D01*
X0122981Y0187086D01*
X0122868Y0187304D01*
X0122760Y0187524D01*
X0122658Y0187748D01*
X0122561Y0187973D01*
X0122470Y0188201D01*
X0122385Y0188431D01*
X0122305Y0188663D01*
X0122231Y0188897D01*
X0122162Y0189133D01*
X0122100Y0189370D01*
X0122043Y0189609D01*
X0121992Y0189849D01*
X0121947Y0190090D01*
X0121908Y0190333D01*
X0121875Y0190576D01*
X0121848Y0190820D01*
X0121827Y0191064D01*
X0121812Y0191309D01*
X0121803Y0191555D01*
X0121800Y0191800D01*
X0118300Y0161800D02*
X0110800Y0161800D01*
X0110798Y0161674D01*
X0110792Y0161549D01*
X0110782Y0161424D01*
X0110768Y0161299D01*
X0110751Y0161174D01*
X0110729Y0161050D01*
X0110704Y0160927D01*
X0110674Y0160805D01*
X0110641Y0160684D01*
X0110604Y0160564D01*
X0110564Y0160445D01*
X0110519Y0160328D01*
X0110471Y0160211D01*
X0110419Y0160097D01*
X0110364Y0159984D01*
X0110305Y0159873D01*
X0110243Y0159764D01*
X0110177Y0159657D01*
X0110108Y0159552D01*
X0110036Y0159449D01*
X0109961Y0159348D01*
X0109882Y0159250D01*
X0109800Y0159155D01*
X0109716Y0159062D01*
X0109628Y0158972D01*
X0109538Y0158884D01*
X0109445Y0158800D01*
X0109350Y0158718D01*
X0109252Y0158639D01*
X0109151Y0158564D01*
X0109048Y0158492D01*
X0108943Y0158423D01*
X0108836Y0158357D01*
X0108727Y0158295D01*
X0108616Y0158236D01*
X0108503Y0158181D01*
X0108389Y0158129D01*
X0108272Y0158081D01*
X0108155Y0158036D01*
X0108036Y0157996D01*
X0107916Y0157959D01*
X0107795Y0157926D01*
X0107673Y0157896D01*
X0107550Y0157871D01*
X0107426Y0157849D01*
X0107301Y0157832D01*
X0107176Y0157818D01*
X0107051Y0157808D01*
X0106926Y0157802D01*
X0106800Y0157800D01*
X0106674Y0157802D01*
X0106549Y0157808D01*
X0106424Y0157818D01*
X0106299Y0157832D01*
X0106174Y0157849D01*
X0106050Y0157871D01*
X0105927Y0157896D01*
X0105805Y0157926D01*
X0105684Y0157959D01*
X0105564Y0157996D01*
X0105445Y0158036D01*
X0105328Y0158081D01*
X0105211Y0158129D01*
X0105097Y0158181D01*
X0104984Y0158236D01*
X0104873Y0158295D01*
X0104764Y0158357D01*
X0104657Y0158423D01*
X0104552Y0158492D01*
X0104449Y0158564D01*
X0104348Y0158639D01*
X0104250Y0158718D01*
X0104155Y0158800D01*
X0104062Y0158884D01*
X0103972Y0158972D01*
X0103884Y0159062D01*
X0103800Y0159155D01*
X0103718Y0159250D01*
X0103639Y0159348D01*
X0103564Y0159449D01*
X0103492Y0159552D01*
X0103423Y0159657D01*
X0103357Y0159764D01*
X0103295Y0159873D01*
X0103236Y0159984D01*
X0103181Y0160097D01*
X0103129Y0160211D01*
X0103081Y0160328D01*
X0103036Y0160445D01*
X0102996Y0160564D01*
X0102959Y0160684D01*
X0102926Y0160805D01*
X0102896Y0160927D01*
X0102871Y0161050D01*
X0102849Y0161174D01*
X0102832Y0161299D01*
X0102818Y0161424D01*
X0102808Y0161549D01*
X0102802Y0161674D01*
X0102800Y0161800D01*
X0095300Y0161800D01*
X0095300Y0021800D01*
X0118300Y0021800D01*
X0118300Y0161800D01*
X0049300Y0188300D02*
X0049300Y0195300D01*
X0049298Y0195360D01*
X0049293Y0195421D01*
X0049284Y0195480D01*
X0049271Y0195539D01*
X0049255Y0195598D01*
X0049235Y0195655D01*
X0049212Y0195710D01*
X0049185Y0195765D01*
X0049156Y0195817D01*
X0049123Y0195868D01*
X0049087Y0195917D01*
X0049049Y0195963D01*
X0049007Y0196007D01*
X0048963Y0196049D01*
X0048917Y0196087D01*
X0048868Y0196123D01*
X0048817Y0196156D01*
X0048765Y0196185D01*
X0048710Y0196212D01*
X0048655Y0196235D01*
X0048598Y0196255D01*
X0048539Y0196271D01*
X0048480Y0196284D01*
X0048421Y0196293D01*
X0048360Y0196298D01*
X0048300Y0196300D01*
X0046800Y0196300D01*
X0046300Y0195800D01*
X0027300Y0195800D01*
X0026800Y0196300D01*
X0025300Y0196300D01*
X0025240Y0196298D01*
X0025179Y0196293D01*
X0025120Y0196284D01*
X0025061Y0196271D01*
X0025002Y0196255D01*
X0024945Y0196235D01*
X0024890Y0196212D01*
X0024835Y0196185D01*
X0024783Y0196156D01*
X0024732Y0196123D01*
X0024683Y0196087D01*
X0024637Y0196049D01*
X0024593Y0196007D01*
X0024551Y0195963D01*
X0024513Y0195917D01*
X0024477Y0195868D01*
X0024444Y0195817D01*
X0024415Y0195765D01*
X0024388Y0195710D01*
X0024365Y0195655D01*
X0024345Y0195598D01*
X0024329Y0195539D01*
X0024316Y0195480D01*
X0024307Y0195421D01*
X0024302Y0195360D01*
X0024300Y0195300D01*
X0024300Y0188300D01*
X0024302Y0188240D01*
X0024307Y0188179D01*
X0024316Y0188120D01*
X0024329Y0188061D01*
X0024345Y0188002D01*
X0024365Y0187945D01*
X0024388Y0187890D01*
X0024415Y0187835D01*
X0024444Y0187783D01*
X0024477Y0187732D01*
X0024513Y0187683D01*
X0024551Y0187637D01*
X0024593Y0187593D01*
X0024637Y0187551D01*
X0024683Y0187513D01*
X0024732Y0187477D01*
X0024783Y0187444D01*
X0024835Y0187415D01*
X0024890Y0187388D01*
X0024945Y0187365D01*
X0025002Y0187345D01*
X0025061Y0187329D01*
X0025120Y0187316D01*
X0025179Y0187307D01*
X0025240Y0187302D01*
X0025300Y0187300D01*
X0026800Y0187300D01*
X0027300Y0187800D01*
X0046300Y0187800D01*
X0046800Y0187300D01*
X0048300Y0187300D01*
X0048360Y0187302D01*
X0048421Y0187307D01*
X0048480Y0187316D01*
X0048539Y0187329D01*
X0048598Y0187345D01*
X0048655Y0187365D01*
X0048710Y0187388D01*
X0048765Y0187415D01*
X0048817Y0187444D01*
X0048868Y0187477D01*
X0048917Y0187513D01*
X0048963Y0187551D01*
X0049007Y0187593D01*
X0049049Y0187637D01*
X0049087Y0187683D01*
X0049123Y0187732D01*
X0049156Y0187783D01*
X0049185Y0187835D01*
X0049212Y0187890D01*
X0049235Y0187945D01*
X0049255Y0188002D01*
X0049271Y0188061D01*
X0049284Y0188120D01*
X0049293Y0188179D01*
X0049298Y0188240D01*
X0049300Y0188300D01*
X0025681Y0143505D02*
X0025681Y0137100D01*
X0027816Y0137100D02*
X0023545Y0137100D01*
X0021370Y0137100D02*
X0021370Y0141370D01*
X0019235Y0143505D01*
X0017100Y0141370D01*
X0017100Y0137100D01*
X0017100Y0140303D02*
X0021370Y0140303D01*
X0023545Y0141370D02*
X0025681Y0143505D01*
X0026748Y0133505D02*
X0024613Y0133505D01*
X0023545Y0132438D01*
X0021370Y0132438D02*
X0021370Y0131370D01*
X0020303Y0130303D01*
X0017100Y0130303D01*
X0017100Y0133505D02*
X0020303Y0133505D01*
X0021370Y0132438D01*
X0020303Y0130303D02*
X0021370Y0129235D01*
X0021370Y0128168D01*
X0020303Y0127100D01*
X0017100Y0127100D01*
X0017100Y0133505D01*
X0023545Y0127100D02*
X0027816Y0131370D01*
X0027816Y0132438D01*
X0026748Y0133505D01*
X0027816Y0127100D02*
X0023545Y0127100D01*
X0024613Y0123505D02*
X0026748Y0123505D01*
X0027816Y0122438D01*
X0027816Y0121370D01*
X0026748Y0120303D01*
X0027816Y0119235D01*
X0027816Y0118168D01*
X0026748Y0117100D01*
X0024613Y0117100D01*
X0023545Y0118168D01*
X0021370Y0118168D02*
X0020303Y0117100D01*
X0017100Y0117100D01*
X0017100Y0123505D01*
X0020303Y0123505D01*
X0021370Y0122438D01*
X0021370Y0121370D01*
X0020303Y0120303D01*
X0017100Y0120303D01*
X0020303Y0120303D02*
X0021370Y0119235D01*
X0021370Y0118168D01*
X0020303Y0113505D02*
X0017100Y0113505D01*
X0017100Y0107100D01*
X0020303Y0107100D01*
X0021370Y0108168D01*
X0021370Y0109235D01*
X0020303Y0110303D01*
X0017100Y0110303D01*
X0020303Y0110303D02*
X0021370Y0111370D01*
X0021370Y0112438D01*
X0020303Y0113505D01*
X0023545Y0110303D02*
X0027816Y0110303D01*
X0026748Y0113505D02*
X0026748Y0107100D01*
X0023545Y0110303D02*
X0026748Y0113505D01*
X0026748Y0120303D02*
X0025681Y0120303D01*
X0023545Y0122438D02*
X0024613Y0123505D01*
X0023545Y0103505D02*
X0023545Y0100303D01*
X0025681Y0101370D01*
X0026748Y0101370D01*
X0027816Y0100303D01*
X0027816Y0098168D01*
X0026748Y0097100D01*
X0024613Y0097100D01*
X0023545Y0098168D01*
X0021370Y0097100D02*
X0021370Y0101370D01*
X0019235Y0103505D01*
X0017100Y0101370D01*
X0017100Y0097100D01*
X0017100Y0100303D02*
X0021370Y0100303D01*
X0023545Y0103505D02*
X0027816Y0103505D01*
X0027816Y0093505D02*
X0027816Y0089235D01*
X0025681Y0087100D01*
X0023545Y0089235D01*
X0023545Y0093505D01*
X0021370Y0092438D02*
X0021370Y0091370D01*
X0020303Y0090303D01*
X0021370Y0089235D01*
X0021370Y0088168D01*
X0020303Y0087100D01*
X0018168Y0087100D01*
X0017100Y0088168D01*
X0019235Y0090303D02*
X0020303Y0090303D01*
X0021370Y0092438D02*
X0020303Y0093505D01*
X0018168Y0093505D01*
X0017100Y0092438D01*
X0018168Y0083505D02*
X0017100Y0082438D01*
X0017100Y0078168D01*
X0018168Y0077100D01*
X0020303Y0077100D01*
X0021370Y0078168D01*
X0021370Y0080303D01*
X0019235Y0080303D01*
X0021370Y0082438D02*
X0020303Y0083505D01*
X0018168Y0083505D01*
X0023545Y0083505D02*
X0023545Y0077100D01*
X0027816Y0077100D02*
X0027816Y0083505D01*
X0029991Y0083505D02*
X0033194Y0083505D01*
X0034261Y0082438D01*
X0034261Y0078168D01*
X0033194Y0077100D01*
X0029991Y0077100D01*
X0029991Y0083505D01*
X0031059Y0087100D02*
X0029991Y0088168D01*
X0031059Y0087100D02*
X0033194Y0087100D01*
X0034261Y0088168D01*
X0034261Y0089235D01*
X0033194Y0090303D01*
X0032126Y0090303D01*
X0033194Y0090303D02*
X0034261Y0091370D01*
X0034261Y0092438D01*
X0033194Y0093505D01*
X0031059Y0093505D01*
X0029991Y0092438D01*
X0023545Y0083505D02*
X0027816Y0077100D01*
X0017064Y0058117D02*
X0017158Y0057998D01*
X0017256Y0057882D01*
X0017356Y0057768D01*
X0017460Y0057657D01*
X0017566Y0057549D01*
X0017674Y0057443D01*
X0017786Y0057341D01*
X0017900Y0057241D01*
X0018016Y0057143D01*
X0018135Y0057049D01*
X0018256Y0056958D01*
X0018380Y0056870D01*
X0018506Y0056785D01*
X0018633Y0056704D01*
X0018763Y0056625D01*
X0018895Y0056550D01*
X0019028Y0056479D01*
X0019164Y0056410D01*
X0019301Y0056345D01*
X0019439Y0056284D01*
X0019580Y0056226D01*
X0019721Y0056172D01*
X0019864Y0056121D01*
X0020008Y0056074D01*
X0020153Y0056030D01*
X0020300Y0055991D01*
X0020447Y0055955D01*
X0020595Y0055922D01*
X0020744Y0055894D01*
X0020894Y0055869D01*
X0021044Y0055848D01*
X0021194Y0055831D01*
X0021346Y0055817D01*
X0021497Y0055808D01*
X0021648Y0055802D01*
X0021800Y0055800D01*
X0017000Y0065400D02*
X0017092Y0065519D01*
X0017186Y0065636D01*
X0017284Y0065750D01*
X0017384Y0065862D01*
X0017488Y0065972D01*
X0017593Y0066078D01*
X0017702Y0066183D01*
X0017813Y0066284D01*
X0017927Y0066382D01*
X0018043Y0066478D01*
X0018161Y0066571D01*
X0018282Y0066660D01*
X0018405Y0066747D01*
X0018530Y0066830D01*
X0018657Y0066911D01*
X0018786Y0066988D01*
X0018917Y0067062D01*
X0019050Y0067133D01*
X0019184Y0067200D01*
X0019320Y0067264D01*
X0019458Y0067324D01*
X0019597Y0067381D01*
X0019738Y0067434D01*
X0019880Y0067484D01*
X0020023Y0067531D01*
X0020167Y0067573D01*
X0020312Y0067613D01*
X0020458Y0067648D01*
X0020605Y0067680D01*
X0020753Y0067708D01*
X0020901Y0067732D01*
X0021050Y0067753D01*
X0021200Y0067770D01*
X0021349Y0067783D01*
X0021499Y0067792D01*
X0021650Y0067798D01*
X0021800Y0067800D01*
X0026536Y0058117D02*
X0026442Y0057998D01*
X0026344Y0057882D01*
X0026244Y0057768D01*
X0026140Y0057657D01*
X0026034Y0057549D01*
X0025926Y0057443D01*
X0025814Y0057341D01*
X0025700Y0057241D01*
X0025584Y0057143D01*
X0025465Y0057049D01*
X0025344Y0056958D01*
X0025220Y0056870D01*
X0025094Y0056785D01*
X0024967Y0056704D01*
X0024837Y0056625D01*
X0024705Y0056550D01*
X0024572Y0056479D01*
X0024436Y0056410D01*
X0024299Y0056345D01*
X0024161Y0056284D01*
X0024020Y0056226D01*
X0023879Y0056172D01*
X0023736Y0056121D01*
X0023592Y0056074D01*
X0023447Y0056030D01*
X0023300Y0055991D01*
X0023153Y0055955D01*
X0023005Y0055922D01*
X0022856Y0055894D01*
X0022706Y0055869D01*
X0022556Y0055848D01*
X0022406Y0055831D01*
X0022254Y0055817D01*
X0022103Y0055808D01*
X0021952Y0055802D01*
X0021800Y0055800D01*
X0026682Y0065287D02*
X0026591Y0065412D01*
X0026497Y0065534D01*
X0026399Y0065653D01*
X0026299Y0065770D01*
X0026195Y0065884D01*
X0026089Y0065996D01*
X0025980Y0066104D01*
X0025868Y0066210D01*
X0025753Y0066313D01*
X0025636Y0066413D01*
X0025516Y0066511D01*
X0025394Y0066604D01*
X0025270Y0066695D01*
X0025143Y0066783D01*
X0025014Y0066867D01*
X0024882Y0066948D01*
X0024749Y0067025D01*
X0024614Y0067099D01*
X0024477Y0067170D01*
X0024338Y0067237D01*
X0024198Y0067300D01*
X0024055Y0067360D01*
X0023912Y0067416D01*
X0023767Y0067468D01*
X0023621Y0067517D01*
X0023473Y0067562D01*
X0023325Y0067603D01*
X0023175Y0067640D01*
X0023025Y0067674D01*
X0022873Y0067703D01*
X0022721Y0067729D01*
X0022569Y0067751D01*
X0022416Y0067768D01*
X0022262Y0067782D01*
X0022108Y0067792D01*
X0021954Y0067798D01*
X0021800Y0067800D01*
X0037300Y0053300D02*
X0037300Y0051800D01*
X0037800Y0051300D01*
X0037800Y0032300D01*
X0037300Y0031800D01*
X0037300Y0030300D01*
X0037302Y0030240D01*
X0037307Y0030179D01*
X0037316Y0030120D01*
X0037329Y0030061D01*
X0037345Y0030002D01*
X0037365Y0029945D01*
X0037388Y0029890D01*
X0037415Y0029835D01*
X0037444Y0029783D01*
X0037477Y0029732D01*
X0037513Y0029683D01*
X0037551Y0029637D01*
X0037593Y0029593D01*
X0037637Y0029551D01*
X0037683Y0029513D01*
X0037732Y0029477D01*
X0037783Y0029444D01*
X0037835Y0029415D01*
X0037890Y0029388D01*
X0037945Y0029365D01*
X0038002Y0029345D01*
X0038061Y0029329D01*
X0038120Y0029316D01*
X0038179Y0029307D01*
X0038240Y0029302D01*
X0038300Y0029300D01*
X0045300Y0029300D01*
X0045360Y0029302D01*
X0045421Y0029307D01*
X0045480Y0029316D01*
X0045539Y0029329D01*
X0045598Y0029345D01*
X0045655Y0029365D01*
X0045710Y0029388D01*
X0045765Y0029415D01*
X0045817Y0029444D01*
X0045868Y0029477D01*
X0045917Y0029513D01*
X0045963Y0029551D01*
X0046007Y0029593D01*
X0046049Y0029637D01*
X0046087Y0029683D01*
X0046123Y0029732D01*
X0046156Y0029783D01*
X0046185Y0029835D01*
X0046212Y0029890D01*
X0046235Y0029945D01*
X0046255Y0030002D01*
X0046271Y0030061D01*
X0046284Y0030120D01*
X0046293Y0030179D01*
X0046298Y0030240D01*
X0046300Y0030300D01*
X0046300Y0031800D01*
X0045800Y0032300D01*
X0045800Y0051300D01*
X0046300Y0051800D01*
X0046300Y0053300D01*
X0046298Y0053360D01*
X0046293Y0053421D01*
X0046284Y0053480D01*
X0046271Y0053539D01*
X0046255Y0053598D01*
X0046235Y0053655D01*
X0046212Y0053710D01*
X0046185Y0053765D01*
X0046156Y0053817D01*
X0046123Y0053868D01*
X0046087Y0053917D01*
X0046049Y0053963D01*
X0046007Y0054007D01*
X0045963Y0054049D01*
X0045917Y0054087D01*
X0045868Y0054123D01*
X0045817Y0054156D01*
X0045765Y0054185D01*
X0045710Y0054212D01*
X0045655Y0054235D01*
X0045598Y0054255D01*
X0045539Y0054271D01*
X0045480Y0054284D01*
X0045421Y0054293D01*
X0045360Y0054298D01*
X0045300Y0054300D01*
X0038300Y0054300D01*
X0038240Y0054298D01*
X0038179Y0054293D01*
X0038120Y0054284D01*
X0038061Y0054271D01*
X0038002Y0054255D01*
X0037945Y0054235D01*
X0037890Y0054212D01*
X0037835Y0054185D01*
X0037783Y0054156D01*
X0037732Y0054123D01*
X0037683Y0054087D01*
X0037637Y0054049D01*
X0037593Y0054007D01*
X0037551Y0053963D01*
X0037513Y0053917D01*
X0037477Y0053868D01*
X0037444Y0053817D01*
X0037415Y0053765D01*
X0037388Y0053710D01*
X0037365Y0053655D01*
X0037345Y0053598D01*
X0037329Y0053539D01*
X0037316Y0053480D01*
X0037307Y0053421D01*
X0037302Y0053360D01*
X0037300Y0053300D01*
X0061800Y0040300D02*
X0061800Y0023300D01*
X0061802Y0023240D01*
X0061807Y0023179D01*
X0061816Y0023120D01*
X0061829Y0023061D01*
X0061845Y0023002D01*
X0061865Y0022945D01*
X0061888Y0022890D01*
X0061915Y0022835D01*
X0061944Y0022783D01*
X0061977Y0022732D01*
X0062013Y0022683D01*
X0062051Y0022637D01*
X0062093Y0022593D01*
X0062137Y0022551D01*
X0062183Y0022513D01*
X0062232Y0022477D01*
X0062283Y0022444D01*
X0062335Y0022415D01*
X0062390Y0022388D01*
X0062445Y0022365D01*
X0062502Y0022345D01*
X0062561Y0022329D01*
X0062620Y0022316D01*
X0062679Y0022307D01*
X0062740Y0022302D01*
X0062800Y0022300D01*
X0070800Y0022300D01*
X0070860Y0022302D01*
X0070921Y0022307D01*
X0070980Y0022316D01*
X0071039Y0022329D01*
X0071098Y0022345D01*
X0071155Y0022365D01*
X0071210Y0022388D01*
X0071265Y0022415D01*
X0071317Y0022444D01*
X0071368Y0022477D01*
X0071417Y0022513D01*
X0071463Y0022551D01*
X0071507Y0022593D01*
X0071549Y0022637D01*
X0071587Y0022683D01*
X0071623Y0022732D01*
X0071656Y0022783D01*
X0071685Y0022835D01*
X0071712Y0022890D01*
X0071735Y0022945D01*
X0071755Y0023002D01*
X0071771Y0023061D01*
X0071784Y0023120D01*
X0071793Y0023179D01*
X0071798Y0023240D01*
X0071800Y0023300D01*
X0071800Y0040300D01*
X0071798Y0040360D01*
X0071793Y0040421D01*
X0071784Y0040480D01*
X0071771Y0040539D01*
X0071755Y0040598D01*
X0071735Y0040655D01*
X0071712Y0040710D01*
X0071685Y0040765D01*
X0071656Y0040817D01*
X0071623Y0040868D01*
X0071587Y0040917D01*
X0071549Y0040963D01*
X0071507Y0041007D01*
X0071463Y0041049D01*
X0071417Y0041087D01*
X0071368Y0041123D01*
X0071317Y0041156D01*
X0071265Y0041185D01*
X0071210Y0041212D01*
X0071155Y0041235D01*
X0071098Y0041255D01*
X0071039Y0041271D01*
X0070980Y0041284D01*
X0070921Y0041293D01*
X0070860Y0041298D01*
X0070800Y0041300D01*
X0062800Y0041300D01*
X0062740Y0041298D01*
X0062679Y0041293D01*
X0062620Y0041284D01*
X0062561Y0041271D01*
X0062502Y0041255D01*
X0062445Y0041235D01*
X0062390Y0041212D01*
X0062335Y0041185D01*
X0062283Y0041156D01*
X0062232Y0041123D01*
X0062183Y0041087D01*
X0062137Y0041049D01*
X0062093Y0041007D01*
X0062051Y0040963D01*
X0062013Y0040917D01*
X0061977Y0040868D01*
X0061944Y0040817D01*
X0061915Y0040765D01*
X0061888Y0040710D01*
X0061865Y0040655D01*
X0061845Y0040598D01*
X0061829Y0040539D01*
X0061816Y0040480D01*
X0061807Y0040421D01*
X0061802Y0040360D01*
X0061800Y0040300D01*
X0066800Y0033300D02*
X0066800Y0032800D01*
X0066800Y0030800D02*
X0066800Y0030300D01*
X0064800Y0060300D02*
X0064800Y0083300D01*
X0064802Y0083470D01*
X0064808Y0083641D01*
X0064819Y0083811D01*
X0064833Y0083981D01*
X0064852Y0084150D01*
X0064875Y0084319D01*
X0064901Y0084488D01*
X0064932Y0084655D01*
X0064967Y0084822D01*
X0065007Y0084988D01*
X0065050Y0085153D01*
X0065097Y0085317D01*
X0065148Y0085479D01*
X0065203Y0085641D01*
X0065262Y0085801D01*
X0065325Y0085959D01*
X0065391Y0086116D01*
X0065462Y0086271D01*
X0065536Y0086425D01*
X0065614Y0086576D01*
X0065696Y0086726D01*
X0065781Y0086874D01*
X0065870Y0087019D01*
X0065962Y0087162D01*
X0066058Y0087303D01*
X0066157Y0087442D01*
X0066260Y0087578D01*
X0066365Y0087712D01*
X0066474Y0087843D01*
X0066587Y0087971D01*
X0066702Y0088097D01*
X0066820Y0088220D01*
X0066941Y0088339D01*
X0067066Y0088456D01*
X0067193Y0088570D01*
X0067322Y0088681D01*
X0067455Y0088788D01*
X0067590Y0088892D01*
X0067727Y0088993D01*
X0067867Y0089091D01*
X0068009Y0089185D01*
X0068153Y0089275D01*
X0068300Y0089362D01*
X0068449Y0089446D01*
X0068599Y0089525D01*
X0068752Y0089601D01*
X0068906Y0089674D01*
X0069062Y0089742D01*
X0069220Y0089807D01*
X0069379Y0089868D01*
X0069540Y0089925D01*
X0069702Y0089978D01*
X0069865Y0090027D01*
X0070029Y0090072D01*
X0070195Y0090113D01*
X0070361Y0090151D01*
X0070529Y0090184D01*
X0070697Y0090212D01*
X0070865Y0090237D01*
X0071034Y0090258D01*
X0071204Y0090275D01*
X0071374Y0090287D01*
X0071544Y0090295D01*
X0071715Y0090299D01*
X0071885Y0090299D01*
X0072056Y0090295D01*
X0072226Y0090287D01*
X0072396Y0090275D01*
X0072566Y0090258D01*
X0072735Y0090237D01*
X0072903Y0090212D01*
X0073071Y0090184D01*
X0073239Y0090151D01*
X0073405Y0090113D01*
X0073571Y0090072D01*
X0073735Y0090027D01*
X0073898Y0089978D01*
X0074060Y0089925D01*
X0074221Y0089868D01*
X0074380Y0089807D01*
X0074538Y0089742D01*
X0074694Y0089674D01*
X0074848Y0089601D01*
X0075001Y0089525D01*
X0075151Y0089446D01*
X0075300Y0089362D01*
X0075447Y0089275D01*
X0075591Y0089185D01*
X0075733Y0089091D01*
X0075873Y0088993D01*
X0076010Y0088892D01*
X0076145Y0088788D01*
X0076278Y0088681D01*
X0076407Y0088570D01*
X0076534Y0088456D01*
X0076659Y0088339D01*
X0076780Y0088220D01*
X0076898Y0088097D01*
X0077013Y0087971D01*
X0077126Y0087843D01*
X0077235Y0087712D01*
X0077340Y0087578D01*
X0077443Y0087442D01*
X0077542Y0087303D01*
X0077638Y0087162D01*
X0077730Y0087019D01*
X0077819Y0086874D01*
X0077904Y0086726D01*
X0077986Y0086576D01*
X0078064Y0086425D01*
X0078138Y0086271D01*
X0078209Y0086116D01*
X0078275Y0085959D01*
X0078338Y0085801D01*
X0078397Y0085641D01*
X0078452Y0085479D01*
X0078503Y0085317D01*
X0078550Y0085153D01*
X0078593Y0084988D01*
X0078633Y0084822D01*
X0078668Y0084655D01*
X0078699Y0084488D01*
X0078725Y0084319D01*
X0078748Y0084150D01*
X0078767Y0083981D01*
X0078781Y0083811D01*
X0078792Y0083641D01*
X0078798Y0083470D01*
X0078800Y0083300D01*
X0078800Y0060300D01*
X0078798Y0060130D01*
X0078792Y0059959D01*
X0078781Y0059789D01*
X0078767Y0059619D01*
X0078748Y0059450D01*
X0078725Y0059281D01*
X0078699Y0059112D01*
X0078668Y0058945D01*
X0078633Y0058778D01*
X0078593Y0058612D01*
X0078550Y0058447D01*
X0078503Y0058283D01*
X0078452Y0058121D01*
X0078397Y0057959D01*
X0078338Y0057799D01*
X0078275Y0057641D01*
X0078209Y0057484D01*
X0078138Y0057329D01*
X0078064Y0057175D01*
X0077986Y0057024D01*
X0077904Y0056874D01*
X0077819Y0056726D01*
X0077730Y0056581D01*
X0077638Y0056438D01*
X0077542Y0056297D01*
X0077443Y0056158D01*
X0077340Y0056022D01*
X0077235Y0055888D01*
X0077126Y0055757D01*
X0077013Y0055629D01*
X0076898Y0055503D01*
X0076780Y0055380D01*
X0076659Y0055261D01*
X0076534Y0055144D01*
X0076407Y0055030D01*
X0076278Y0054919D01*
X0076145Y0054812D01*
X0076010Y0054708D01*
X0075873Y0054607D01*
X0075733Y0054509D01*
X0075591Y0054415D01*
X0075447Y0054325D01*
X0075300Y0054238D01*
X0075151Y0054154D01*
X0075001Y0054075D01*
X0074848Y0053999D01*
X0074694Y0053926D01*
X0074538Y0053858D01*
X0074380Y0053793D01*
X0074221Y0053732D01*
X0074060Y0053675D01*
X0073898Y0053622D01*
X0073735Y0053573D01*
X0073571Y0053528D01*
X0073405Y0053487D01*
X0073239Y0053449D01*
X0073071Y0053416D01*
X0072903Y0053388D01*
X0072735Y0053363D01*
X0072566Y0053342D01*
X0072396Y0053325D01*
X0072226Y0053313D01*
X0072056Y0053305D01*
X0071885Y0053301D01*
X0071715Y0053301D01*
X0071544Y0053305D01*
X0071374Y0053313D01*
X0071204Y0053325D01*
X0071034Y0053342D01*
X0070865Y0053363D01*
X0070697Y0053388D01*
X0070529Y0053416D01*
X0070361Y0053449D01*
X0070195Y0053487D01*
X0070029Y0053528D01*
X0069865Y0053573D01*
X0069702Y0053622D01*
X0069540Y0053675D01*
X0069379Y0053732D01*
X0069220Y0053793D01*
X0069062Y0053858D01*
X0068906Y0053926D01*
X0068752Y0053999D01*
X0068599Y0054075D01*
X0068449Y0054154D01*
X0068300Y0054238D01*
X0068153Y0054325D01*
X0068009Y0054415D01*
X0067867Y0054509D01*
X0067727Y0054607D01*
X0067590Y0054708D01*
X0067455Y0054812D01*
X0067322Y0054919D01*
X0067193Y0055030D01*
X0067066Y0055144D01*
X0066941Y0055261D01*
X0066820Y0055380D01*
X0066702Y0055503D01*
X0066587Y0055629D01*
X0066474Y0055757D01*
X0066365Y0055888D01*
X0066260Y0056022D01*
X0066157Y0056158D01*
X0066058Y0056297D01*
X0065962Y0056438D01*
X0065870Y0056581D01*
X0065781Y0056726D01*
X0065696Y0056874D01*
X0065614Y0057024D01*
X0065536Y0057175D01*
X0065462Y0057329D01*
X0065391Y0057484D01*
X0065325Y0057641D01*
X0065262Y0057799D01*
X0065203Y0057959D01*
X0065148Y0058121D01*
X0065097Y0058283D01*
X0065050Y0058447D01*
X0065007Y0058612D01*
X0064967Y0058778D01*
X0064932Y0058945D01*
X0064901Y0059112D01*
X0064875Y0059281D01*
X0064852Y0059450D01*
X0064833Y0059619D01*
X0064819Y0059789D01*
X0064808Y0059959D01*
X0064802Y0060130D01*
X0064800Y0060300D01*
X0135300Y0082300D02*
X0138300Y0082300D01*
X0136800Y0080800D02*
X0136800Y0083800D01*
X0131800Y0076800D02*
X0131803Y0077045D01*
X0131812Y0077291D01*
X0131827Y0077536D01*
X0131848Y0077780D01*
X0131875Y0078024D01*
X0131908Y0078267D01*
X0131947Y0078510D01*
X0131992Y0078751D01*
X0132043Y0078991D01*
X0132100Y0079230D01*
X0132162Y0079467D01*
X0132231Y0079703D01*
X0132305Y0079937D01*
X0132385Y0080169D01*
X0132470Y0080399D01*
X0132561Y0080627D01*
X0132658Y0080852D01*
X0132760Y0081076D01*
X0132868Y0081296D01*
X0132981Y0081514D01*
X0133099Y0081729D01*
X0133223Y0081941D01*
X0133351Y0082150D01*
X0133485Y0082356D01*
X0133624Y0082558D01*
X0133768Y0082757D01*
X0133917Y0082952D01*
X0134070Y0083144D01*
X0134228Y0083332D01*
X0134390Y0083516D01*
X0134558Y0083695D01*
X0134729Y0083871D01*
X0134905Y0084042D01*
X0135084Y0084210D01*
X0135268Y0084372D01*
X0135456Y0084530D01*
X0135648Y0084683D01*
X0135843Y0084832D01*
X0136042Y0084976D01*
X0136244Y0085115D01*
X0136450Y0085249D01*
X0136659Y0085377D01*
X0136871Y0085501D01*
X0137086Y0085619D01*
X0137304Y0085732D01*
X0137524Y0085840D01*
X0137748Y0085942D01*
X0137973Y0086039D01*
X0138201Y0086130D01*
X0138431Y0086215D01*
X0138663Y0086295D01*
X0138897Y0086369D01*
X0139133Y0086438D01*
X0139370Y0086500D01*
X0139609Y0086557D01*
X0139849Y0086608D01*
X0140090Y0086653D01*
X0140333Y0086692D01*
X0140576Y0086725D01*
X0140820Y0086752D01*
X0141064Y0086773D01*
X0141309Y0086788D01*
X0141555Y0086797D01*
X0141800Y0086800D01*
X0142045Y0086797D01*
X0142291Y0086788D01*
X0142536Y0086773D01*
X0142780Y0086752D01*
X0143024Y0086725D01*
X0143267Y0086692D01*
X0143510Y0086653D01*
X0143751Y0086608D01*
X0143991Y0086557D01*
X0144230Y0086500D01*
X0144467Y0086438D01*
X0144703Y0086369D01*
X0144937Y0086295D01*
X0145169Y0086215D01*
X0145399Y0086130D01*
X0145627Y0086039D01*
X0145852Y0085942D01*
X0146076Y0085840D01*
X0146296Y0085732D01*
X0146514Y0085619D01*
X0146729Y0085501D01*
X0146941Y0085377D01*
X0147150Y0085249D01*
X0147356Y0085115D01*
X0147558Y0084976D01*
X0147757Y0084832D01*
X0147952Y0084683D01*
X0148144Y0084530D01*
X0148332Y0084372D01*
X0148516Y0084210D01*
X0148695Y0084042D01*
X0148871Y0083871D01*
X0149042Y0083695D01*
X0149210Y0083516D01*
X0149372Y0083332D01*
X0149530Y0083144D01*
X0149683Y0082952D01*
X0149832Y0082757D01*
X0149976Y0082558D01*
X0150115Y0082356D01*
X0150249Y0082150D01*
X0150377Y0081941D01*
X0150501Y0081729D01*
X0150619Y0081514D01*
X0150732Y0081296D01*
X0150840Y0081076D01*
X0150942Y0080852D01*
X0151039Y0080627D01*
X0151130Y0080399D01*
X0151215Y0080169D01*
X0151295Y0079937D01*
X0151369Y0079703D01*
X0151438Y0079467D01*
X0151500Y0079230D01*
X0151557Y0078991D01*
X0151608Y0078751D01*
X0151653Y0078510D01*
X0151692Y0078267D01*
X0151725Y0078024D01*
X0151752Y0077780D01*
X0151773Y0077536D01*
X0151788Y0077291D01*
X0151797Y0077045D01*
X0151800Y0076800D01*
X0151797Y0076555D01*
X0151788Y0076309D01*
X0151773Y0076064D01*
X0151752Y0075820D01*
X0151725Y0075576D01*
X0151692Y0075333D01*
X0151653Y0075090D01*
X0151608Y0074849D01*
X0151557Y0074609D01*
X0151500Y0074370D01*
X0151438Y0074133D01*
X0151369Y0073897D01*
X0151295Y0073663D01*
X0151215Y0073431D01*
X0151130Y0073201D01*
X0151039Y0072973D01*
X0150942Y0072748D01*
X0150840Y0072524D01*
X0150732Y0072304D01*
X0150619Y0072086D01*
X0150501Y0071871D01*
X0150377Y0071659D01*
X0150249Y0071450D01*
X0150115Y0071244D01*
X0149976Y0071042D01*
X0149832Y0070843D01*
X0149683Y0070648D01*
X0149530Y0070456D01*
X0149372Y0070268D01*
X0149210Y0070084D01*
X0149042Y0069905D01*
X0148871Y0069729D01*
X0148695Y0069558D01*
X0148516Y0069390D01*
X0148332Y0069228D01*
X0148144Y0069070D01*
X0147952Y0068917D01*
X0147757Y0068768D01*
X0147558Y0068624D01*
X0147356Y0068485D01*
X0147150Y0068351D01*
X0146941Y0068223D01*
X0146729Y0068099D01*
X0146514Y0067981D01*
X0146296Y0067868D01*
X0146076Y0067760D01*
X0145852Y0067658D01*
X0145627Y0067561D01*
X0145399Y0067470D01*
X0145169Y0067385D01*
X0144937Y0067305D01*
X0144703Y0067231D01*
X0144467Y0067162D01*
X0144230Y0067100D01*
X0143991Y0067043D01*
X0143751Y0066992D01*
X0143510Y0066947D01*
X0143267Y0066908D01*
X0143024Y0066875D01*
X0142780Y0066848D01*
X0142536Y0066827D01*
X0142291Y0066812D01*
X0142045Y0066803D01*
X0141800Y0066800D01*
X0141555Y0066803D01*
X0141309Y0066812D01*
X0141064Y0066827D01*
X0140820Y0066848D01*
X0140576Y0066875D01*
X0140333Y0066908D01*
X0140090Y0066947D01*
X0139849Y0066992D01*
X0139609Y0067043D01*
X0139370Y0067100D01*
X0139133Y0067162D01*
X0138897Y0067231D01*
X0138663Y0067305D01*
X0138431Y0067385D01*
X0138201Y0067470D01*
X0137973Y0067561D01*
X0137748Y0067658D01*
X0137524Y0067760D01*
X0137304Y0067868D01*
X0137086Y0067981D01*
X0136871Y0068099D01*
X0136659Y0068223D01*
X0136450Y0068351D01*
X0136244Y0068485D01*
X0136042Y0068624D01*
X0135843Y0068768D01*
X0135648Y0068917D01*
X0135456Y0069070D01*
X0135268Y0069228D01*
X0135084Y0069390D01*
X0134905Y0069558D01*
X0134729Y0069729D01*
X0134558Y0069905D01*
X0134390Y0070084D01*
X0134228Y0070268D01*
X0134070Y0070456D01*
X0133917Y0070648D01*
X0133768Y0070843D01*
X0133624Y0071042D01*
X0133485Y0071244D01*
X0133351Y0071450D01*
X0133223Y0071659D01*
X0133099Y0071871D01*
X0132981Y0072086D01*
X0132868Y0072304D01*
X0132760Y0072524D01*
X0132658Y0072748D01*
X0132561Y0072973D01*
X0132470Y0073201D01*
X0132385Y0073431D01*
X0132305Y0073663D01*
X0132231Y0073897D01*
X0132162Y0074133D01*
X0132100Y0074370D01*
X0132043Y0074609D01*
X0131992Y0074849D01*
X0131947Y0075090D01*
X0131908Y0075333D01*
X0131875Y0075576D01*
X0131848Y0075820D01*
X0131827Y0076064D01*
X0131812Y0076309D01*
X0131803Y0076555D01*
X0131800Y0076800D01*
D13*
X0051000Y0191800D03*
X0022600Y0191800D03*
D14*
X0016957Y0191957D02*
X0016957Y0182115D01*
X0036643Y0182115D01*
X0036643Y0191957D01*
X0016957Y0191957D01*
X0007115Y0191957D01*
X0007115Y0211643D01*
X0046485Y0211643D01*
X0046485Y0191957D01*
X0036643Y0191957D01*
X0046485Y0181643D02*
X0007115Y0181643D01*
X0007115Y0161957D01*
X0016957Y0161957D01*
X0016957Y0152115D01*
X0036643Y0152115D01*
X0036643Y0161957D01*
X0016957Y0161957D01*
X0036643Y0161957D02*
X0046485Y0161957D01*
X0046485Y0181643D01*
X0050050Y0198050D02*
X0053053Y0198050D01*
X0051551Y0198050D02*
X0051551Y0202554D01*
X0050050Y0201053D01*
X0054654Y0201803D02*
X0054654Y0198801D01*
X0057656Y0201803D01*
X0057656Y0198801D01*
X0056906Y0198050D01*
X0055405Y0198050D01*
X0054654Y0198801D01*
X0054654Y0201803D02*
X0055405Y0202554D01*
X0056906Y0202554D01*
X0057656Y0201803D01*
X0059258Y0202554D02*
X0059258Y0198050D01*
X0059258Y0199551D02*
X0062260Y0202554D01*
X0063178Y0204674D02*
X0110422Y0204674D01*
X0110422Y0188926D01*
X0094674Y0188926D01*
X0094674Y0181052D01*
X0086800Y0181052D01*
X0086800Y0188926D01*
X0063178Y0188926D01*
X0063178Y0204674D01*
X0060008Y0200302D02*
X0062260Y0198050D01*
X0086800Y0188926D02*
X0094674Y0188926D01*
X0117050Y0202550D02*
X0120053Y0202550D01*
X0118551Y0202550D02*
X0118551Y0207054D01*
X0117050Y0205553D01*
X0121654Y0206303D02*
X0121654Y0203301D01*
X0124656Y0206303D01*
X0124656Y0203301D01*
X0123906Y0202550D01*
X0122405Y0202550D01*
X0121654Y0203301D01*
X0121654Y0206303D02*
X0122405Y0207054D01*
X0123906Y0207054D01*
X0124656Y0206303D01*
X0126258Y0205553D02*
X0126258Y0203301D01*
X0127008Y0202550D01*
X0129260Y0202550D01*
X0129260Y0205553D01*
X0130862Y0204802D02*
X0132363Y0204802D01*
X0130862Y0202550D02*
X0130862Y0207054D01*
X0133864Y0207054D01*
X0146348Y0197800D02*
X0147927Y0197800D01*
X0148554Y0203300D02*
X0165046Y0203300D01*
X0165673Y0197800D02*
X0167252Y0197800D01*
X0157927Y0197800D02*
X0155673Y0197800D01*
X0165046Y0203300D02*
X0165199Y0203101D01*
X0165347Y0202899D01*
X0165490Y0202694D01*
X0165628Y0202485D01*
X0165761Y0202273D01*
X0165889Y0202058D01*
X0166011Y0201840D01*
X0166129Y0201619D01*
X0166241Y0201395D01*
X0166348Y0201169D01*
X0166449Y0200940D01*
X0166545Y0200709D01*
X0166636Y0200475D01*
X0166721Y0200240D01*
X0166800Y0200002D01*
X0166873Y0199763D01*
X0166941Y0199522D01*
X0167003Y0199280D01*
X0167059Y0199036D01*
X0167110Y0198790D01*
X0167154Y0198544D01*
X0167193Y0198297D01*
X0167225Y0198049D01*
X0167252Y0197800D01*
X0153704Y0186767D02*
X0153462Y0186845D01*
X0153222Y0186929D01*
X0152984Y0187018D01*
X0152748Y0187114D01*
X0152514Y0187215D01*
X0152283Y0187321D01*
X0152055Y0187434D01*
X0151829Y0187551D01*
X0151606Y0187674D01*
X0151387Y0187803D01*
X0151170Y0187937D01*
X0150957Y0188076D01*
X0150747Y0188220D01*
X0150541Y0188369D01*
X0150339Y0188523D01*
X0150140Y0188682D01*
X0149945Y0188846D01*
X0149754Y0189015D01*
X0149568Y0189188D01*
X0149385Y0189365D01*
X0149207Y0189547D01*
X0149034Y0189733D01*
X0148865Y0189924D01*
X0148701Y0190118D01*
X0148541Y0190316D01*
X0148386Y0190518D01*
X0148237Y0190724D01*
X0148092Y0190933D01*
X0147952Y0191146D01*
X0147818Y0191362D01*
X0147689Y0191582D01*
X0147565Y0191804D01*
X0147446Y0192029D01*
X0147334Y0192257D01*
X0147226Y0192488D01*
X0147125Y0192721D01*
X0147029Y0192957D01*
X0146938Y0193195D01*
X0146854Y0193435D01*
X0146775Y0193677D01*
X0146702Y0193921D01*
X0146636Y0194167D01*
X0146575Y0194414D01*
X0146520Y0194662D01*
X0146471Y0194912D01*
X0146428Y0195163D01*
X0146392Y0195415D01*
X0146361Y0195667D01*
X0146337Y0195921D01*
X0146319Y0196174D01*
X0146307Y0196429D01*
X0146301Y0196683D01*
X0146301Y0196938D01*
X0146307Y0197192D01*
X0146320Y0197446D01*
X0146339Y0197700D01*
X0146364Y0197953D01*
X0146395Y0198206D01*
X0146432Y0198458D01*
X0146475Y0198708D01*
X0146524Y0198958D01*
X0146579Y0199207D01*
X0146641Y0199454D01*
X0146708Y0199699D01*
X0146781Y0199943D01*
X0146860Y0200185D01*
X0146945Y0200424D01*
X0147036Y0200662D01*
X0147133Y0200898D01*
X0147235Y0201131D01*
X0147343Y0201361D01*
X0147456Y0201589D01*
X0147575Y0201814D01*
X0147699Y0202036D01*
X0147828Y0202255D01*
X0147963Y0202471D01*
X0148103Y0202684D01*
X0148249Y0202893D01*
X0148399Y0203098D01*
X0148554Y0203300D01*
X0167252Y0197800D02*
X0167274Y0197545D01*
X0167289Y0197289D01*
X0167297Y0197033D01*
X0167300Y0196776D01*
X0167296Y0196520D01*
X0167286Y0196264D01*
X0167270Y0196008D01*
X0167248Y0195753D01*
X0167219Y0195498D01*
X0167184Y0195244D01*
X0167143Y0194991D01*
X0167096Y0194739D01*
X0167042Y0194489D01*
X0166983Y0194240D01*
X0166917Y0193992D01*
X0166846Y0193746D01*
X0166768Y0193501D01*
X0166685Y0193259D01*
X0166596Y0193019D01*
X0166500Y0192781D01*
X0166399Y0192545D01*
X0166293Y0192312D01*
X0166180Y0192082D01*
X0166062Y0191854D01*
X0165939Y0191630D01*
X0165810Y0191408D01*
X0165676Y0191190D01*
X0165536Y0190975D01*
X0165391Y0190764D01*
X0165241Y0190556D01*
X0165087Y0190352D01*
X0164927Y0190151D01*
X0164762Y0189955D01*
X0164593Y0189763D01*
X0164418Y0189574D01*
X0164240Y0189391D01*
X0164057Y0189211D01*
X0163869Y0189036D01*
X0163678Y0188866D01*
X0163482Y0188701D01*
X0163282Y0188540D01*
X0163079Y0188384D01*
X0162872Y0188234D01*
X0162661Y0188088D01*
X0162446Y0187947D01*
X0162229Y0187812D01*
X0162008Y0187682D01*
X0161784Y0187558D01*
X0161557Y0187439D01*
X0161327Y0187326D01*
X0161094Y0187218D01*
X0160859Y0187116D01*
X0160621Y0187020D01*
X0160382Y0186930D01*
X0160140Y0186845D01*
X0159896Y0186767D01*
X0163050Y0184803D02*
X0163050Y0181801D01*
X0166053Y0184803D01*
X0166053Y0181801D01*
X0165302Y0181050D01*
X0163801Y0181050D01*
X0163050Y0181801D01*
X0163050Y0184803D02*
X0163801Y0185554D01*
X0165302Y0185554D01*
X0166053Y0184803D01*
X0167654Y0181801D02*
X0168405Y0181801D01*
X0168405Y0181050D01*
X0167654Y0181050D01*
X0167654Y0181801D01*
X0169956Y0181050D02*
X0172958Y0181050D01*
X0171457Y0181050D02*
X0171457Y0185554D01*
X0169956Y0184053D01*
X0174560Y0184053D02*
X0174560Y0181801D01*
X0175310Y0181050D01*
X0177562Y0181050D01*
X0177562Y0184053D01*
X0179164Y0183302D02*
X0180665Y0183302D01*
X0179164Y0181050D02*
X0179164Y0185554D01*
X0182166Y0185554D01*
X0189546Y0184610D02*
X0189546Y0183108D01*
X0190297Y0182358D01*
X0193299Y0182358D01*
X0190297Y0185360D01*
X0193299Y0185360D01*
X0194050Y0184610D01*
X0194050Y0183108D01*
X0193299Y0182358D01*
X0193299Y0180756D02*
X0194050Y0180006D01*
X0194050Y0178505D01*
X0193299Y0177754D01*
X0193299Y0176153D02*
X0194050Y0175402D01*
X0194050Y0173901D01*
X0193299Y0173150D01*
X0191798Y0174651D02*
X0191798Y0175402D01*
X0192549Y0176153D01*
X0193299Y0176153D01*
X0191798Y0175402D02*
X0191047Y0176153D01*
X0190297Y0176153D01*
X0189546Y0175402D01*
X0189546Y0173901D01*
X0190297Y0173150D01*
X0190297Y0177754D02*
X0189546Y0178505D01*
X0189546Y0180006D01*
X0190297Y0180756D01*
X0191047Y0180756D01*
X0191798Y0180006D01*
X0192549Y0180756D01*
X0193299Y0180756D01*
X0191798Y0180006D02*
X0191798Y0179255D01*
X0189546Y0184610D02*
X0190297Y0185360D01*
X0189154Y0202799D02*
X0192156Y0202799D01*
X0193758Y0203550D02*
X0196760Y0203550D01*
X0198362Y0203550D02*
X0201364Y0203550D01*
X0202966Y0203550D02*
X0205218Y0203550D01*
X0205968Y0204301D01*
X0205968Y0207303D01*
X0205218Y0208054D01*
X0202966Y0208054D01*
X0202966Y0203550D01*
X0199863Y0205802D02*
X0198362Y0205802D01*
X0198362Y0208054D02*
X0198362Y0203550D01*
X0198362Y0208054D02*
X0201364Y0208054D01*
X0193758Y0208054D02*
X0193758Y0203550D01*
X0187553Y0203550D02*
X0186051Y0205051D01*
X0186802Y0205051D02*
X0184550Y0205051D01*
X0184550Y0203550D02*
X0184550Y0208054D01*
X0186802Y0208054D01*
X0187553Y0207303D01*
X0187553Y0205802D01*
X0186802Y0205051D01*
X0150550Y0176446D02*
X0146046Y0176446D01*
X0146046Y0179449D01*
X0148298Y0177947D02*
X0148298Y0176446D01*
X0147547Y0174845D02*
X0150550Y0174845D01*
X0150550Y0172593D01*
X0149799Y0171842D01*
X0147547Y0171842D01*
X0150550Y0170241D02*
X0150550Y0167238D01*
X0150550Y0168739D02*
X0146046Y0168739D01*
X0147547Y0167238D01*
X0149799Y0165687D02*
X0150550Y0165687D01*
X0150550Y0164936D01*
X0149799Y0164936D01*
X0149799Y0165687D01*
X0149799Y0163335D02*
X0150550Y0162584D01*
X0150550Y0161083D01*
X0149799Y0160332D01*
X0146797Y0163335D01*
X0149799Y0163335D01*
X0149799Y0160332D02*
X0146797Y0160332D01*
X0146046Y0161083D01*
X0146046Y0162584D01*
X0146797Y0163335D01*
X0134050Y0163150D02*
X0134050Y0166153D01*
X0134050Y0164651D02*
X0129546Y0164651D01*
X0131047Y0163150D01*
X0130297Y0167754D02*
X0129546Y0168505D01*
X0129546Y0170006D01*
X0130297Y0170756D01*
X0133299Y0167754D01*
X0134050Y0168505D01*
X0134050Y0170006D01*
X0133299Y0170756D01*
X0130297Y0170756D01*
X0129546Y0172358D02*
X0134050Y0172358D01*
X0132549Y0172358D02*
X0129546Y0175360D01*
X0131798Y0173108D02*
X0134050Y0175360D01*
X0133299Y0167754D02*
X0130297Y0167754D01*
X0123547Y0187868D02*
X0123547Y0190136D01*
X0123547Y0189002D02*
X0126950Y0189002D01*
X0126950Y0192593D02*
X0123547Y0192593D01*
X0123547Y0191459D02*
X0123547Y0193728D01*
X0168050Y0159803D02*
X0168050Y0156801D01*
X0171053Y0159803D01*
X0171053Y0156801D01*
X0170302Y0156050D01*
X0168801Y0156050D01*
X0168050Y0156801D01*
X0168050Y0159803D02*
X0168801Y0160554D01*
X0170302Y0160554D01*
X0171053Y0159803D01*
X0172654Y0156801D02*
X0173405Y0156801D01*
X0173405Y0156050D01*
X0172654Y0156050D01*
X0172654Y0156801D01*
X0174956Y0156050D02*
X0177958Y0156050D01*
X0176457Y0156050D02*
X0176457Y0160554D01*
X0174956Y0159053D01*
X0179560Y0159053D02*
X0179560Y0156801D01*
X0180310Y0156050D01*
X0182562Y0156050D01*
X0182562Y0159053D01*
X0184164Y0158302D02*
X0185665Y0158302D01*
X0184164Y0156050D02*
X0184164Y0160554D01*
X0187166Y0160554D01*
X0109050Y0123949D02*
X0109050Y0120946D01*
X0106047Y0123949D01*
X0105297Y0123949D01*
X0104546Y0123198D01*
X0104546Y0121697D01*
X0105297Y0120946D01*
X0105297Y0119345D02*
X0104546Y0118594D01*
X0104546Y0117093D01*
X0105297Y0116342D01*
X0105297Y0114741D02*
X0104546Y0113990D01*
X0104546Y0112489D01*
X0105297Y0111738D01*
X0108299Y0111738D01*
X0109050Y0112489D01*
X0109050Y0113990D01*
X0108299Y0114741D01*
X0108299Y0116342D02*
X0109050Y0117093D01*
X0109050Y0118594D01*
X0108299Y0119345D01*
X0107549Y0119345D01*
X0106798Y0118594D01*
X0106798Y0117843D01*
X0106798Y0118594D02*
X0106047Y0119345D01*
X0105297Y0119345D01*
X0104546Y0110170D02*
X0104546Y0108669D01*
X0104546Y0109420D02*
X0109050Y0109420D01*
X0109050Y0110170D02*
X0109050Y0108669D01*
X0106798Y0107068D02*
X0107549Y0106317D01*
X0107549Y0104065D01*
X0109050Y0104065D02*
X0104546Y0104065D01*
X0104546Y0106317D01*
X0105297Y0107068D01*
X0106798Y0107068D01*
X0139050Y0071953D02*
X0141319Y0071953D01*
X0140184Y0071953D02*
X0140184Y0068550D01*
X0142641Y0071953D02*
X0144910Y0071953D01*
X0143775Y0071953D02*
X0143775Y0068550D01*
X0152050Y0067550D02*
X0155053Y0067550D01*
X0153551Y0067550D02*
X0153551Y0072054D01*
X0152050Y0070553D01*
X0156654Y0071303D02*
X0156654Y0068301D01*
X0159656Y0071303D01*
X0159656Y0068301D01*
X0158906Y0067550D01*
X0157405Y0067550D01*
X0156654Y0068301D01*
X0156654Y0071303D02*
X0157405Y0072054D01*
X0158906Y0072054D01*
X0159656Y0071303D01*
X0161258Y0070553D02*
X0161258Y0068301D01*
X0162008Y0067550D01*
X0164260Y0067550D01*
X0164260Y0070553D01*
X0165862Y0069802D02*
X0167363Y0069802D01*
X0165862Y0067550D02*
X0165862Y0072054D01*
X0168864Y0072054D01*
X0060550Y0036446D02*
X0056046Y0036446D01*
X0056046Y0039449D01*
X0058298Y0037947D02*
X0058298Y0036446D01*
X0057547Y0034845D02*
X0060550Y0034845D01*
X0060550Y0032593D01*
X0059799Y0031842D01*
X0057547Y0031842D01*
X0056046Y0028739D02*
X0060550Y0028739D01*
X0060550Y0027238D02*
X0060550Y0030241D01*
X0057547Y0027238D02*
X0056046Y0028739D01*
X0059799Y0025687D02*
X0060550Y0025687D01*
X0060550Y0024936D01*
X0059799Y0024936D01*
X0059799Y0025687D01*
X0059799Y0023335D02*
X0056797Y0023335D01*
X0059799Y0020332D01*
X0060550Y0021083D01*
X0060550Y0022584D01*
X0059799Y0023335D01*
X0056797Y0023335D02*
X0056046Y0022584D01*
X0056046Y0021083D01*
X0056797Y0020332D01*
X0059799Y0020332D01*
X0035550Y0030801D02*
X0034799Y0030050D01*
X0035550Y0030801D02*
X0035550Y0032302D01*
X0034799Y0033053D01*
X0034049Y0033053D01*
X0033298Y0032302D01*
X0033298Y0031551D01*
X0033298Y0032302D02*
X0032547Y0033053D01*
X0031797Y0033053D01*
X0031046Y0032302D01*
X0031046Y0030801D01*
X0031797Y0030050D01*
X0031797Y0034654D02*
X0031046Y0035405D01*
X0031046Y0036906D01*
X0031797Y0037656D01*
X0032547Y0037656D01*
X0033298Y0036906D01*
X0034049Y0037656D01*
X0034799Y0037656D01*
X0035550Y0036906D01*
X0035550Y0035405D01*
X0034799Y0034654D01*
X0033298Y0036155D02*
X0033298Y0036906D01*
X0031797Y0039258D02*
X0031046Y0040008D01*
X0031046Y0041510D01*
X0031797Y0042260D01*
X0034799Y0039258D01*
X0035550Y0040008D01*
X0035550Y0041510D01*
X0034799Y0042260D01*
X0031797Y0042260D01*
X0031797Y0039258D02*
X0034799Y0039258D01*
X0015801Y0037156D02*
X0015801Y0034154D01*
X0014299Y0032553D02*
X0015050Y0031802D01*
X0015050Y0030301D01*
X0014299Y0029550D01*
X0011297Y0029550D01*
X0010546Y0030301D01*
X0010546Y0031802D01*
X0011297Y0032553D01*
X0012798Y0032553D02*
X0012798Y0031051D01*
X0012798Y0032553D02*
X0014299Y0032553D01*
X0015050Y0038758D02*
X0010546Y0038758D01*
X0010546Y0043362D02*
X0015050Y0043362D01*
X0015050Y0046364D01*
X0015050Y0047966D02*
X0015050Y0050218D01*
X0014299Y0050968D01*
X0011297Y0050968D01*
X0010546Y0050218D01*
X0010546Y0047966D01*
X0015050Y0047966D01*
X0012798Y0044863D02*
X0012798Y0043362D01*
X0010546Y0043362D02*
X0010546Y0046364D01*
X0015050Y0041760D02*
X0015050Y0038758D01*
D15*
X0041800Y0027600D03*
X0041800Y0056000D03*
X0141800Y0147600D03*
X0141800Y0176000D03*
X0196800Y0162600D03*
X0196800Y0191000D03*
D16*
X0177800Y0184800D02*
X0177800Y0181800D01*
X0177800Y0178800D01*
X0175800Y0178800D02*
X0175800Y0181800D01*
X0175800Y0184800D01*
X0176800Y0188800D02*
X0176605Y0188802D01*
X0176409Y0188810D01*
X0176214Y0188822D01*
X0176019Y0188838D01*
X0175824Y0188860D01*
X0175630Y0188886D01*
X0175437Y0188917D01*
X0175245Y0188953D01*
X0175053Y0188993D01*
X0174863Y0189038D01*
X0174674Y0189088D01*
X0174486Y0189142D01*
X0174299Y0189201D01*
X0174114Y0189264D01*
X0173931Y0189332D01*
X0173749Y0189405D01*
X0173569Y0189481D01*
X0173391Y0189563D01*
X0173215Y0189648D01*
X0173041Y0189738D01*
X0172870Y0189832D01*
X0172700Y0189930D01*
X0172534Y0190033D01*
X0172369Y0190139D01*
X0172208Y0190249D01*
X0172049Y0190363D01*
X0171893Y0190482D01*
X0171740Y0190603D01*
X0171590Y0190729D01*
X0171443Y0190858D01*
X0171299Y0190991D01*
X0171159Y0191127D01*
X0171022Y0191267D01*
X0170888Y0191410D01*
X0170758Y0191556D01*
X0170632Y0191705D01*
X0170509Y0191858D01*
X0170390Y0192013D01*
X0170275Y0192171D01*
X0170164Y0192332D01*
X0170057Y0192496D01*
X0169953Y0192662D01*
X0169854Y0192831D01*
X0176800Y0204800D02*
X0176995Y0204798D01*
X0177189Y0204791D01*
X0177383Y0204779D01*
X0177577Y0204762D01*
X0177771Y0204741D01*
X0177964Y0204715D01*
X0178156Y0204684D01*
X0178348Y0204649D01*
X0178538Y0204609D01*
X0178728Y0204564D01*
X0178916Y0204515D01*
X0179103Y0204461D01*
X0179289Y0204403D01*
X0179473Y0204340D01*
X0179656Y0204273D01*
X0179837Y0204201D01*
X0180016Y0204125D01*
X0180193Y0204045D01*
X0180368Y0203960D01*
X0180542Y0203871D01*
X0180712Y0203778D01*
X0180881Y0203681D01*
X0181047Y0203579D01*
X0181211Y0203474D01*
X0181372Y0203365D01*
X0181531Y0203252D01*
X0181686Y0203135D01*
X0181839Y0203014D01*
X0181988Y0202889D01*
X0182135Y0202761D01*
X0182279Y0202630D01*
X0182419Y0202495D01*
X0182556Y0202356D01*
X0182689Y0202215D01*
X0182819Y0202070D01*
X0182946Y0201922D01*
X0176800Y0204800D02*
X0176608Y0204798D01*
X0176416Y0204791D01*
X0176224Y0204779D01*
X0176032Y0204763D01*
X0175841Y0204742D01*
X0175651Y0204717D01*
X0175461Y0204687D01*
X0175272Y0204653D01*
X0175084Y0204614D01*
X0174897Y0204570D01*
X0174711Y0204522D01*
X0174526Y0204470D01*
X0174342Y0204413D01*
X0174160Y0204352D01*
X0173980Y0204286D01*
X0173801Y0204216D01*
X0173623Y0204142D01*
X0173448Y0204064D01*
X0173274Y0203981D01*
X0173103Y0203894D01*
X0172934Y0203804D01*
X0172767Y0203709D01*
X0172602Y0203610D01*
X0172439Y0203507D01*
X0172280Y0203400D01*
X0172122Y0203290D01*
X0171968Y0203176D01*
X0171816Y0203058D01*
X0171667Y0202936D01*
X0171521Y0202811D01*
X0171379Y0202683D01*
X0171239Y0202551D01*
X0171102Y0202416D01*
X0170969Y0202277D01*
X0170839Y0202136D01*
X0170713Y0201991D01*
X0170590Y0201843D01*
X0170471Y0201693D01*
X0170355Y0201539D01*
X0170243Y0201383D01*
X0170135Y0201224D01*
X0170030Y0201063D01*
X0169930Y0200899D01*
X0169834Y0200733D01*
X0169741Y0200565D01*
X0176800Y0188800D02*
X0176993Y0188802D01*
X0177186Y0188809D01*
X0177378Y0188821D01*
X0177571Y0188837D01*
X0177763Y0188858D01*
X0177954Y0188884D01*
X0178144Y0188914D01*
X0178334Y0188949D01*
X0178523Y0188988D01*
X0178711Y0189032D01*
X0178898Y0189080D01*
X0179084Y0189133D01*
X0179268Y0189190D01*
X0179451Y0189252D01*
X0179632Y0189318D01*
X0179812Y0189389D01*
X0179990Y0189463D01*
X0180166Y0189542D01*
X0180340Y0189626D01*
X0180512Y0189713D01*
X0180682Y0189805D01*
X0180849Y0189901D01*
X0181015Y0190000D01*
X0181178Y0190104D01*
X0181338Y0190211D01*
X0181495Y0190323D01*
X0181650Y0190438D01*
X0181802Y0190557D01*
X0181951Y0190679D01*
X0182098Y0190805D01*
X0182241Y0190935D01*
X0182381Y0191068D01*
X0182517Y0191204D01*
X0182651Y0191344D01*
X0182780Y0191486D01*
X0182907Y0191632D01*
X0177800Y0169800D02*
X0177800Y0166800D01*
X0177800Y0163800D01*
X0175800Y0163800D02*
X0175800Y0166800D01*
X0175800Y0169800D01*
X0159800Y0170800D02*
X0156800Y0170800D01*
X0153800Y0170800D01*
X0153800Y0172800D02*
X0156800Y0172800D01*
X0159800Y0172800D01*
X0021800Y0069800D02*
X0021608Y0069798D01*
X0021416Y0069791D01*
X0021224Y0069779D01*
X0021032Y0069763D01*
X0020841Y0069742D01*
X0020651Y0069717D01*
X0020461Y0069687D01*
X0020272Y0069653D01*
X0020084Y0069614D01*
X0019897Y0069570D01*
X0019711Y0069522D01*
X0019526Y0069470D01*
X0019342Y0069413D01*
X0019160Y0069352D01*
X0018980Y0069286D01*
X0018801Y0069216D01*
X0018623Y0069142D01*
X0018448Y0069064D01*
X0018274Y0068981D01*
X0018103Y0068894D01*
X0017934Y0068804D01*
X0017767Y0068709D01*
X0017602Y0068610D01*
X0017439Y0068507D01*
X0017280Y0068400D01*
X0017122Y0068290D01*
X0016968Y0068176D01*
X0016816Y0068058D01*
X0016667Y0067936D01*
X0016521Y0067811D01*
X0016379Y0067683D01*
X0016239Y0067551D01*
X0016102Y0067416D01*
X0015969Y0067277D01*
X0015839Y0067136D01*
X0015713Y0066991D01*
X0015590Y0066843D01*
X0015471Y0066693D01*
X0015355Y0066539D01*
X0015243Y0066383D01*
X0015135Y0066224D01*
X0015030Y0066063D01*
X0014930Y0065899D01*
X0014834Y0065733D01*
X0014741Y0065565D01*
X0014854Y0057831D02*
X0014953Y0057662D01*
X0015057Y0057496D01*
X0015164Y0057332D01*
X0015275Y0057171D01*
X0015390Y0057013D01*
X0015509Y0056858D01*
X0015632Y0056705D01*
X0015758Y0056556D01*
X0015888Y0056410D01*
X0016022Y0056267D01*
X0016159Y0056127D01*
X0016299Y0055991D01*
X0016443Y0055858D01*
X0016590Y0055729D01*
X0016740Y0055603D01*
X0016893Y0055482D01*
X0017049Y0055363D01*
X0017208Y0055249D01*
X0017369Y0055139D01*
X0017534Y0055033D01*
X0017700Y0054930D01*
X0017870Y0054832D01*
X0018041Y0054738D01*
X0018215Y0054648D01*
X0018391Y0054563D01*
X0018569Y0054481D01*
X0018749Y0054405D01*
X0018931Y0054332D01*
X0019114Y0054264D01*
X0019299Y0054201D01*
X0019486Y0054142D01*
X0019674Y0054088D01*
X0019863Y0054038D01*
X0020053Y0053993D01*
X0020245Y0053953D01*
X0020437Y0053917D01*
X0020630Y0053886D01*
X0020824Y0053860D01*
X0021019Y0053838D01*
X0021214Y0053822D01*
X0021409Y0053810D01*
X0021605Y0053802D01*
X0021800Y0053800D01*
X0021993Y0053802D01*
X0022186Y0053809D01*
X0022378Y0053821D01*
X0022571Y0053837D01*
X0022763Y0053858D01*
X0022954Y0053884D01*
X0023144Y0053914D01*
X0023334Y0053949D01*
X0023523Y0053988D01*
X0023711Y0054032D01*
X0023898Y0054080D01*
X0024084Y0054133D01*
X0024268Y0054190D01*
X0024451Y0054252D01*
X0024632Y0054318D01*
X0024812Y0054389D01*
X0024990Y0054463D01*
X0025166Y0054542D01*
X0025340Y0054626D01*
X0025512Y0054713D01*
X0025682Y0054805D01*
X0025849Y0054901D01*
X0026015Y0055000D01*
X0026178Y0055104D01*
X0026338Y0055211D01*
X0026495Y0055323D01*
X0026650Y0055438D01*
X0026802Y0055557D01*
X0026951Y0055679D01*
X0027098Y0055805D01*
X0027241Y0055935D01*
X0027381Y0056068D01*
X0027517Y0056204D01*
X0027651Y0056344D01*
X0027780Y0056486D01*
X0027907Y0056632D01*
X0027946Y0066922D02*
X0027819Y0067070D01*
X0027689Y0067215D01*
X0027556Y0067356D01*
X0027419Y0067495D01*
X0027279Y0067630D01*
X0027135Y0067761D01*
X0026988Y0067889D01*
X0026839Y0068014D01*
X0026686Y0068135D01*
X0026531Y0068252D01*
X0026372Y0068365D01*
X0026211Y0068474D01*
X0026047Y0068579D01*
X0025881Y0068681D01*
X0025712Y0068778D01*
X0025542Y0068871D01*
X0025368Y0068960D01*
X0025193Y0069045D01*
X0025016Y0069125D01*
X0024837Y0069201D01*
X0024656Y0069273D01*
X0024473Y0069340D01*
X0024289Y0069403D01*
X0024103Y0069461D01*
X0023916Y0069515D01*
X0023728Y0069564D01*
X0023538Y0069609D01*
X0023348Y0069649D01*
X0023156Y0069684D01*
X0022964Y0069715D01*
X0022771Y0069741D01*
X0022577Y0069762D01*
X0022383Y0069779D01*
X0022189Y0069791D01*
X0021995Y0069798D01*
X0021800Y0069800D01*
X0063800Y0032800D02*
X0066800Y0032800D01*
X0069800Y0032800D01*
X0069800Y0030800D02*
X0066800Y0030800D01*
X0063800Y0030800D01*
D17*
X0016800Y0074300D02*
X0014300Y0071800D01*
X0009300Y0071800D01*
X0006800Y0074300D01*
X0006800Y0079300D01*
X0009300Y0081800D01*
X0006800Y0084300D01*
X0006800Y0089300D01*
X0009300Y0091800D01*
X0006800Y0094300D01*
X0006800Y0099300D01*
X0009300Y0101800D01*
X0006800Y0104300D01*
X0006800Y0109300D01*
X0009300Y0111800D01*
X0006800Y0114300D01*
X0006800Y0119300D01*
X0009300Y0121800D01*
X0006800Y0124300D01*
X0006800Y0129300D01*
X0009300Y0131800D01*
X0006800Y0134300D01*
X0006800Y0139300D01*
X0009300Y0141800D01*
X0006800Y0144300D01*
X0006800Y0149300D01*
X0009300Y0151800D01*
X0014300Y0151800D01*
X0016800Y0149300D01*
X0016800Y0144300D01*
X0014300Y0141800D01*
X0016800Y0139300D01*
X0016800Y0134300D01*
X0014300Y0131800D01*
X0016800Y0129300D01*
X0016800Y0124300D01*
X0014300Y0121800D01*
X0016800Y0119300D01*
X0016800Y0114300D01*
X0014300Y0111800D01*
X0016800Y0109300D01*
X0016800Y0104300D01*
X0014300Y0101800D01*
X0016800Y0099300D01*
X0016800Y0094300D01*
X0014300Y0091800D01*
X0016800Y0089300D01*
X0016800Y0084300D01*
X0014300Y0081800D01*
X0016800Y0079300D01*
X0016800Y0074300D01*
X0194300Y0074300D02*
X0194300Y0079300D01*
X0196800Y0081800D01*
X0194300Y0084300D01*
X0194300Y0089300D01*
X0196800Y0091800D01*
X0194300Y0094300D01*
X0194300Y0099300D01*
X0196800Y0101800D01*
X0194300Y0104300D01*
X0194300Y0109300D01*
X0196800Y0111800D01*
X0194300Y0114300D01*
X0194300Y0119300D01*
X0196800Y0121800D01*
X0194300Y0124300D01*
X0194300Y0129300D01*
X0196800Y0131800D01*
X0194300Y0134300D01*
X0194300Y0139300D01*
X0196800Y0141800D01*
X0194300Y0144300D01*
X0194300Y0149300D01*
X0196800Y0151800D01*
X0201800Y0151800D01*
X0204300Y0149300D01*
X0204300Y0144300D01*
X0201800Y0141800D01*
X0204300Y0139300D01*
X0204300Y0134300D01*
X0201800Y0131800D01*
X0204300Y0129300D01*
X0204300Y0124300D01*
X0201800Y0121800D01*
X0204300Y0119300D01*
X0204300Y0114300D01*
X0201800Y0111800D01*
X0204300Y0109300D01*
X0204300Y0104300D01*
X0201800Y0101800D01*
X0204300Y0099300D01*
X0204300Y0094300D01*
X0201800Y0091800D01*
X0204300Y0089300D01*
X0204300Y0084300D01*
X0201800Y0081800D01*
X0204300Y0079300D01*
X0204300Y0074300D01*
X0201800Y0071800D01*
X0196800Y0071800D01*
X0194300Y0074300D01*
D18*
X0080800Y0083300D02*
X0080800Y0060300D01*
X0080797Y0060081D01*
X0080789Y0059862D01*
X0080776Y0059643D01*
X0080757Y0059425D01*
X0080733Y0059207D01*
X0080704Y0058990D01*
X0080670Y0058773D01*
X0080630Y0058558D01*
X0080585Y0058343D01*
X0080534Y0058130D01*
X0080479Y0057918D01*
X0080418Y0057707D01*
X0080353Y0057498D01*
X0080282Y0057291D01*
X0080206Y0057085D01*
X0080125Y0056881D01*
X0080040Y0056679D01*
X0079949Y0056480D01*
X0079854Y0056283D01*
X0079753Y0056088D01*
X0079648Y0055895D01*
X0079539Y0055705D01*
X0079425Y0055518D01*
X0079306Y0055334D01*
X0079183Y0055153D01*
X0079055Y0054975D01*
X0078923Y0054799D01*
X0078787Y0054628D01*
X0078647Y0054459D01*
X0078503Y0054294D01*
X0078355Y0054133D01*
X0078203Y0053975D01*
X0078047Y0053821D01*
X0077887Y0053671D01*
X0077724Y0053524D01*
X0077557Y0053382D01*
X0077387Y0053244D01*
X0077213Y0053110D01*
X0077037Y0052980D01*
X0076857Y0052855D01*
X0076674Y0052734D01*
X0076488Y0052618D01*
X0076300Y0052506D01*
X0076109Y0052399D01*
X0075915Y0052296D01*
X0075719Y0052198D01*
X0075521Y0052105D01*
X0075320Y0052017D01*
X0075117Y0051934D01*
X0074912Y0051855D01*
X0074706Y0051782D01*
X0074498Y0051714D01*
X0074288Y0051651D01*
X0074076Y0051593D01*
X0073864Y0051540D01*
X0073650Y0051492D01*
X0073435Y0051450D01*
X0073219Y0051413D01*
X0073002Y0051381D01*
X0072784Y0051354D01*
X0072566Y0051333D01*
X0072348Y0051317D01*
X0072129Y0051306D01*
X0071910Y0051301D01*
X0071690Y0051301D01*
X0071471Y0051306D01*
X0071252Y0051317D01*
X0071034Y0051333D01*
X0070816Y0051354D01*
X0070598Y0051381D01*
X0070381Y0051413D01*
X0070165Y0051450D01*
X0069950Y0051492D01*
X0069736Y0051540D01*
X0069524Y0051593D01*
X0069312Y0051651D01*
X0069102Y0051714D01*
X0068894Y0051782D01*
X0068688Y0051855D01*
X0068483Y0051934D01*
X0068280Y0052017D01*
X0068079Y0052105D01*
X0067881Y0052198D01*
X0067685Y0052296D01*
X0067491Y0052399D01*
X0067300Y0052506D01*
X0067112Y0052618D01*
X0066926Y0052734D01*
X0066743Y0052855D01*
X0066563Y0052980D01*
X0066387Y0053110D01*
X0066213Y0053244D01*
X0066043Y0053382D01*
X0065876Y0053524D01*
X0065713Y0053671D01*
X0065553Y0053821D01*
X0065397Y0053975D01*
X0065245Y0054133D01*
X0065097Y0054294D01*
X0064953Y0054459D01*
X0064813Y0054628D01*
X0064677Y0054799D01*
X0064545Y0054975D01*
X0064417Y0055153D01*
X0064294Y0055334D01*
X0064175Y0055518D01*
X0064061Y0055705D01*
X0063952Y0055895D01*
X0063847Y0056088D01*
X0063746Y0056283D01*
X0063651Y0056480D01*
X0063560Y0056679D01*
X0063475Y0056881D01*
X0063394Y0057085D01*
X0063318Y0057291D01*
X0063247Y0057498D01*
X0063182Y0057707D01*
X0063121Y0057918D01*
X0063066Y0058130D01*
X0063015Y0058343D01*
X0062970Y0058558D01*
X0062930Y0058773D01*
X0062896Y0058990D01*
X0062867Y0059207D01*
X0062843Y0059425D01*
X0062824Y0059643D01*
X0062811Y0059862D01*
X0062803Y0060081D01*
X0062800Y0060300D01*
X0062800Y0083300D01*
X0062803Y0083519D01*
X0062811Y0083738D01*
X0062824Y0083957D01*
X0062843Y0084175D01*
X0062867Y0084393D01*
X0062896Y0084610D01*
X0062930Y0084827D01*
X0062970Y0085042D01*
X0063015Y0085257D01*
X0063066Y0085470D01*
X0063121Y0085682D01*
X0063182Y0085893D01*
X0063247Y0086102D01*
X0063318Y0086309D01*
X0063394Y0086515D01*
X0063475Y0086719D01*
X0063560Y0086921D01*
X0063651Y0087120D01*
X0063746Y0087317D01*
X0063847Y0087512D01*
X0063952Y0087705D01*
X0064061Y0087895D01*
X0064175Y0088082D01*
X0064294Y0088266D01*
X0064417Y0088447D01*
X0064545Y0088625D01*
X0064677Y0088801D01*
X0064813Y0088972D01*
X0064953Y0089141D01*
X0065097Y0089306D01*
X0065245Y0089467D01*
X0065397Y0089625D01*
X0065553Y0089779D01*
X0065713Y0089929D01*
X0065876Y0090076D01*
X0066043Y0090218D01*
X0066213Y0090356D01*
X0066387Y0090490D01*
X0066563Y0090620D01*
X0066743Y0090745D01*
X0066926Y0090866D01*
X0067112Y0090982D01*
X0067300Y0091094D01*
X0067491Y0091201D01*
X0067685Y0091304D01*
X0067881Y0091402D01*
X0068079Y0091495D01*
X0068280Y0091583D01*
X0068483Y0091666D01*
X0068688Y0091745D01*
X0068894Y0091818D01*
X0069102Y0091886D01*
X0069312Y0091949D01*
X0069524Y0092007D01*
X0069736Y0092060D01*
X0069950Y0092108D01*
X0070165Y0092150D01*
X0070381Y0092187D01*
X0070598Y0092219D01*
X0070816Y0092246D01*
X0071034Y0092267D01*
X0071252Y0092283D01*
X0071471Y0092294D01*
X0071690Y0092299D01*
X0071910Y0092299D01*
X0072129Y0092294D01*
X0072348Y0092283D01*
X0072566Y0092267D01*
X0072784Y0092246D01*
X0073002Y0092219D01*
X0073219Y0092187D01*
X0073435Y0092150D01*
X0073650Y0092108D01*
X0073864Y0092060D01*
X0074076Y0092007D01*
X0074288Y0091949D01*
X0074498Y0091886D01*
X0074706Y0091818D01*
X0074912Y0091745D01*
X0075117Y0091666D01*
X0075320Y0091583D01*
X0075521Y0091495D01*
X0075719Y0091402D01*
X0075915Y0091304D01*
X0076109Y0091201D01*
X0076300Y0091094D01*
X0076488Y0090982D01*
X0076674Y0090866D01*
X0076857Y0090745D01*
X0077037Y0090620D01*
X0077213Y0090490D01*
X0077387Y0090356D01*
X0077557Y0090218D01*
X0077724Y0090076D01*
X0077887Y0089929D01*
X0078047Y0089779D01*
X0078203Y0089625D01*
X0078355Y0089467D01*
X0078503Y0089306D01*
X0078647Y0089141D01*
X0078787Y0088972D01*
X0078923Y0088801D01*
X0079055Y0088625D01*
X0079183Y0088447D01*
X0079306Y0088266D01*
X0079425Y0088082D01*
X0079539Y0087895D01*
X0079648Y0087705D01*
X0079753Y0087512D01*
X0079854Y0087317D01*
X0079949Y0087120D01*
X0080040Y0086921D01*
X0080125Y0086719D01*
X0080206Y0086515D01*
X0080282Y0086309D01*
X0080353Y0086102D01*
X0080418Y0085893D01*
X0080479Y0085682D01*
X0080534Y0085470D01*
X0080585Y0085257D01*
X0080630Y0085042D01*
X0080670Y0084827D01*
X0080704Y0084610D01*
X0080733Y0084393D01*
X0080757Y0084175D01*
X0080776Y0083957D01*
X0080789Y0083738D01*
X0080797Y0083519D01*
X0080800Y0083300D01*
M02*
