%
M48
M72
T01C0.02362
T02C0.02756
T03C0.03150
T04C0.03200
T05C0.03937
T06C0.04000
T07C0.07480
%
T01
X21800Y46800
X26800Y151800
X51800Y186800
X86800Y166800
X106800Y166800
X146800Y151800
X146800Y111800
X146800Y31800
T02
X71800Y62300
X71800Y71906
X71800Y81300
T03
X180501Y36879
X183650Y32154
X186800Y36879
X189950Y32154
X193099Y36879
X94674Y196800
X86800Y196800
X78926Y196800
T04
X16800Y191800
X56800Y191800
X91800Y156800
X91800Y146800
X91800Y136800
X91800Y126800
X91800Y116800
X91800Y106800
X91800Y96800
X91800Y86800
X91800Y76800
X91800Y66800
X91800Y56800
X91800Y46800
X91800Y36800
X91800Y26800
X66800Y26800
X66800Y36800
X41800Y21800
X41800Y61800
X26800Y61800
X16800Y61800
X121800Y56800
X121800Y46800
X121800Y36800
X121800Y26800
X121800Y66800
X121800Y76800
X121800Y86800
X121800Y96800
X121800Y106800
X121800Y116800
X121800Y126800
X121800Y136800
X121800Y146800
X121800Y156800
X141800Y141800
X156800Y166800
X156800Y176800
X156800Y189300
X151800Y196800
X161800Y196800
X171800Y196800
X181800Y196800
X181800Y181800
X171800Y181800
X171800Y166800
X181800Y166800
X196800Y156800
X196800Y196800
X141800Y181800
X131800Y186800
X131800Y196800
X136800Y76800
X146800Y76800
T05
X16957Y171800
X36643Y171800
X36643Y201800
X16957Y201800
X71052Y196800
X102548Y196800
T06
X66800Y176800
X76800Y176800
X86800Y176800
X96800Y176800
X106800Y176800
X199300Y146800
X199300Y136800
X199300Y126800
X199300Y116800
X199300Y106800
X199300Y96800
X199300Y86800
X199300Y76800
X11800Y76800
X11800Y86800
X11800Y96800
X11800Y106800
X11800Y116800
X11800Y126800
X11800Y136800
X11800Y146800
T07
X172430Y16800
X201170Y16800
M30
