G75*
%MOIN*%
%OFA0B0*%
%FSLAX25Y25*%
%IPPOS*%
%LPD*%
%AMOC8*
5,1,8,0,0,1.08239X$1,22.5*
%
%ADD10C,0.00000*%
%ADD11OC8,0.05600*%
%ADD12C,0.05600*%
%ADD13C,0.07800*%
%ADD14C,0.05600*%
%ADD15C,0.05550*%
%ADD16C,0.11620*%
%ADD17C,0.07000*%
%ADD18C,0.05156*%
D10*
X0006800Y0011800D02*
X0006800Y0208650D01*
X0203650Y0208650D01*
X0203650Y0011800D01*
X0006800Y0011800D01*
D11*
X0041800Y0021800D03*
X0066800Y0026800D03*
X0066800Y0036800D03*
X0041800Y0061800D03*
X0026800Y0061800D03*
X0016800Y0061800D03*
X0141800Y0141800D03*
X0156800Y0166800D03*
X0156800Y0176800D03*
X0156800Y0189300D03*
X0151800Y0196800D03*
X0161800Y0196800D03*
X0171800Y0196800D03*
X0181800Y0196800D03*
X0181800Y0181800D03*
X0171800Y0181800D03*
X0171800Y0166800D03*
X0181800Y0166800D03*
X0196800Y0156800D03*
X0196800Y0196800D03*
X0141800Y0181800D03*
X0131800Y0186800D03*
X0056800Y0191800D03*
X0016800Y0191800D03*
X0146800Y0076800D03*
D12*
X0136800Y0076800D03*
X0131800Y0196800D03*
D13*
X0106800Y0176800D03*
X0096800Y0176800D03*
X0086800Y0176800D03*
X0076800Y0176800D03*
X0066800Y0176800D03*
X0011800Y0146800D03*
X0011800Y0136800D03*
X0011800Y0126800D03*
X0011800Y0116800D03*
X0011800Y0106800D03*
X0011800Y0096800D03*
X0011800Y0086800D03*
X0011800Y0076800D03*
X0199300Y0076800D03*
X0199300Y0086800D03*
X0199300Y0096800D03*
X0199300Y0106800D03*
X0199300Y0116800D03*
X0199300Y0126800D03*
X0199300Y0136800D03*
X0199300Y0146800D03*
D14*
X0124400Y0146800D02*
X0119200Y0146800D01*
X0119200Y0136800D02*
X0124400Y0136800D01*
X0124400Y0126800D02*
X0119200Y0126800D01*
X0119200Y0116800D02*
X0124400Y0116800D01*
X0124400Y0106800D02*
X0119200Y0106800D01*
X0119200Y0096800D02*
X0124400Y0096800D01*
X0124400Y0086800D02*
X0119200Y0086800D01*
X0119200Y0076800D02*
X0124400Y0076800D01*
X0124400Y0066800D02*
X0119200Y0066800D01*
X0119200Y0056800D02*
X0124400Y0056800D01*
X0124400Y0046800D02*
X0119200Y0046800D01*
X0119200Y0036800D02*
X0124400Y0036800D01*
X0124400Y0026800D02*
X0119200Y0026800D01*
X0094400Y0026800D02*
X0089200Y0026800D01*
X0089200Y0036800D02*
X0094400Y0036800D01*
X0094400Y0046800D02*
X0089200Y0046800D01*
X0089200Y0056800D02*
X0094400Y0056800D01*
X0094400Y0066800D02*
X0089200Y0066800D01*
X0089200Y0076800D02*
X0094400Y0076800D01*
X0094400Y0086800D02*
X0089200Y0086800D01*
X0089200Y0096800D02*
X0094400Y0096800D01*
X0094400Y0106800D02*
X0089200Y0106800D01*
X0089200Y0116800D02*
X0094400Y0116800D01*
X0094400Y0126800D02*
X0089200Y0126800D01*
X0089200Y0136800D02*
X0094400Y0136800D01*
X0094400Y0146800D02*
X0089200Y0146800D01*
X0089200Y0156800D02*
X0094400Y0156800D01*
X0119200Y0156800D02*
X0124400Y0156800D01*
D15*
X0094674Y0196800D03*
X0086800Y0196800D03*
X0078926Y0196800D03*
X0180501Y0036879D03*
X0183650Y0032154D03*
X0186800Y0036879D03*
X0189950Y0032154D03*
X0193099Y0036879D03*
D16*
X0201170Y0016800D03*
X0172430Y0016800D03*
D17*
X0036643Y0171800D03*
X0016957Y0171800D03*
X0016957Y0201800D03*
X0036643Y0201800D03*
X0071052Y0196800D03*
X0102548Y0196800D03*
D18*
X0071800Y0081300D03*
X0071800Y0071906D03*
X0071800Y0062300D03*
M02*
