G75*
%MOIN*%
%OFA0B0*%
%FSLAX25Y25*%
%IPPOS*%
%LPD*%
%AMOC8*
5,1,8,0,0,1.08239X$1,22.5*
%
%ADD10C,0.00000*%
%ADD11OC8,0.05200*%
%ADD12C,0.05200*%
%ADD13C,0.07400*%
%ADD14C,0.05200*%
%ADD15C,0.05150*%
%ADD16C,0.11220*%
%ADD17C,0.06600*%
%ADD18C,0.04756*%
%ADD19C,0.01600*%
%ADD20R,0.03562X0.03562*%
D10*
X0006800Y0011800D02*
X0006800Y0208650D01*
X0203650Y0208650D01*
X0203650Y0011800D01*
X0006800Y0011800D01*
D11*
X0041800Y0021800D03*
X0066800Y0026800D03*
X0066800Y0036800D03*
X0041800Y0061800D03*
X0026800Y0061800D03*
X0016800Y0061800D03*
X0141800Y0141800D03*
X0156800Y0166800D03*
X0156800Y0176800D03*
X0156800Y0189300D03*
X0151800Y0196800D03*
X0161800Y0196800D03*
X0171800Y0196800D03*
X0181800Y0196800D03*
X0181800Y0181800D03*
X0171800Y0181800D03*
X0171800Y0166800D03*
X0181800Y0166800D03*
X0196800Y0156800D03*
X0196800Y0196800D03*
X0141800Y0181800D03*
X0131800Y0186800D03*
X0056800Y0191800D03*
X0016800Y0191800D03*
X0146800Y0076800D03*
D12*
X0136800Y0076800D03*
X0131800Y0196800D03*
D13*
X0106800Y0176800D03*
X0096800Y0176800D03*
X0086800Y0176800D03*
X0076800Y0176800D03*
X0066800Y0176800D03*
X0011800Y0146800D03*
X0011800Y0136800D03*
X0011800Y0126800D03*
X0011800Y0116800D03*
X0011800Y0106800D03*
X0011800Y0096800D03*
X0011800Y0086800D03*
X0011800Y0076800D03*
X0199300Y0076800D03*
X0199300Y0086800D03*
X0199300Y0096800D03*
X0199300Y0106800D03*
X0199300Y0116800D03*
X0199300Y0126800D03*
X0199300Y0136800D03*
X0199300Y0146800D03*
D14*
X0124400Y0146800D02*
X0119200Y0146800D01*
X0119200Y0136800D02*
X0124400Y0136800D01*
X0124400Y0126800D02*
X0119200Y0126800D01*
X0119200Y0116800D02*
X0124400Y0116800D01*
X0124400Y0106800D02*
X0119200Y0106800D01*
X0119200Y0096800D02*
X0124400Y0096800D01*
X0124400Y0086800D02*
X0119200Y0086800D01*
X0119200Y0076800D02*
X0124400Y0076800D01*
X0124400Y0066800D02*
X0119200Y0066800D01*
X0119200Y0056800D02*
X0124400Y0056800D01*
X0124400Y0046800D02*
X0119200Y0046800D01*
X0119200Y0036800D02*
X0124400Y0036800D01*
X0124400Y0026800D02*
X0119200Y0026800D01*
X0094400Y0026800D02*
X0089200Y0026800D01*
X0089200Y0036800D02*
X0094400Y0036800D01*
X0094400Y0046800D02*
X0089200Y0046800D01*
X0089200Y0056800D02*
X0094400Y0056800D01*
X0094400Y0066800D02*
X0089200Y0066800D01*
X0089200Y0076800D02*
X0094400Y0076800D01*
X0094400Y0086800D02*
X0089200Y0086800D01*
X0089200Y0096800D02*
X0094400Y0096800D01*
X0094400Y0106800D02*
X0089200Y0106800D01*
X0089200Y0116800D02*
X0094400Y0116800D01*
X0094400Y0126800D02*
X0089200Y0126800D01*
X0089200Y0136800D02*
X0094400Y0136800D01*
X0094400Y0146800D02*
X0089200Y0146800D01*
X0089200Y0156800D02*
X0094400Y0156800D01*
X0119200Y0156800D02*
X0124400Y0156800D01*
D15*
X0094674Y0196800D03*
X0086800Y0196800D03*
X0078926Y0196800D03*
X0180501Y0036879D03*
X0183650Y0032154D03*
X0186800Y0036879D03*
X0189950Y0032154D03*
X0193099Y0036879D03*
D16*
X0201170Y0016800D03*
X0172430Y0016800D03*
D17*
X0036643Y0171800D03*
X0016957Y0171800D03*
X0016957Y0201800D03*
X0036643Y0201800D03*
X0071052Y0196800D03*
X0102548Y0196800D03*
D18*
X0071800Y0081300D03*
X0071800Y0071906D03*
X0071800Y0062300D03*
D19*
X0068708Y0064551D02*
X0044706Y0064551D01*
X0045800Y0063457D02*
X0043457Y0065800D01*
X0040143Y0065800D01*
X0037800Y0063457D01*
X0037800Y0060143D01*
X0040143Y0057800D01*
X0043457Y0057800D01*
X0045800Y0060143D01*
X0045800Y0063457D01*
X0045800Y0062952D02*
X0068022Y0062952D01*
X0068022Y0063051D02*
X0068022Y0061549D01*
X0068597Y0060160D01*
X0069660Y0059097D01*
X0071049Y0058522D01*
X0072551Y0058522D01*
X0073940Y0059097D01*
X0075003Y0060160D01*
X0075578Y0061549D01*
X0075578Y0063051D01*
X0075003Y0064440D01*
X0073940Y0065503D01*
X0072551Y0066078D01*
X0071049Y0066078D01*
X0069660Y0065503D01*
X0068597Y0064440D01*
X0068022Y0063051D01*
X0068103Y0061354D02*
X0045800Y0061354D01*
X0045412Y0059755D02*
X0069002Y0059755D01*
X0074598Y0059755D02*
X0086498Y0059755D01*
X0086934Y0060191D02*
X0085809Y0059066D01*
X0085200Y0057596D01*
X0085200Y0056004D01*
X0085809Y0054534D01*
X0086934Y0053409D01*
X0088404Y0052800D01*
X0095196Y0052800D01*
X0096666Y0053409D01*
X0097791Y0054534D01*
X0098400Y0056004D01*
X0098400Y0057596D01*
X0097791Y0059066D01*
X0096666Y0060191D01*
X0095196Y0060800D01*
X0088404Y0060800D01*
X0086934Y0060191D01*
X0085432Y0058157D02*
X0043814Y0058157D01*
X0039786Y0058157D02*
X0028814Y0058157D01*
X0028457Y0057800D02*
X0030800Y0060143D01*
X0030800Y0063457D01*
X0028457Y0065800D01*
X0025143Y0065800D01*
X0022800Y0063457D01*
X0022800Y0060143D01*
X0025143Y0057800D01*
X0028457Y0057800D01*
X0030412Y0059755D02*
X0038188Y0059755D01*
X0037800Y0061354D02*
X0030800Y0061354D01*
X0030800Y0062952D02*
X0037800Y0062952D01*
X0038894Y0064551D02*
X0029706Y0064551D01*
X0023894Y0064551D02*
X0019706Y0064551D01*
X0020800Y0063457D02*
X0018457Y0065800D01*
X0015143Y0065800D01*
X0012800Y0063457D01*
X0012800Y0060143D01*
X0015143Y0057800D01*
X0018457Y0057800D01*
X0020800Y0060143D01*
X0020800Y0063457D01*
X0020800Y0062952D02*
X0022800Y0062952D01*
X0022800Y0061354D02*
X0020800Y0061354D01*
X0020412Y0059755D02*
X0023188Y0059755D01*
X0024786Y0058157D02*
X0018814Y0058157D01*
X0014786Y0058157D02*
X0008600Y0058157D01*
X0008600Y0059755D02*
X0013188Y0059755D01*
X0012800Y0061354D02*
X0008600Y0061354D01*
X0008600Y0062952D02*
X0012800Y0062952D01*
X0013894Y0064551D02*
X0008600Y0064551D01*
X0008600Y0066149D02*
X0085200Y0066149D01*
X0085200Y0066004D02*
X0085809Y0064534D01*
X0086934Y0063409D01*
X0088404Y0062800D01*
X0095196Y0062800D01*
X0096666Y0063409D01*
X0097791Y0064534D01*
X0098400Y0066004D01*
X0098400Y0067596D01*
X0097791Y0069066D01*
X0096666Y0070191D01*
X0095196Y0070800D01*
X0088404Y0070800D01*
X0086934Y0070191D01*
X0085809Y0069066D01*
X0085200Y0067596D01*
X0085200Y0066004D01*
X0085802Y0064551D02*
X0074892Y0064551D01*
X0075578Y0062952D02*
X0088037Y0062952D01*
X0085263Y0067748D02*
X0072252Y0067748D01*
X0072129Y0067728D02*
X0072778Y0067831D01*
X0073404Y0068034D01*
X0073990Y0068333D01*
X0074522Y0068720D01*
X0074987Y0069185D01*
X0075373Y0069717D01*
X0075672Y0070303D01*
X0075875Y0070928D01*
X0075978Y0071577D01*
X0075978Y0071906D01*
X0071800Y0071906D01*
X0071800Y0067728D01*
X0072129Y0067728D01*
X0071800Y0067728D02*
X0071800Y0071906D01*
X0071800Y0071906D01*
X0071800Y0071906D01*
X0067622Y0071906D01*
X0067622Y0071577D01*
X0067725Y0070928D01*
X0067928Y0070303D01*
X0068227Y0069717D01*
X0068613Y0069185D01*
X0069078Y0068720D01*
X0069610Y0068333D01*
X0070196Y0068034D01*
X0070822Y0067831D01*
X0071471Y0067728D01*
X0071800Y0067728D01*
X0071800Y0067748D02*
X0071800Y0067748D01*
X0071348Y0067748D02*
X0008600Y0067748D01*
X0008600Y0069346D02*
X0068496Y0069346D01*
X0067722Y0070945D02*
X0008600Y0070945D01*
X0008917Y0072096D02*
X0009689Y0071703D01*
X0010512Y0071435D01*
X0011367Y0071300D01*
X0011600Y0071300D01*
X0011600Y0076600D01*
X0012000Y0076600D01*
X0012000Y0077000D01*
X0017300Y0077000D01*
X0017300Y0077233D01*
X0017165Y0078088D01*
X0016897Y0078911D01*
X0016504Y0079683D01*
X0015995Y0080383D01*
X0015383Y0080995D01*
X0014683Y0081504D01*
X0013911Y0081897D01*
X0013563Y0082010D01*
X0014689Y0082476D01*
X0016124Y0083911D01*
X0016900Y0085786D01*
X0016900Y0087814D01*
X0016124Y0089689D01*
X0014689Y0091124D01*
X0013056Y0091800D01*
X0014689Y0092476D01*
X0016124Y0093911D01*
X0016900Y0095786D01*
X0016900Y0097814D01*
X0016124Y0099689D01*
X0014689Y0101124D01*
X0013056Y0101800D01*
X0014689Y0102476D01*
X0016124Y0103911D01*
X0016409Y0104600D01*
X0022711Y0104600D01*
X0024000Y0105889D01*
X0029000Y0110889D01*
X0029000Y0148619D01*
X0029161Y0148619D01*
X0029981Y0149439D01*
X0029981Y0154161D01*
X0029161Y0154981D01*
X0024439Y0154981D01*
X0023619Y0154161D01*
X0023619Y0149439D01*
X0024439Y0148619D01*
X0024600Y0148619D01*
X0024600Y0112711D01*
X0020889Y0109000D01*
X0016409Y0109000D01*
X0016124Y0109689D01*
X0014689Y0111124D01*
X0013056Y0111800D01*
X0014689Y0112476D01*
X0016124Y0113911D01*
X0016900Y0115786D01*
X0016900Y0117814D01*
X0016124Y0119689D01*
X0014689Y0121124D01*
X0013056Y0121800D01*
X0014689Y0122476D01*
X0016124Y0123911D01*
X0016900Y0125786D01*
X0016900Y0127814D01*
X0016124Y0129689D01*
X0014689Y0131124D01*
X0013056Y0131800D01*
X0014689Y0132476D01*
X0016124Y0133911D01*
X0016900Y0135786D01*
X0016900Y0137814D01*
X0016124Y0139689D01*
X0014689Y0141124D01*
X0013056Y0141800D01*
X0014689Y0142476D01*
X0016124Y0143911D01*
X0016900Y0145786D01*
X0016900Y0147814D01*
X0016124Y0149689D01*
X0014689Y0151124D01*
X0012814Y0151900D01*
X0010786Y0151900D01*
X0008911Y0151124D01*
X0008600Y0150812D01*
X0008600Y0206850D01*
X0035928Y0206850D01*
X0035448Y0206774D01*
X0034685Y0206526D01*
X0033970Y0206162D01*
X0033320Y0205690D01*
X0032752Y0205122D01*
X0032281Y0204473D01*
X0031916Y0203758D01*
X0031668Y0202994D01*
X0031543Y0202201D01*
X0031543Y0201984D01*
X0036458Y0201984D01*
X0036458Y0201616D01*
X0031543Y0201616D01*
X0031543Y0201399D01*
X0031668Y0200606D01*
X0031916Y0199842D01*
X0032281Y0199127D01*
X0032752Y0198478D01*
X0033320Y0197910D01*
X0033970Y0197438D01*
X0034685Y0197074D01*
X0035448Y0196826D01*
X0036241Y0196700D01*
X0036458Y0196700D01*
X0036458Y0201616D01*
X0036827Y0201616D01*
X0036827Y0201984D01*
X0041743Y0201984D01*
X0041743Y0202201D01*
X0041617Y0202994D01*
X0041369Y0203758D01*
X0041004Y0204473D01*
X0040533Y0205122D01*
X0039965Y0205690D01*
X0039316Y0206162D01*
X0038600Y0206526D01*
X0037837Y0206774D01*
X0037357Y0206850D01*
X0201850Y0206850D01*
X0201850Y0151264D01*
X0200314Y0151900D01*
X0198286Y0151900D01*
X0196411Y0151124D01*
X0194976Y0149689D01*
X0194200Y0147814D01*
X0194200Y0145786D01*
X0194976Y0143911D01*
X0196411Y0142476D01*
X0198044Y0141800D01*
X0196411Y0141124D01*
X0194976Y0139689D01*
X0194200Y0137814D01*
X0194200Y0135786D01*
X0194976Y0133911D01*
X0196411Y0132476D01*
X0198044Y0131800D01*
X0196411Y0131124D01*
X0194976Y0129689D01*
X0194200Y0127814D01*
X0194200Y0125786D01*
X0194976Y0123911D01*
X0196411Y0122476D01*
X0198044Y0121800D01*
X0196411Y0121124D01*
X0194976Y0119689D01*
X0194691Y0119000D01*
X0175889Y0119000D01*
X0174600Y0117711D01*
X0139600Y0082711D01*
X0139600Y0079657D01*
X0139066Y0080191D01*
X0137596Y0080800D01*
X0136004Y0080800D01*
X0134534Y0080191D01*
X0133409Y0079066D01*
X0132800Y0077596D01*
X0132800Y0076004D01*
X0133409Y0074534D01*
X0134534Y0073409D01*
X0136004Y0072800D01*
X0137596Y0072800D01*
X0139066Y0073409D01*
X0139600Y0073943D01*
X0139600Y0067711D01*
X0130889Y0059000D01*
X0127818Y0059000D01*
X0127791Y0059066D01*
X0126666Y0060191D01*
X0125196Y0060800D01*
X0118404Y0060800D01*
X0116934Y0060191D01*
X0115809Y0059066D01*
X0115200Y0057596D01*
X0115200Y0056004D01*
X0115809Y0054534D01*
X0116934Y0053409D01*
X0118404Y0052800D01*
X0125196Y0052800D01*
X0126666Y0053409D01*
X0127791Y0054534D01*
X0127818Y0054600D01*
X0132711Y0054600D01*
X0134000Y0055889D01*
X0142711Y0064600D01*
X0142711Y0064600D01*
X0144000Y0065889D01*
X0144000Y0073377D01*
X0144977Y0072400D01*
X0146800Y0072400D01*
X0148623Y0072400D01*
X0151200Y0074977D01*
X0151200Y0076800D01*
X0151200Y0078623D01*
X0148623Y0081200D01*
X0146800Y0081200D01*
X0146800Y0076800D01*
X0146800Y0076800D01*
X0151200Y0076800D01*
X0146800Y0076800D01*
X0146800Y0076800D01*
X0146800Y0081200D01*
X0144977Y0081200D01*
X0144000Y0080223D01*
X0144000Y0080889D01*
X0177711Y0114600D01*
X0194691Y0114600D01*
X0194976Y0113911D01*
X0196411Y0112476D01*
X0198044Y0111800D01*
X0196411Y0111124D01*
X0194976Y0109689D01*
X0194691Y0109000D01*
X0175889Y0109000D01*
X0174600Y0107711D01*
X0159600Y0092711D01*
X0159600Y0077711D01*
X0130889Y0049000D01*
X0127818Y0049000D01*
X0127791Y0049066D01*
X0126666Y0050191D01*
X0125196Y0050800D01*
X0118404Y0050800D01*
X0116934Y0050191D01*
X0115809Y0049066D01*
X0115200Y0047596D01*
X0115200Y0046004D01*
X0115809Y0044534D01*
X0116934Y0043409D01*
X0118404Y0042800D01*
X0125196Y0042800D01*
X0126666Y0043409D01*
X0127791Y0044534D01*
X0127818Y0044600D01*
X0132711Y0044600D01*
X0162711Y0074600D01*
X0164000Y0075889D01*
X0164000Y0090889D01*
X0177711Y0104600D01*
X0194691Y0104600D01*
X0194976Y0103911D01*
X0196411Y0102476D01*
X0198044Y0101800D01*
X0196411Y0101124D01*
X0194976Y0099689D01*
X0194691Y0099000D01*
X0175889Y0099000D01*
X0174600Y0097711D01*
X0169600Y0092711D01*
X0169600Y0077711D01*
X0130889Y0039000D01*
X0127818Y0039000D01*
X0127791Y0039066D01*
X0126666Y0040191D01*
X0125196Y0040800D01*
X0118404Y0040800D01*
X0116934Y0040191D01*
X0115809Y0039066D01*
X0115200Y0037596D01*
X0115200Y0036004D01*
X0115809Y0034534D01*
X0116934Y0033409D01*
X0118404Y0032800D01*
X0125196Y0032800D01*
X0126666Y0033409D01*
X0127791Y0034534D01*
X0127818Y0034600D01*
X0132711Y0034600D01*
X0172711Y0074600D01*
X0174000Y0075889D01*
X0174000Y0090889D01*
X0177711Y0094600D01*
X0194691Y0094600D01*
X0194976Y0093911D01*
X0196411Y0092476D01*
X0198044Y0091800D01*
X0196411Y0091124D01*
X0194976Y0089689D01*
X0194691Y0089000D01*
X0185889Y0089000D01*
X0184600Y0087711D01*
X0179600Y0082711D01*
X0179600Y0077711D01*
X0130889Y0029000D01*
X0127818Y0029000D01*
X0127791Y0029066D01*
X0126666Y0030191D01*
X0125196Y0030800D01*
X0118404Y0030800D01*
X0116934Y0030191D01*
X0115809Y0029066D01*
X0115200Y0027596D01*
X0115200Y0026004D01*
X0115809Y0024534D01*
X0116934Y0023409D01*
X0118404Y0022800D01*
X0125196Y0022800D01*
X0126666Y0023409D01*
X0127791Y0024534D01*
X0127818Y0024600D01*
X0132711Y0024600D01*
X0182711Y0074600D01*
X0184000Y0075889D01*
X0184000Y0080889D01*
X0187711Y0084600D01*
X0194691Y0084600D01*
X0194976Y0083911D01*
X0196411Y0082476D01*
X0197537Y0082010D01*
X0197189Y0081897D01*
X0196417Y0081504D01*
X0195717Y0080995D01*
X0195105Y0080383D01*
X0194596Y0079683D01*
X0194203Y0078911D01*
X0193935Y0078088D01*
X0193800Y0077233D01*
X0193800Y0077000D01*
X0199100Y0077000D01*
X0199100Y0076600D01*
X0199500Y0076600D01*
X0199500Y0071300D01*
X0199733Y0071300D01*
X0200588Y0071435D01*
X0201411Y0071703D01*
X0201850Y0071927D01*
X0201850Y0023810D01*
X0199776Y0023810D01*
X0197199Y0022743D01*
X0195227Y0020771D01*
X0194160Y0018194D01*
X0179440Y0018194D01*
X0178373Y0020771D01*
X0176401Y0022743D01*
X0173824Y0023810D01*
X0171035Y0023810D01*
X0168459Y0022743D01*
X0166487Y0020771D01*
X0165420Y0018194D01*
X0044417Y0018194D01*
X0043623Y0017400D02*
X0046200Y0019977D01*
X0046200Y0021800D01*
X0046200Y0023623D01*
X0043623Y0026200D01*
X0041800Y0026200D01*
X0041800Y0021800D01*
X0041800Y0021800D01*
X0046200Y0021800D01*
X0041800Y0021800D01*
X0041800Y0021800D01*
X0041800Y0021800D01*
X0037400Y0021800D01*
X0037400Y0023623D01*
X0039977Y0026200D01*
X0041800Y0026200D01*
X0041800Y0021800D01*
X0041800Y0017400D01*
X0043623Y0017400D01*
X0041800Y0017400D02*
X0041800Y0021800D01*
X0041800Y0021800D01*
X0037400Y0021800D01*
X0037400Y0019977D01*
X0039977Y0017400D01*
X0041800Y0017400D01*
X0041800Y0018194D02*
X0041800Y0018194D01*
X0041800Y0019793D02*
X0041800Y0019793D01*
X0041800Y0021391D02*
X0041800Y0021391D01*
X0041800Y0022990D02*
X0041800Y0022990D01*
X0041800Y0024588D02*
X0041800Y0024588D01*
X0041800Y0026187D02*
X0041800Y0026187D01*
X0043636Y0026187D02*
X0062400Y0026187D01*
X0062400Y0026800D02*
X0062400Y0024977D01*
X0064977Y0022400D01*
X0066800Y0022400D01*
X0068623Y0022400D01*
X0071200Y0024977D01*
X0071200Y0026800D01*
X0071200Y0028623D01*
X0068623Y0031200D01*
X0066800Y0031200D01*
X0066800Y0026800D01*
X0066800Y0026800D01*
X0071200Y0026800D01*
X0066800Y0026800D01*
X0066800Y0026800D01*
X0066800Y0026800D01*
X0062400Y0026800D01*
X0062400Y0028623D01*
X0064977Y0031200D01*
X0066800Y0031200D01*
X0066800Y0026800D01*
X0066800Y0022400D01*
X0066800Y0026800D01*
X0066800Y0026800D01*
X0062400Y0026800D01*
X0062400Y0027785D02*
X0008600Y0027785D01*
X0008600Y0026187D02*
X0039964Y0026187D01*
X0038366Y0024588D02*
X0008600Y0024588D01*
X0008600Y0022990D02*
X0037400Y0022990D01*
X0037400Y0021391D02*
X0008600Y0021391D01*
X0008600Y0019793D02*
X0037585Y0019793D01*
X0039183Y0018194D02*
X0008600Y0018194D01*
X0008600Y0016596D02*
X0165420Y0016596D01*
X0165420Y0015406D02*
X0166168Y0013600D01*
X0008600Y0013600D01*
X0008600Y0072327D01*
X0008917Y0072096D01*
X0011600Y0072543D02*
X0012000Y0072543D01*
X0012000Y0071300D02*
X0012233Y0071300D01*
X0013088Y0071435D01*
X0013911Y0071703D01*
X0014683Y0072096D01*
X0015383Y0072605D01*
X0015995Y0073217D01*
X0016504Y0073917D01*
X0016897Y0074689D01*
X0017165Y0075512D01*
X0017300Y0076367D01*
X0017300Y0076600D01*
X0012000Y0076600D01*
X0012000Y0071300D01*
X0012000Y0074142D02*
X0011600Y0074142D01*
X0011600Y0075740D02*
X0012000Y0075740D01*
X0015298Y0072543D02*
X0067671Y0072543D01*
X0067622Y0072235D02*
X0067622Y0071906D01*
X0071800Y0071906D01*
X0071800Y0071906D01*
X0075978Y0071906D01*
X0075978Y0072235D01*
X0075875Y0072885D01*
X0075672Y0073510D01*
X0075373Y0074096D01*
X0074987Y0074628D01*
X0074522Y0075093D01*
X0073990Y0075480D01*
X0073404Y0075778D01*
X0072778Y0075981D01*
X0072129Y0076084D01*
X0071800Y0076084D01*
X0071800Y0071906D01*
X0071800Y0076084D01*
X0071471Y0076084D01*
X0070822Y0075981D01*
X0070196Y0075778D01*
X0069610Y0075480D01*
X0069078Y0075093D01*
X0068613Y0074628D01*
X0068227Y0074096D01*
X0067928Y0073510D01*
X0067725Y0072885D01*
X0067622Y0072235D01*
X0068260Y0074142D02*
X0016618Y0074142D01*
X0017201Y0075740D02*
X0070122Y0075740D01*
X0071800Y0075740D02*
X0071800Y0075740D01*
X0071800Y0074142D02*
X0071800Y0074142D01*
X0071800Y0072543D02*
X0071800Y0072543D01*
X0071800Y0071906D02*
X0071800Y0071906D01*
X0071800Y0070945D02*
X0071800Y0070945D01*
X0071800Y0069346D02*
X0071800Y0069346D01*
X0075104Y0069346D02*
X0086090Y0069346D01*
X0086934Y0073409D02*
X0088404Y0072800D01*
X0095196Y0072800D01*
X0096666Y0073409D01*
X0097791Y0074534D01*
X0098400Y0076004D01*
X0098400Y0077596D01*
X0097791Y0079066D01*
X0096666Y0080191D01*
X0095196Y0080800D01*
X0088404Y0080800D01*
X0086934Y0080191D01*
X0085809Y0079066D01*
X0085200Y0077596D01*
X0085200Y0076004D01*
X0085809Y0074534D01*
X0086934Y0073409D01*
X0086201Y0074142D02*
X0075340Y0074142D01*
X0075929Y0072543D02*
X0139600Y0072543D01*
X0139600Y0070945D02*
X0125882Y0070945D01*
X0126089Y0070878D02*
X0125430Y0071092D01*
X0124746Y0071200D01*
X0121800Y0071200D01*
X0121800Y0066800D01*
X0121800Y0066800D01*
X0128800Y0066800D01*
X0128800Y0067146D01*
X0128692Y0067830D01*
X0128478Y0068489D01*
X0128163Y0069106D01*
X0127756Y0069666D01*
X0127266Y0070156D01*
X0126706Y0070563D01*
X0126089Y0070878D01*
X0125196Y0072800D02*
X0126666Y0073409D01*
X0127791Y0074534D01*
X0128400Y0076004D01*
X0128400Y0077596D01*
X0127791Y0079066D01*
X0126666Y0080191D01*
X0125196Y0080800D01*
X0118404Y0080800D01*
X0116934Y0080191D01*
X0115809Y0079066D01*
X0115200Y0077596D01*
X0115200Y0076004D01*
X0115809Y0074534D01*
X0116934Y0073409D01*
X0118404Y0072800D01*
X0125196Y0072800D01*
X0127399Y0074142D02*
X0133801Y0074142D01*
X0132909Y0075740D02*
X0128291Y0075740D01*
X0128400Y0077339D02*
X0132800Y0077339D01*
X0133356Y0078937D02*
X0127844Y0078937D01*
X0125833Y0080536D02*
X0135367Y0080536D01*
X0138233Y0080536D02*
X0139600Y0080536D01*
X0139600Y0082134D02*
X0075544Y0082134D01*
X0075578Y0082051D02*
X0075003Y0083440D01*
X0073940Y0084503D01*
X0072551Y0085078D01*
X0071049Y0085078D01*
X0069660Y0084503D01*
X0068597Y0083440D01*
X0068022Y0082051D01*
X0068022Y0080549D01*
X0068597Y0079160D01*
X0069660Y0078097D01*
X0071049Y0077522D01*
X0072551Y0077522D01*
X0073940Y0078097D01*
X0075003Y0079160D01*
X0075578Y0080549D01*
X0075578Y0082051D01*
X0075573Y0080536D02*
X0087767Y0080536D01*
X0088170Y0082508D02*
X0087511Y0082722D01*
X0086894Y0083037D01*
X0086334Y0083444D01*
X0085844Y0083934D01*
X0085437Y0084494D01*
X0085122Y0085111D01*
X0084908Y0085770D01*
X0084800Y0086454D01*
X0084800Y0086800D01*
X0091800Y0086800D01*
X0091800Y0086800D01*
X0091800Y0091200D01*
X0094746Y0091200D01*
X0095430Y0091092D01*
X0096089Y0090878D01*
X0096706Y0090563D01*
X0097266Y0090156D01*
X0097756Y0089666D01*
X0098163Y0089106D01*
X0098478Y0088489D01*
X0098692Y0087830D01*
X0098800Y0087146D01*
X0098800Y0086800D01*
X0091800Y0086800D01*
X0091800Y0086800D01*
X0091800Y0082400D01*
X0094746Y0082400D01*
X0095430Y0082508D01*
X0096089Y0082722D01*
X0096706Y0083037D01*
X0097266Y0083444D01*
X0097756Y0083934D01*
X0098163Y0084494D01*
X0098478Y0085111D01*
X0098692Y0085770D01*
X0098800Y0086454D01*
X0098800Y0086800D01*
X0091800Y0086800D01*
X0091800Y0086800D01*
X0091800Y0086800D01*
X0091800Y0091200D01*
X0088854Y0091200D01*
X0088170Y0091092D01*
X0087511Y0090878D01*
X0086894Y0090563D01*
X0086334Y0090156D01*
X0085844Y0089666D01*
X0085437Y0089106D01*
X0085122Y0088489D01*
X0084908Y0087830D01*
X0084800Y0087146D01*
X0084800Y0086800D01*
X0091800Y0086800D01*
X0091800Y0082400D01*
X0088854Y0082400D01*
X0088170Y0082508D01*
X0086044Y0083733D02*
X0074710Y0083733D01*
X0068890Y0083733D02*
X0015945Y0083733D01*
X0016712Y0085332D02*
X0085051Y0085332D01*
X0084800Y0086930D02*
X0016900Y0086930D01*
X0016604Y0088529D02*
X0085143Y0088529D01*
X0086305Y0090127D02*
X0015685Y0090127D01*
X0013236Y0091726D02*
X0148614Y0091726D01*
X0150213Y0093324D02*
X0126461Y0093324D01*
X0126666Y0093409D02*
X0127791Y0094534D01*
X0128400Y0096004D01*
X0128400Y0097596D01*
X0127791Y0099066D01*
X0126666Y0100191D01*
X0125196Y0100800D01*
X0118404Y0100800D01*
X0116934Y0100191D01*
X0115809Y0099066D01*
X0115200Y0097596D01*
X0115200Y0096004D01*
X0115809Y0094534D01*
X0116934Y0093409D01*
X0118404Y0092800D01*
X0125196Y0092800D01*
X0126666Y0093409D01*
X0127952Y0094923D02*
X0151811Y0094923D01*
X0153410Y0096521D02*
X0128400Y0096521D01*
X0128183Y0098120D02*
X0155008Y0098120D01*
X0156607Y0099718D02*
X0127139Y0099718D01*
X0125474Y0102915D02*
X0159804Y0102915D01*
X0158205Y0101317D02*
X0014223Y0101317D01*
X0015128Y0102915D02*
X0088126Y0102915D01*
X0088404Y0102800D02*
X0095196Y0102800D01*
X0096666Y0103409D01*
X0097791Y0104534D01*
X0098400Y0106004D01*
X0098400Y0107596D01*
X0097791Y0109066D01*
X0096666Y0110191D01*
X0095196Y0110800D01*
X0088404Y0110800D01*
X0086934Y0110191D01*
X0085809Y0109066D01*
X0085200Y0107596D01*
X0085200Y0106004D01*
X0085809Y0104534D01*
X0086934Y0103409D01*
X0088404Y0102800D01*
X0088404Y0100800D02*
X0086934Y0100191D01*
X0085809Y0099066D01*
X0085200Y0097596D01*
X0085200Y0096004D01*
X0085809Y0094534D01*
X0086934Y0093409D01*
X0088404Y0092800D01*
X0095196Y0092800D01*
X0096666Y0093409D01*
X0097791Y0094534D01*
X0098400Y0096004D01*
X0098400Y0097596D01*
X0097791Y0099066D01*
X0096666Y0100191D01*
X0095196Y0100800D01*
X0088404Y0100800D01*
X0086461Y0099718D02*
X0016094Y0099718D01*
X0016774Y0098120D02*
X0085417Y0098120D01*
X0085200Y0096521D02*
X0016900Y0096521D01*
X0016543Y0094923D02*
X0085648Y0094923D01*
X0087139Y0093324D02*
X0015537Y0093324D01*
X0016373Y0104514D02*
X0085829Y0104514D01*
X0085200Y0106112D02*
X0024223Y0106112D01*
X0025822Y0107711D02*
X0085248Y0107711D01*
X0086052Y0109309D02*
X0027420Y0109309D01*
X0029000Y0110908D02*
X0132796Y0110908D01*
X0131198Y0109309D02*
X0127548Y0109309D01*
X0127791Y0109066D02*
X0126666Y0110191D01*
X0125196Y0110800D01*
X0118404Y0110800D01*
X0116934Y0110191D01*
X0115809Y0109066D01*
X0115200Y0107596D01*
X0115200Y0106004D01*
X0115809Y0104534D01*
X0116934Y0103409D01*
X0118404Y0102800D01*
X0125196Y0102800D01*
X0126666Y0103409D01*
X0127791Y0104534D01*
X0127818Y0104600D01*
X0132711Y0104600D01*
X0134000Y0105889D01*
X0144000Y0115889D01*
X0144000Y0138343D01*
X0144600Y0138943D01*
X0144600Y0114981D01*
X0144439Y0114981D01*
X0143619Y0114161D01*
X0143619Y0109439D01*
X0144439Y0108619D01*
X0149161Y0108619D01*
X0149981Y0109439D01*
X0149981Y0114161D01*
X0149161Y0114981D01*
X0149000Y0114981D01*
X0149000Y0148619D01*
X0149161Y0148619D01*
X0149981Y0149439D01*
X0149981Y0154161D01*
X0149161Y0154981D01*
X0144439Y0154981D01*
X0143619Y0154161D01*
X0143619Y0149439D01*
X0144439Y0148619D01*
X0144600Y0148619D01*
X0144600Y0144657D01*
X0143457Y0145800D01*
X0140143Y0145800D01*
X0137800Y0143457D01*
X0137800Y0140143D01*
X0139600Y0138343D01*
X0139600Y0117711D01*
X0130889Y0109000D01*
X0127818Y0109000D01*
X0127791Y0109066D01*
X0126666Y0113409D02*
X0125196Y0112800D01*
X0118404Y0112800D01*
X0116934Y0113409D01*
X0115809Y0114534D01*
X0115200Y0116004D01*
X0115200Y0117596D01*
X0115809Y0119066D01*
X0116934Y0120191D01*
X0118404Y0120800D01*
X0125196Y0120800D01*
X0126666Y0120191D01*
X0127791Y0119066D01*
X0128400Y0117596D01*
X0128400Y0116004D01*
X0127791Y0114534D01*
X0126666Y0113409D01*
X0127362Y0114105D02*
X0135993Y0114105D01*
X0134395Y0112506D02*
X0029000Y0112506D01*
X0029000Y0114105D02*
X0086238Y0114105D01*
X0085809Y0114534D02*
X0086934Y0113409D01*
X0088404Y0112800D01*
X0095196Y0112800D01*
X0096666Y0113409D01*
X0097791Y0114534D01*
X0098400Y0116004D01*
X0098400Y0117596D01*
X0097791Y0119066D01*
X0096666Y0120191D01*
X0095196Y0120800D01*
X0088404Y0120800D01*
X0086934Y0120191D01*
X0085809Y0119066D01*
X0085782Y0119000D01*
X0082711Y0119000D01*
X0069000Y0132711D01*
X0069000Y0172191D01*
X0069689Y0172476D01*
X0071124Y0173911D01*
X0071800Y0175544D01*
X0072476Y0173911D01*
X0073911Y0172476D01*
X0074600Y0172191D01*
X0074600Y0130889D01*
X0080889Y0124600D01*
X0085782Y0124600D01*
X0085809Y0124534D01*
X0086934Y0123409D01*
X0088404Y0122800D01*
X0095196Y0122800D01*
X0096666Y0123409D01*
X0097791Y0124534D01*
X0098400Y0126004D01*
X0098400Y0127596D01*
X0097791Y0129066D01*
X0096666Y0130191D01*
X0095196Y0130800D01*
X0088404Y0130800D01*
X0086934Y0130191D01*
X0085809Y0129066D01*
X0085782Y0129000D01*
X0082711Y0129000D01*
X0079000Y0132711D01*
X0079000Y0172191D01*
X0079689Y0172476D01*
X0081124Y0173911D01*
X0081590Y0175037D01*
X0081703Y0174689D01*
X0082096Y0173917D01*
X0082605Y0173217D01*
X0083217Y0172605D01*
X0083917Y0172096D01*
X0084689Y0171703D01*
X0085512Y0171435D01*
X0086367Y0171300D01*
X0086600Y0171300D01*
X0086600Y0176600D01*
X0087000Y0176600D01*
X0087000Y0171300D01*
X0087233Y0171300D01*
X0088088Y0171435D01*
X0088911Y0171703D01*
X0089683Y0172096D01*
X0090383Y0172605D01*
X0090995Y0173217D01*
X0091504Y0173917D01*
X0091897Y0174689D01*
X0092010Y0175037D01*
X0092476Y0173911D01*
X0093911Y0172476D01*
X0095786Y0171700D01*
X0097814Y0171700D01*
X0099689Y0172476D01*
X0101124Y0173911D01*
X0101800Y0175544D01*
X0102476Y0173911D01*
X0103911Y0172476D01*
X0105786Y0171700D01*
X0107814Y0171700D01*
X0109689Y0172476D01*
X0111124Y0173911D01*
X0111409Y0174600D01*
X0132711Y0174600D01*
X0137711Y0179600D01*
X0138343Y0179600D01*
X0140143Y0177800D01*
X0143457Y0177800D01*
X0145800Y0180143D01*
X0145800Y0183457D01*
X0143457Y0185800D01*
X0140143Y0185800D01*
X0138343Y0184000D01*
X0135889Y0184000D01*
X0134600Y0182711D01*
X0130889Y0179000D01*
X0111409Y0179000D01*
X0111124Y0179689D01*
X0109689Y0181124D01*
X0107814Y0181900D01*
X0105786Y0181900D01*
X0103911Y0181124D01*
X0102476Y0179689D01*
X0101800Y0178056D01*
X0101124Y0179689D01*
X0099689Y0181124D01*
X0097814Y0181900D01*
X0095786Y0181900D01*
X0093911Y0181124D01*
X0092476Y0179689D01*
X0092010Y0178563D01*
X0091897Y0178911D01*
X0091504Y0179683D01*
X0090995Y0180383D01*
X0090383Y0180995D01*
X0089683Y0181504D01*
X0088911Y0181897D01*
X0088088Y0182165D01*
X0087233Y0182300D01*
X0087000Y0182300D01*
X0087000Y0177000D01*
X0086600Y0177000D01*
X0086600Y0182300D01*
X0086367Y0182300D01*
X0085512Y0182165D01*
X0084689Y0181897D01*
X0083917Y0181504D01*
X0083217Y0180995D01*
X0082605Y0180383D01*
X0082096Y0179683D01*
X0081703Y0178911D01*
X0081590Y0178563D01*
X0081124Y0179689D01*
X0079689Y0181124D01*
X0077814Y0181900D01*
X0075786Y0181900D01*
X0073911Y0181124D01*
X0072476Y0179689D01*
X0071800Y0178056D01*
X0071124Y0179689D01*
X0069689Y0181124D01*
X0067814Y0181900D01*
X0065786Y0181900D01*
X0063911Y0181124D01*
X0062476Y0179689D01*
X0061700Y0177814D01*
X0061700Y0175786D01*
X0062476Y0173911D01*
X0063911Y0172476D01*
X0064600Y0172191D01*
X0064600Y0130889D01*
X0079600Y0115889D01*
X0080889Y0114600D01*
X0085782Y0114600D01*
X0085809Y0114534D01*
X0081800Y0116800D02*
X0091800Y0116800D01*
X0087677Y0120499D02*
X0081212Y0120499D01*
X0079614Y0122097D02*
X0139600Y0122097D01*
X0139600Y0120499D02*
X0125923Y0120499D01*
X0125196Y0122800D02*
X0126666Y0123409D01*
X0127791Y0124534D01*
X0128400Y0126004D01*
X0128400Y0127596D01*
X0127791Y0129066D01*
X0126666Y0130191D01*
X0125196Y0130800D01*
X0118404Y0130800D01*
X0116934Y0130191D01*
X0115809Y0129066D01*
X0115200Y0127596D01*
X0115200Y0126004D01*
X0115809Y0124534D01*
X0116934Y0123409D01*
X0118404Y0122800D01*
X0125196Y0122800D01*
X0126953Y0123696D02*
X0139600Y0123696D01*
X0139600Y0125294D02*
X0128106Y0125294D01*
X0128400Y0126893D02*
X0139600Y0126893D01*
X0139600Y0128491D02*
X0128029Y0128491D01*
X0126767Y0130090D02*
X0139600Y0130090D01*
X0139600Y0131688D02*
X0080023Y0131688D01*
X0079000Y0133287D02*
X0087229Y0133287D01*
X0086934Y0133409D02*
X0088404Y0132800D01*
X0095196Y0132800D01*
X0096666Y0133409D01*
X0097791Y0134534D01*
X0098400Y0136004D01*
X0098400Y0137596D01*
X0097791Y0139066D01*
X0096666Y0140191D01*
X0095196Y0140800D01*
X0088404Y0140800D01*
X0086934Y0140191D01*
X0085809Y0139066D01*
X0085200Y0137596D01*
X0085200Y0136004D01*
X0085809Y0134534D01*
X0086934Y0133409D01*
X0085663Y0134885D02*
X0079000Y0134885D01*
X0079000Y0136484D02*
X0085200Y0136484D01*
X0085402Y0138082D02*
X0079000Y0138082D01*
X0079000Y0139681D02*
X0086424Y0139681D01*
X0088216Y0142878D02*
X0079000Y0142878D01*
X0079000Y0144476D02*
X0085867Y0144476D01*
X0085809Y0144534D02*
X0086934Y0143409D01*
X0088404Y0142800D01*
X0095196Y0142800D01*
X0096666Y0143409D01*
X0097791Y0144534D01*
X0098400Y0146004D01*
X0098400Y0147596D01*
X0097791Y0149066D01*
X0096666Y0150191D01*
X0095196Y0150800D01*
X0088404Y0150800D01*
X0086934Y0150191D01*
X0085809Y0149066D01*
X0085200Y0147596D01*
X0085200Y0146004D01*
X0085809Y0144534D01*
X0085200Y0146075D02*
X0079000Y0146075D01*
X0079000Y0147673D02*
X0085232Y0147673D01*
X0086015Y0149272D02*
X0079000Y0149272D01*
X0079000Y0150870D02*
X0117497Y0150870D01*
X0117511Y0150878D02*
X0116894Y0150563D01*
X0116334Y0150156D01*
X0115844Y0149666D01*
X0115437Y0149106D01*
X0115122Y0148489D01*
X0114908Y0147830D01*
X0114800Y0147146D01*
X0114800Y0146800D01*
X0121800Y0146800D01*
X0121800Y0146800D01*
X0121800Y0151200D01*
X0124746Y0151200D01*
X0125430Y0151092D01*
X0126089Y0150878D01*
X0126706Y0150563D01*
X0127266Y0150156D01*
X0127756Y0149666D01*
X0128163Y0149106D01*
X0128478Y0148489D01*
X0128692Y0147830D01*
X0128800Y0147146D01*
X0128800Y0146800D01*
X0121800Y0146800D01*
X0121800Y0146800D01*
X0121800Y0142400D01*
X0124746Y0142400D01*
X0125430Y0142508D01*
X0126089Y0142722D01*
X0126706Y0143037D01*
X0127266Y0143444D01*
X0127756Y0143934D01*
X0128163Y0144494D01*
X0128478Y0145111D01*
X0128692Y0145770D01*
X0128800Y0146454D01*
X0128800Y0146800D01*
X0121800Y0146800D01*
X0121800Y0146800D01*
X0121800Y0146800D01*
X0121800Y0151200D01*
X0118854Y0151200D01*
X0118170Y0151092D01*
X0117511Y0150878D01*
X0118404Y0152800D02*
X0116934Y0153409D01*
X0115809Y0154534D01*
X0115200Y0156004D01*
X0115200Y0157596D01*
X0115809Y0159066D01*
X0116934Y0160191D01*
X0118404Y0160800D01*
X0125196Y0160800D01*
X0126666Y0160191D01*
X0127791Y0159066D01*
X0128400Y0157596D01*
X0128400Y0156004D01*
X0127791Y0154534D01*
X0126666Y0153409D01*
X0125196Y0152800D01*
X0118404Y0152800D01*
X0116276Y0154068D02*
X0097324Y0154068D01*
X0097791Y0154534D02*
X0098400Y0156004D01*
X0098400Y0157596D01*
X0097791Y0159066D01*
X0096666Y0160191D01*
X0095196Y0160800D01*
X0088404Y0160800D01*
X0086934Y0160191D01*
X0085809Y0159066D01*
X0085200Y0157596D01*
X0085200Y0156004D01*
X0085809Y0154534D01*
X0086934Y0153409D01*
X0088404Y0152800D01*
X0095196Y0152800D01*
X0096666Y0153409D01*
X0097791Y0154534D01*
X0098260Y0155666D02*
X0115340Y0155666D01*
X0115200Y0157265D02*
X0098400Y0157265D01*
X0097875Y0158863D02*
X0115725Y0158863D01*
X0117587Y0160462D02*
X0096013Y0160462D01*
X0089981Y0164439D02*
X0089981Y0164600D01*
X0103619Y0164600D01*
X0103619Y0164439D01*
X0104439Y0163619D01*
X0109161Y0163619D01*
X0109981Y0164439D01*
X0109981Y0169161D01*
X0109161Y0169981D01*
X0104439Y0169981D01*
X0103619Y0169161D01*
X0103619Y0169000D01*
X0089981Y0169000D01*
X0089981Y0169161D01*
X0089161Y0169981D01*
X0084439Y0169981D01*
X0083619Y0169161D01*
X0083619Y0164439D01*
X0084439Y0163619D01*
X0089161Y0163619D01*
X0089981Y0164439D01*
X0089201Y0163659D02*
X0104399Y0163659D01*
X0106800Y0166800D02*
X0086800Y0166800D01*
X0083619Y0166856D02*
X0079000Y0166856D01*
X0079000Y0168454D02*
X0083619Y0168454D01*
X0083619Y0165257D02*
X0079000Y0165257D01*
X0079000Y0163659D02*
X0084399Y0163659D01*
X0087587Y0160462D02*
X0079000Y0160462D01*
X0079000Y0162060D02*
X0201850Y0162060D01*
X0201850Y0160462D02*
X0199361Y0160462D01*
X0198623Y0161200D02*
X0201200Y0158623D01*
X0201200Y0156800D01*
X0196800Y0156800D01*
X0196800Y0156800D01*
X0196800Y0161200D01*
X0198623Y0161200D01*
X0196800Y0161200D02*
X0194977Y0161200D01*
X0192400Y0158623D01*
X0192400Y0156800D01*
X0196800Y0156800D01*
X0196800Y0156800D01*
X0196800Y0156800D01*
X0196800Y0161200D01*
X0196800Y0160462D02*
X0196800Y0160462D01*
X0196800Y0158863D02*
X0196800Y0158863D01*
X0196800Y0157265D02*
X0196800Y0157265D01*
X0196800Y0156800D02*
X0192400Y0156800D01*
X0192400Y0154977D01*
X0194977Y0152400D01*
X0196800Y0152400D01*
X0198623Y0152400D01*
X0201200Y0154977D01*
X0201200Y0156800D01*
X0196800Y0156800D01*
X0196800Y0152400D01*
X0196800Y0156800D01*
X0196800Y0156800D01*
X0196800Y0155666D02*
X0196800Y0155666D01*
X0196800Y0154068D02*
X0196800Y0154068D01*
X0196800Y0152469D02*
X0196800Y0152469D01*
X0196158Y0150870D02*
X0149981Y0150870D01*
X0149981Y0152469D02*
X0194908Y0152469D01*
X0193310Y0154068D02*
X0149981Y0154068D01*
X0146800Y0151800D02*
X0146800Y0111800D01*
X0143619Y0112506D02*
X0140617Y0112506D01*
X0139019Y0110908D02*
X0143619Y0110908D01*
X0143749Y0109309D02*
X0137420Y0109309D01*
X0135822Y0107711D02*
X0164599Y0107711D01*
X0163001Y0106112D02*
X0134223Y0106112D01*
X0131800Y0106800D02*
X0121800Y0106800D01*
X0118126Y0102915D02*
X0095474Y0102915D01*
X0097771Y0104514D02*
X0115829Y0104514D01*
X0115200Y0106112D02*
X0098400Y0106112D01*
X0098352Y0107711D02*
X0115248Y0107711D01*
X0116052Y0109309D02*
X0097548Y0109309D01*
X0097362Y0114105D02*
X0116238Y0114105D01*
X0115325Y0115703D02*
X0098275Y0115703D01*
X0098400Y0117302D02*
X0115200Y0117302D01*
X0115740Y0118900D02*
X0097860Y0118900D01*
X0095923Y0120499D02*
X0117677Y0120499D01*
X0116647Y0123696D02*
X0096953Y0123696D01*
X0098106Y0125294D02*
X0115494Y0125294D01*
X0115200Y0126893D02*
X0098400Y0126893D01*
X0098029Y0128491D02*
X0115571Y0128491D01*
X0116833Y0130090D02*
X0096767Y0130090D01*
X0096371Y0133287D02*
X0117229Y0133287D01*
X0116934Y0133409D02*
X0118404Y0132800D01*
X0125196Y0132800D01*
X0126666Y0133409D01*
X0127791Y0134534D01*
X0128400Y0136004D01*
X0128400Y0137596D01*
X0127791Y0139066D01*
X0126666Y0140191D01*
X0125196Y0140800D01*
X0118404Y0140800D01*
X0116934Y0140191D01*
X0115809Y0139066D01*
X0115200Y0137596D01*
X0115200Y0136004D01*
X0115809Y0134534D01*
X0116934Y0133409D01*
X0115663Y0134885D02*
X0097936Y0134885D01*
X0098400Y0136484D02*
X0115200Y0136484D01*
X0115402Y0138082D02*
X0098198Y0138082D01*
X0097176Y0139681D02*
X0116424Y0139681D01*
X0117511Y0142722D02*
X0116894Y0143037D01*
X0116334Y0143444D01*
X0115844Y0143934D01*
X0115437Y0144494D01*
X0115122Y0145111D01*
X0114908Y0145770D01*
X0114800Y0146454D01*
X0114800Y0146800D01*
X0121800Y0146800D01*
X0121800Y0142400D01*
X0118854Y0142400D01*
X0118170Y0142508D01*
X0117511Y0142722D01*
X0117206Y0142878D02*
X0095384Y0142878D01*
X0097733Y0144476D02*
X0115449Y0144476D01*
X0114860Y0146075D02*
X0098400Y0146075D01*
X0098368Y0147673D02*
X0114884Y0147673D01*
X0115557Y0149272D02*
X0097585Y0149272D01*
X0086276Y0154068D02*
X0079000Y0154068D01*
X0079000Y0155666D02*
X0085340Y0155666D01*
X0085200Y0157265D02*
X0079000Y0157265D01*
X0079000Y0158863D02*
X0085725Y0158863D01*
X0079000Y0152469D02*
X0143619Y0152469D01*
X0143619Y0150870D02*
X0126103Y0150870D01*
X0128043Y0149272D02*
X0143786Y0149272D01*
X0144600Y0147673D02*
X0128716Y0147673D01*
X0128740Y0146075D02*
X0144600Y0146075D01*
X0149000Y0146075D02*
X0194200Y0146075D01*
X0194200Y0147673D02*
X0149000Y0147673D01*
X0149814Y0149272D02*
X0194804Y0149272D01*
X0194742Y0144476D02*
X0149000Y0144476D01*
X0149000Y0142878D02*
X0196010Y0142878D01*
X0196787Y0141279D02*
X0149000Y0141279D01*
X0149000Y0139681D02*
X0194973Y0139681D01*
X0194311Y0138082D02*
X0149000Y0138082D01*
X0149000Y0136484D02*
X0194200Y0136484D01*
X0194573Y0134885D02*
X0149000Y0134885D01*
X0149000Y0133287D02*
X0195601Y0133287D01*
X0197775Y0131688D02*
X0149000Y0131688D01*
X0149000Y0130090D02*
X0195377Y0130090D01*
X0194480Y0128491D02*
X0149000Y0128491D01*
X0149000Y0126893D02*
X0194200Y0126893D01*
X0194403Y0125294D02*
X0149000Y0125294D01*
X0149000Y0123696D02*
X0195192Y0123696D01*
X0197326Y0122097D02*
X0149000Y0122097D01*
X0149000Y0120499D02*
X0195786Y0120499D01*
X0199300Y0116800D02*
X0176800Y0116800D01*
X0141800Y0081800D01*
X0141800Y0066800D01*
X0131800Y0056800D01*
X0121800Y0056800D01*
X0126551Y0053361D02*
X0135250Y0053361D01*
X0133652Y0051763D02*
X0008600Y0051763D01*
X0008600Y0053361D02*
X0087049Y0053361D01*
X0085633Y0054960D02*
X0008600Y0054960D01*
X0008600Y0056558D02*
X0085200Y0056558D01*
X0088404Y0050800D02*
X0086934Y0050191D01*
X0085809Y0049066D01*
X0085782Y0049000D01*
X0024981Y0049000D01*
X0024981Y0049161D01*
X0024161Y0049981D01*
X0019439Y0049981D01*
X0018619Y0049161D01*
X0018619Y0044439D01*
X0019439Y0043619D01*
X0024161Y0043619D01*
X0024981Y0044439D01*
X0024981Y0044600D01*
X0085782Y0044600D01*
X0085809Y0044534D01*
X0086934Y0043409D01*
X0088404Y0042800D01*
X0095196Y0042800D01*
X0096666Y0043409D01*
X0097791Y0044534D01*
X0098400Y0046004D01*
X0098400Y0047596D01*
X0097791Y0049066D01*
X0096666Y0050191D01*
X0095196Y0050800D01*
X0088404Y0050800D01*
X0086907Y0050164D02*
X0008600Y0050164D01*
X0008600Y0048566D02*
X0018619Y0048566D01*
X0018619Y0046967D02*
X0008600Y0046967D01*
X0008600Y0045369D02*
X0018619Y0045369D01*
X0019288Y0043770D02*
X0008600Y0043770D01*
X0008600Y0042172D02*
X0134060Y0042172D01*
X0132462Y0040573D02*
X0125743Y0040573D01*
X0121800Y0036800D02*
X0131800Y0036800D01*
X0171800Y0076800D01*
X0171800Y0091800D01*
X0176800Y0096800D01*
X0199300Y0096800D01*
X0195563Y0093324D02*
X0176435Y0093324D01*
X0174837Y0091726D02*
X0197864Y0091726D01*
X0195415Y0090127D02*
X0174000Y0090127D01*
X0174000Y0088529D02*
X0185417Y0088529D01*
X0186800Y0086800D02*
X0199300Y0086800D01*
X0197237Y0082134D02*
X0185246Y0082134D01*
X0184000Y0080536D02*
X0195258Y0080536D01*
X0194216Y0078937D02*
X0184000Y0078937D01*
X0184000Y0077339D02*
X0193817Y0077339D01*
X0193800Y0076600D02*
X0193800Y0076367D01*
X0193935Y0075512D01*
X0194203Y0074689D01*
X0194596Y0073917D01*
X0195105Y0073217D01*
X0195717Y0072605D01*
X0196417Y0072096D01*
X0197189Y0071703D01*
X0198012Y0071435D01*
X0198867Y0071300D01*
X0199100Y0071300D01*
X0199100Y0076600D01*
X0193800Y0076600D01*
X0193899Y0075740D02*
X0183852Y0075740D01*
X0182253Y0074142D02*
X0194482Y0074142D01*
X0195802Y0072543D02*
X0180655Y0072543D01*
X0179056Y0070945D02*
X0201850Y0070945D01*
X0201850Y0069346D02*
X0177458Y0069346D01*
X0175859Y0067748D02*
X0201850Y0067748D01*
X0201850Y0066149D02*
X0174261Y0066149D01*
X0172662Y0064551D02*
X0201850Y0064551D01*
X0201850Y0062952D02*
X0171064Y0062952D01*
X0169465Y0061354D02*
X0201850Y0061354D01*
X0201850Y0059755D02*
X0167867Y0059755D01*
X0166268Y0058157D02*
X0201850Y0058157D01*
X0201850Y0056558D02*
X0164670Y0056558D01*
X0163071Y0054960D02*
X0201850Y0054960D01*
X0201850Y0053361D02*
X0161473Y0053361D01*
X0159874Y0051763D02*
X0201850Y0051763D01*
X0201850Y0050164D02*
X0158276Y0050164D01*
X0156677Y0048566D02*
X0160454Y0048566D01*
X0160889Y0049000D02*
X0159600Y0047711D01*
X0146870Y0034981D01*
X0144439Y0034981D01*
X0143619Y0034161D01*
X0143619Y0029439D01*
X0144439Y0028619D01*
X0149161Y0028619D01*
X0149981Y0029439D01*
X0149981Y0031870D01*
X0162711Y0044600D01*
X0180889Y0044600D01*
X0184600Y0040889D01*
X0184600Y0040270D01*
X0184548Y0040248D01*
X0183650Y0039350D01*
X0182752Y0040248D01*
X0181291Y0040854D01*
X0179710Y0040854D01*
X0178249Y0040248D01*
X0177131Y0039130D01*
X0176526Y0037669D01*
X0176526Y0036088D01*
X0177131Y0034627D01*
X0178249Y0033509D01*
X0179676Y0032918D01*
X0179676Y0031364D01*
X0180281Y0029903D01*
X0181399Y0028785D01*
X0182860Y0028180D01*
X0184441Y0028180D01*
X0185902Y0028785D01*
X0186800Y0029683D01*
X0187698Y0028785D01*
X0189159Y0028180D01*
X0190740Y0028180D01*
X0192201Y0028785D01*
X0193319Y0029903D01*
X0193924Y0031364D01*
X0193924Y0032580D01*
X0194124Y0032612D01*
X0194779Y0032824D01*
X0195392Y0033137D01*
X0195949Y0033542D01*
X0196436Y0034029D01*
X0196841Y0034586D01*
X0197153Y0035199D01*
X0197366Y0035854D01*
X0197474Y0036534D01*
X0197474Y0036879D01*
X0197474Y0037223D01*
X0197366Y0037903D01*
X0197153Y0038558D01*
X0196841Y0039172D01*
X0196436Y0039729D01*
X0195949Y0040216D01*
X0195392Y0040620D01*
X0194779Y0040933D01*
X0194124Y0041146D01*
X0193444Y0041254D01*
X0193099Y0041254D01*
X0192755Y0041254D01*
X0192075Y0041146D01*
X0191420Y0040933D01*
X0190806Y0040620D01*
X0190249Y0040216D01*
X0189762Y0039729D01*
X0189682Y0039618D01*
X0189052Y0040248D01*
X0189000Y0040270D01*
X0189000Y0042711D01*
X0187711Y0044000D01*
X0182711Y0049000D01*
X0160889Y0049000D01*
X0161800Y0046800D02*
X0181800Y0046800D01*
X0186800Y0041800D01*
X0186800Y0036879D01*
X0189000Y0040573D02*
X0190741Y0040573D01*
X0193099Y0040573D02*
X0193099Y0040573D01*
X0193099Y0041254D02*
X0193099Y0036879D01*
X0193099Y0041254D01*
X0193099Y0038975D02*
X0193099Y0038975D01*
X0193099Y0037376D02*
X0193099Y0037376D01*
X0193099Y0036879D02*
X0193099Y0036879D01*
X0197474Y0036879D01*
X0193099Y0036879D01*
X0193099Y0036879D01*
X0195457Y0040573D02*
X0201850Y0040573D01*
X0201850Y0038975D02*
X0196941Y0038975D01*
X0197450Y0037376D02*
X0201850Y0037376D01*
X0201850Y0035778D02*
X0197341Y0035778D01*
X0196545Y0034179D02*
X0201850Y0034179D01*
X0201850Y0032581D02*
X0193928Y0032581D01*
X0193766Y0030982D02*
X0201850Y0030982D01*
X0201850Y0029384D02*
X0192800Y0029384D01*
X0187099Y0029384D02*
X0186501Y0029384D01*
X0180800Y0029384D02*
X0149926Y0029384D01*
X0149981Y0030982D02*
X0179834Y0030982D01*
X0179676Y0032581D02*
X0150692Y0032581D01*
X0152290Y0034179D02*
X0177579Y0034179D01*
X0176655Y0035778D02*
X0153889Y0035778D01*
X0155487Y0037376D02*
X0176526Y0037376D01*
X0177067Y0038975D02*
X0157086Y0038975D01*
X0158684Y0040573D02*
X0179033Y0040573D01*
X0181968Y0040573D02*
X0184600Y0040573D01*
X0183317Y0042172D02*
X0160283Y0042172D01*
X0161881Y0043770D02*
X0181718Y0043770D01*
X0184744Y0046967D02*
X0201850Y0046967D01*
X0201850Y0045369D02*
X0186343Y0045369D01*
X0187941Y0043770D02*
X0201850Y0043770D01*
X0201850Y0042172D02*
X0189000Y0042172D01*
X0183145Y0048566D02*
X0201850Y0048566D01*
X0201850Y0027785D02*
X0135896Y0027785D01*
X0134298Y0026187D02*
X0201850Y0026187D01*
X0201850Y0024588D02*
X0127813Y0024588D01*
X0125653Y0022990D02*
X0169054Y0022990D01*
X0167107Y0021391D02*
X0046200Y0021391D01*
X0046200Y0022990D02*
X0064388Y0022990D01*
X0062789Y0024588D02*
X0045234Y0024588D01*
X0046015Y0019793D02*
X0166082Y0019793D01*
X0165420Y0018194D02*
X0165420Y0015406D01*
X0165589Y0014997D02*
X0008600Y0014997D01*
X0008600Y0029384D02*
X0063161Y0029384D01*
X0064760Y0030982D02*
X0008600Y0030982D01*
X0008600Y0032581D02*
X0134469Y0032581D01*
X0132871Y0030982D02*
X0068840Y0030982D01*
X0068457Y0032800D02*
X0070800Y0035143D01*
X0070800Y0038457D01*
X0068457Y0040800D01*
X0065143Y0040800D01*
X0062800Y0038457D01*
X0062800Y0035143D01*
X0065143Y0032800D01*
X0068457Y0032800D01*
X0069836Y0034179D02*
X0086164Y0034179D01*
X0085809Y0034534D02*
X0086934Y0033409D01*
X0088404Y0032800D01*
X0095196Y0032800D01*
X0096666Y0033409D01*
X0097791Y0034534D01*
X0098400Y0036004D01*
X0098400Y0037596D01*
X0097791Y0039066D01*
X0096666Y0040191D01*
X0095196Y0040800D01*
X0088404Y0040800D01*
X0086934Y0040191D01*
X0085809Y0039066D01*
X0085200Y0037596D01*
X0085200Y0036004D01*
X0085809Y0034534D01*
X0085294Y0035778D02*
X0070800Y0035778D01*
X0070800Y0037376D02*
X0085200Y0037376D01*
X0085771Y0038975D02*
X0070282Y0038975D01*
X0068684Y0040573D02*
X0087857Y0040573D01*
X0086573Y0043770D02*
X0024312Y0043770D01*
X0021800Y0046800D02*
X0091800Y0046800D01*
X0096693Y0050164D02*
X0116907Y0050164D01*
X0115602Y0048566D02*
X0097998Y0048566D01*
X0098400Y0046967D02*
X0115200Y0046967D01*
X0115463Y0045369D02*
X0098137Y0045369D01*
X0097027Y0043770D02*
X0116573Y0043770D01*
X0117857Y0040573D02*
X0095743Y0040573D01*
X0097829Y0038975D02*
X0115771Y0038975D01*
X0115200Y0037376D02*
X0098400Y0037376D01*
X0098306Y0035778D02*
X0115294Y0035778D01*
X0116164Y0034179D02*
X0097436Y0034179D01*
X0095196Y0030800D02*
X0096666Y0030191D01*
X0097791Y0029066D01*
X0098400Y0027596D01*
X0098400Y0026004D01*
X0097791Y0024534D01*
X0096666Y0023409D01*
X0095196Y0022800D01*
X0088404Y0022800D01*
X0086934Y0023409D01*
X0085809Y0024534D01*
X0085200Y0026004D01*
X0085200Y0027596D01*
X0085809Y0029066D01*
X0086934Y0030191D01*
X0088404Y0030800D01*
X0095196Y0030800D01*
X0097473Y0029384D02*
X0116127Y0029384D01*
X0115278Y0027785D02*
X0098322Y0027785D01*
X0098400Y0026187D02*
X0115200Y0026187D01*
X0115787Y0024588D02*
X0097813Y0024588D01*
X0095653Y0022990D02*
X0117947Y0022990D01*
X0121800Y0026800D02*
X0131800Y0026800D01*
X0181800Y0076800D01*
X0181800Y0081800D01*
X0186800Y0086800D01*
X0183819Y0086930D02*
X0174000Y0086930D01*
X0174000Y0085332D02*
X0182220Y0085332D01*
X0180622Y0083733D02*
X0174000Y0083733D01*
X0174000Y0082134D02*
X0179600Y0082134D01*
X0179600Y0080536D02*
X0174000Y0080536D01*
X0174000Y0078937D02*
X0179600Y0078937D01*
X0179228Y0077339D02*
X0174000Y0077339D01*
X0173852Y0075740D02*
X0177629Y0075740D01*
X0176031Y0074142D02*
X0172253Y0074142D01*
X0170655Y0072543D02*
X0174432Y0072543D01*
X0172834Y0070945D02*
X0169056Y0070945D01*
X0167458Y0069346D02*
X0171235Y0069346D01*
X0169637Y0067748D02*
X0165859Y0067748D01*
X0164261Y0066149D02*
X0168038Y0066149D01*
X0166440Y0064551D02*
X0162662Y0064551D01*
X0161064Y0062952D02*
X0164841Y0062952D01*
X0163243Y0061354D02*
X0159465Y0061354D01*
X0157867Y0059755D02*
X0161644Y0059755D01*
X0160046Y0058157D02*
X0156268Y0058157D01*
X0154670Y0056558D02*
X0158447Y0056558D01*
X0156849Y0054960D02*
X0153071Y0054960D01*
X0151473Y0053361D02*
X0155250Y0053361D01*
X0153652Y0051763D02*
X0149874Y0051763D01*
X0148276Y0050164D02*
X0152053Y0050164D01*
X0150454Y0048566D02*
X0146677Y0048566D01*
X0145079Y0046967D02*
X0148856Y0046967D01*
X0147257Y0045369D02*
X0143480Y0045369D01*
X0141881Y0043770D02*
X0145659Y0043770D01*
X0144060Y0042172D02*
X0140283Y0042172D01*
X0138684Y0040573D02*
X0142462Y0040573D01*
X0140863Y0038975D02*
X0137086Y0038975D01*
X0135487Y0037376D02*
X0139265Y0037376D01*
X0137666Y0035778D02*
X0133889Y0035778D01*
X0136068Y0034179D02*
X0127436Y0034179D01*
X0127473Y0029384D02*
X0131272Y0029384D01*
X0137495Y0029384D02*
X0143674Y0029384D01*
X0143619Y0030982D02*
X0139093Y0030982D01*
X0140692Y0032581D02*
X0143619Y0032581D01*
X0143637Y0034179D02*
X0142290Y0034179D01*
X0143889Y0035778D02*
X0147666Y0035778D01*
X0149265Y0037376D02*
X0145487Y0037376D01*
X0147086Y0038975D02*
X0150863Y0038975D01*
X0152462Y0040573D02*
X0148684Y0040573D01*
X0150283Y0042172D02*
X0154060Y0042172D01*
X0155659Y0043770D02*
X0151881Y0043770D01*
X0153480Y0045369D02*
X0157257Y0045369D01*
X0158856Y0046967D02*
X0155079Y0046967D01*
X0161800Y0046800D02*
X0146800Y0031800D01*
X0135659Y0043770D02*
X0127027Y0043770D01*
X0131800Y0046800D02*
X0121800Y0046800D01*
X0126693Y0050164D02*
X0132053Y0050164D01*
X0131800Y0046800D02*
X0161800Y0076800D01*
X0161800Y0091800D01*
X0176800Y0106800D01*
X0199300Y0106800D01*
X0194727Y0104514D02*
X0177625Y0104514D01*
X0176026Y0102915D02*
X0195972Y0102915D01*
X0196877Y0101317D02*
X0174428Y0101317D01*
X0172829Y0099718D02*
X0195006Y0099718D01*
X0194819Y0109309D02*
X0172420Y0109309D01*
X0170822Y0107711D02*
X0174599Y0107711D01*
X0173001Y0106112D02*
X0169223Y0106112D01*
X0167625Y0104514D02*
X0171402Y0104514D01*
X0169804Y0102915D02*
X0166026Y0102915D01*
X0164428Y0101317D02*
X0168205Y0101317D01*
X0166607Y0099718D02*
X0162829Y0099718D01*
X0161231Y0098120D02*
X0165008Y0098120D01*
X0163410Y0096521D02*
X0159632Y0096521D01*
X0158034Y0094923D02*
X0161811Y0094923D01*
X0160213Y0093324D02*
X0156435Y0093324D01*
X0154837Y0091726D02*
X0159600Y0091726D01*
X0159600Y0090127D02*
X0153238Y0090127D01*
X0151640Y0088529D02*
X0159600Y0088529D01*
X0159600Y0086930D02*
X0150041Y0086930D01*
X0148443Y0085332D02*
X0159600Y0085332D01*
X0159600Y0083733D02*
X0146844Y0083733D01*
X0145246Y0082134D02*
X0159600Y0082134D01*
X0159600Y0080536D02*
X0149287Y0080536D01*
X0150885Y0078937D02*
X0159600Y0078937D01*
X0159228Y0077339D02*
X0151200Y0077339D01*
X0151200Y0075740D02*
X0157629Y0075740D01*
X0156031Y0074142D02*
X0150364Y0074142D01*
X0148766Y0072543D02*
X0154432Y0072543D01*
X0152834Y0070945D02*
X0144000Y0070945D01*
X0144000Y0072543D02*
X0144834Y0072543D01*
X0146800Y0072543D02*
X0146800Y0072543D01*
X0146800Y0072400D02*
X0146800Y0076800D01*
X0146800Y0076800D01*
X0146800Y0072400D01*
X0146800Y0074142D02*
X0146800Y0074142D01*
X0146800Y0075740D02*
X0146800Y0075740D01*
X0146800Y0077339D02*
X0146800Y0077339D01*
X0146800Y0078937D02*
X0146800Y0078937D01*
X0146800Y0080536D02*
X0146800Y0080536D01*
X0144313Y0080536D02*
X0144000Y0080536D01*
X0140622Y0083733D02*
X0126990Y0083733D01*
X0126666Y0083409D02*
X0127791Y0084534D01*
X0128400Y0086004D01*
X0128400Y0087596D01*
X0127791Y0089066D01*
X0126666Y0090191D01*
X0125196Y0090800D01*
X0118404Y0090800D01*
X0116934Y0090191D01*
X0115809Y0089066D01*
X0115200Y0087596D01*
X0115200Y0086004D01*
X0115809Y0084534D01*
X0116934Y0083409D01*
X0118404Y0082800D01*
X0125196Y0082800D01*
X0126666Y0083409D01*
X0128121Y0085332D02*
X0142220Y0085332D01*
X0143819Y0086930D02*
X0128400Y0086930D01*
X0128014Y0088529D02*
X0145417Y0088529D01*
X0147016Y0090127D02*
X0126730Y0090127D01*
X0116870Y0090127D02*
X0097295Y0090127D01*
X0098457Y0088529D02*
X0115586Y0088529D01*
X0115200Y0086930D02*
X0098800Y0086930D01*
X0098549Y0085332D02*
X0115479Y0085332D01*
X0116610Y0083733D02*
X0097556Y0083733D01*
X0095833Y0080536D02*
X0117767Y0080536D01*
X0115756Y0078937D02*
X0097844Y0078937D01*
X0098400Y0077339D02*
X0115200Y0077339D01*
X0115309Y0075740D02*
X0098291Y0075740D01*
X0097399Y0074142D02*
X0116201Y0074142D01*
X0117511Y0070878D02*
X0116894Y0070563D01*
X0116334Y0070156D01*
X0115844Y0069666D01*
X0115437Y0069106D01*
X0115122Y0068489D01*
X0114908Y0067830D01*
X0114800Y0067146D01*
X0114800Y0066800D01*
X0121800Y0066800D01*
X0121800Y0066800D01*
X0121800Y0062400D01*
X0124746Y0062400D01*
X0125430Y0062508D01*
X0126089Y0062722D01*
X0126706Y0063037D01*
X0127266Y0063444D01*
X0127756Y0063934D01*
X0128163Y0064494D01*
X0128478Y0065111D01*
X0128692Y0065770D01*
X0128800Y0066454D01*
X0128800Y0066800D01*
X0121800Y0066800D01*
X0121800Y0066800D01*
X0121800Y0066800D01*
X0121800Y0071200D01*
X0118854Y0071200D01*
X0118170Y0071092D01*
X0117511Y0070878D01*
X0117718Y0070945D02*
X0075878Y0070945D01*
X0073478Y0075740D02*
X0085309Y0075740D01*
X0085200Y0077339D02*
X0017283Y0077339D01*
X0016884Y0078937D02*
X0068820Y0078937D01*
X0068027Y0080536D02*
X0015842Y0080536D01*
X0013863Y0082134D02*
X0068056Y0082134D01*
X0074780Y0078937D02*
X0085756Y0078937D01*
X0091800Y0083733D02*
X0091800Y0083733D01*
X0091800Y0085332D02*
X0091800Y0085332D01*
X0091800Y0086930D02*
X0091800Y0086930D01*
X0091800Y0088529D02*
X0091800Y0088529D01*
X0091800Y0090127D02*
X0091800Y0090127D01*
X0096461Y0093324D02*
X0117139Y0093324D01*
X0115648Y0094923D02*
X0097952Y0094923D01*
X0098400Y0096521D02*
X0115200Y0096521D01*
X0115417Y0098120D02*
X0098183Y0098120D01*
X0097139Y0099718D02*
X0116461Y0099718D01*
X0127771Y0104514D02*
X0161402Y0104514D01*
X0166198Y0109309D02*
X0149851Y0109309D01*
X0149981Y0110908D02*
X0167796Y0110908D01*
X0169395Y0112506D02*
X0149981Y0112506D01*
X0149981Y0114105D02*
X0170993Y0114105D01*
X0172592Y0115703D02*
X0149000Y0115703D01*
X0149000Y0117302D02*
X0174190Y0117302D01*
X0175789Y0118900D02*
X0149000Y0118900D01*
X0144600Y0118900D02*
X0144000Y0118900D01*
X0144000Y0117302D02*
X0144600Y0117302D01*
X0144600Y0115703D02*
X0143815Y0115703D01*
X0143619Y0114105D02*
X0142216Y0114105D01*
X0141800Y0116800D02*
X0131800Y0106800D01*
X0128275Y0115703D02*
X0137592Y0115703D01*
X0139190Y0117302D02*
X0128400Y0117302D01*
X0127860Y0118900D02*
X0139600Y0118900D01*
X0141800Y0116800D02*
X0141800Y0141800D01*
X0138820Y0144476D02*
X0128151Y0144476D01*
X0126394Y0142878D02*
X0137800Y0142878D01*
X0137800Y0141279D02*
X0079000Y0141279D01*
X0074600Y0141279D02*
X0069000Y0141279D01*
X0069000Y0139681D02*
X0074600Y0139681D01*
X0074600Y0138082D02*
X0069000Y0138082D01*
X0069000Y0136484D02*
X0074600Y0136484D01*
X0074600Y0134885D02*
X0069000Y0134885D01*
X0069000Y0133287D02*
X0074600Y0133287D01*
X0074600Y0131688D02*
X0070023Y0131688D01*
X0071621Y0130090D02*
X0075399Y0130090D01*
X0076800Y0131800D02*
X0081800Y0126800D01*
X0091800Y0126800D01*
X0086833Y0130090D02*
X0081621Y0130090D01*
X0078596Y0126893D02*
X0074818Y0126893D01*
X0073220Y0128491D02*
X0076997Y0128491D01*
X0076800Y0131800D02*
X0076800Y0176800D01*
X0073138Y0173250D02*
X0070462Y0173250D01*
X0071512Y0174848D02*
X0072088Y0174848D01*
X0074600Y0171651D02*
X0069000Y0171651D01*
X0069000Y0170053D02*
X0074600Y0170053D01*
X0074600Y0168454D02*
X0069000Y0168454D01*
X0069000Y0166856D02*
X0074600Y0166856D01*
X0074600Y0165257D02*
X0069000Y0165257D01*
X0069000Y0163659D02*
X0074600Y0163659D01*
X0074600Y0162060D02*
X0069000Y0162060D01*
X0069000Y0160462D02*
X0074600Y0160462D01*
X0074600Y0158863D02*
X0069000Y0158863D01*
X0069000Y0157265D02*
X0074600Y0157265D01*
X0074600Y0155666D02*
X0069000Y0155666D01*
X0069000Y0154068D02*
X0074600Y0154068D01*
X0074600Y0152469D02*
X0069000Y0152469D01*
X0069000Y0150870D02*
X0074600Y0150870D01*
X0074600Y0149272D02*
X0069000Y0149272D01*
X0069000Y0147673D02*
X0074600Y0147673D01*
X0074600Y0146075D02*
X0069000Y0146075D01*
X0069000Y0144476D02*
X0074600Y0144476D01*
X0074600Y0142878D02*
X0069000Y0142878D01*
X0064600Y0142878D02*
X0029000Y0142878D01*
X0029000Y0144476D02*
X0064600Y0144476D01*
X0064600Y0146075D02*
X0029000Y0146075D01*
X0029000Y0147673D02*
X0064600Y0147673D01*
X0064600Y0149272D02*
X0029814Y0149272D01*
X0029981Y0150870D02*
X0064600Y0150870D01*
X0064600Y0152469D02*
X0029981Y0152469D01*
X0029981Y0154068D02*
X0064600Y0154068D01*
X0064600Y0155666D02*
X0008600Y0155666D01*
X0008600Y0154068D02*
X0023619Y0154068D01*
X0023619Y0152469D02*
X0008600Y0152469D01*
X0008600Y0150870D02*
X0008658Y0150870D01*
X0014942Y0150870D02*
X0023619Y0150870D01*
X0023786Y0149272D02*
X0016296Y0149272D01*
X0016900Y0147673D02*
X0024600Y0147673D01*
X0024600Y0146075D02*
X0016900Y0146075D01*
X0016358Y0144476D02*
X0024600Y0144476D01*
X0024600Y0142878D02*
X0015090Y0142878D01*
X0014313Y0141279D02*
X0024600Y0141279D01*
X0024600Y0139681D02*
X0016127Y0139681D01*
X0016789Y0138082D02*
X0024600Y0138082D01*
X0024600Y0136484D02*
X0016900Y0136484D01*
X0016527Y0134885D02*
X0024600Y0134885D01*
X0024600Y0133287D02*
X0015499Y0133287D01*
X0013325Y0131688D02*
X0024600Y0131688D01*
X0024600Y0130090D02*
X0015723Y0130090D01*
X0016620Y0128491D02*
X0024600Y0128491D01*
X0024600Y0126893D02*
X0016900Y0126893D01*
X0016697Y0125294D02*
X0024600Y0125294D01*
X0024600Y0123696D02*
X0015908Y0123696D01*
X0013774Y0122097D02*
X0024600Y0122097D01*
X0024600Y0120499D02*
X0015314Y0120499D01*
X0016450Y0118900D02*
X0024600Y0118900D01*
X0024600Y0117302D02*
X0016900Y0117302D01*
X0016866Y0115703D02*
X0024600Y0115703D01*
X0024600Y0114105D02*
X0016204Y0114105D01*
X0014719Y0112506D02*
X0024395Y0112506D01*
X0022796Y0110908D02*
X0014905Y0110908D01*
X0016281Y0109309D02*
X0021198Y0109309D01*
X0021800Y0106800D02*
X0011800Y0106800D01*
X0021800Y0106800D02*
X0026800Y0111800D01*
X0026800Y0151800D01*
X0029000Y0141279D02*
X0064600Y0141279D01*
X0064600Y0139681D02*
X0029000Y0139681D01*
X0029000Y0138082D02*
X0064600Y0138082D01*
X0064600Y0136484D02*
X0029000Y0136484D01*
X0029000Y0134885D02*
X0064600Y0134885D01*
X0064600Y0133287D02*
X0029000Y0133287D01*
X0029000Y0131688D02*
X0064600Y0131688D01*
X0065399Y0130090D02*
X0029000Y0130090D01*
X0029000Y0128491D02*
X0066997Y0128491D01*
X0068596Y0126893D02*
X0029000Y0126893D01*
X0029000Y0125294D02*
X0070194Y0125294D01*
X0071793Y0123696D02*
X0029000Y0123696D01*
X0029000Y0122097D02*
X0073391Y0122097D01*
X0074990Y0120499D02*
X0029000Y0120499D01*
X0029000Y0118900D02*
X0076588Y0118900D01*
X0078187Y0117302D02*
X0029000Y0117302D01*
X0029000Y0115703D02*
X0079785Y0115703D01*
X0081800Y0116800D02*
X0066800Y0131800D01*
X0066800Y0176800D01*
X0062088Y0174848D02*
X0040241Y0174848D01*
X0040627Y0174462D02*
X0039305Y0175784D01*
X0037577Y0176500D01*
X0035708Y0176500D01*
X0033980Y0175784D01*
X0032658Y0174462D01*
X0031943Y0172735D01*
X0031943Y0170865D01*
X0032658Y0169138D01*
X0033980Y0167816D01*
X0035708Y0167100D01*
X0037577Y0167100D01*
X0039305Y0167816D01*
X0040627Y0169138D01*
X0041343Y0170865D01*
X0041343Y0172735D01*
X0040627Y0174462D01*
X0041129Y0173250D02*
X0063138Y0173250D01*
X0064600Y0171651D02*
X0041343Y0171651D01*
X0041006Y0170053D02*
X0064600Y0170053D01*
X0064600Y0168454D02*
X0039943Y0168454D01*
X0033342Y0168454D02*
X0020824Y0168454D01*
X0020848Y0168478D02*
X0021319Y0169127D01*
X0021684Y0169842D01*
X0021932Y0170606D01*
X0022057Y0171399D01*
X0022057Y0171616D01*
X0017142Y0171616D01*
X0017142Y0171984D01*
X0022057Y0171984D01*
X0022057Y0172201D01*
X0021932Y0172994D01*
X0021684Y0173758D01*
X0021319Y0174473D01*
X0020848Y0175122D01*
X0020280Y0175690D01*
X0019630Y0176162D01*
X0018915Y0176526D01*
X0018152Y0176774D01*
X0017359Y0176900D01*
X0017142Y0176900D01*
X0017142Y0171984D01*
X0016773Y0171984D01*
X0016773Y0171616D01*
X0011857Y0171616D01*
X0011857Y0171399D01*
X0011983Y0170606D01*
X0012231Y0169842D01*
X0012596Y0169127D01*
X0013067Y0168478D01*
X0013635Y0167910D01*
X0014284Y0167438D01*
X0015000Y0167074D01*
X0015763Y0166826D01*
X0016556Y0166700D01*
X0016773Y0166700D01*
X0016773Y0171616D01*
X0017142Y0171616D01*
X0017142Y0166700D01*
X0017359Y0166700D01*
X0018152Y0166826D01*
X0018915Y0167074D01*
X0019630Y0167438D01*
X0020280Y0167910D01*
X0020848Y0168478D01*
X0021752Y0170053D02*
X0032279Y0170053D01*
X0031943Y0171651D02*
X0017142Y0171651D01*
X0016773Y0171651D02*
X0008600Y0171651D01*
X0008600Y0170053D02*
X0012163Y0170053D01*
X0013091Y0168454D02*
X0008600Y0168454D01*
X0008600Y0166856D02*
X0015671Y0166856D01*
X0016773Y0166856D02*
X0017142Y0166856D01*
X0018244Y0166856D02*
X0064600Y0166856D01*
X0064600Y0165257D02*
X0008600Y0165257D01*
X0008600Y0163659D02*
X0064600Y0163659D01*
X0064600Y0162060D02*
X0008600Y0162060D01*
X0008600Y0160462D02*
X0064600Y0160462D01*
X0064600Y0158863D02*
X0008600Y0158863D01*
X0008600Y0157265D02*
X0064600Y0157265D01*
X0079000Y0170053D02*
X0153830Y0170053D01*
X0154977Y0171200D02*
X0152400Y0168623D01*
X0152400Y0166800D01*
X0156800Y0166800D01*
X0156800Y0166800D01*
X0156800Y0171200D01*
X0158623Y0171200D01*
X0161200Y0168623D01*
X0161200Y0166800D01*
X0156800Y0166800D01*
X0156800Y0166800D01*
X0156800Y0166800D01*
X0156800Y0171200D01*
X0154977Y0171200D01*
X0155143Y0172800D02*
X0158457Y0172800D01*
X0160800Y0175143D01*
X0160800Y0178457D01*
X0158457Y0180800D01*
X0155143Y0180800D01*
X0152800Y0178457D01*
X0152800Y0175143D01*
X0155143Y0172800D01*
X0154694Y0173250D02*
X0110462Y0173250D01*
X0106800Y0176800D02*
X0131800Y0176800D01*
X0136800Y0181800D01*
X0141800Y0181800D01*
X0144818Y0184439D02*
X0168782Y0184439D01*
X0167800Y0183457D02*
X0170143Y0185800D01*
X0173457Y0185800D01*
X0175800Y0183457D01*
X0175800Y0180143D01*
X0173457Y0177800D01*
X0170143Y0177800D01*
X0167800Y0180143D01*
X0167800Y0183457D01*
X0167800Y0182841D02*
X0145800Y0182841D01*
X0145800Y0181242D02*
X0167800Y0181242D01*
X0168299Y0179644D02*
X0159613Y0179644D01*
X0160800Y0178045D02*
X0169898Y0178045D01*
X0173702Y0178045D02*
X0179332Y0178045D01*
X0179977Y0177400D02*
X0177400Y0179977D01*
X0177400Y0181800D01*
X0181800Y0181800D01*
X0186200Y0181800D01*
X0186200Y0183623D01*
X0183623Y0186200D01*
X0181800Y0186200D01*
X0181800Y0181800D01*
X0181800Y0181800D01*
X0181800Y0181800D01*
X0186200Y0181800D01*
X0186200Y0179977D01*
X0183623Y0177400D01*
X0181800Y0177400D01*
X0181800Y0181800D01*
X0181800Y0181800D01*
X0181800Y0181800D01*
X0181800Y0186200D01*
X0179977Y0186200D01*
X0177400Y0183623D01*
X0177400Y0181800D01*
X0181800Y0181800D01*
X0181800Y0177400D01*
X0179977Y0177400D01*
X0181800Y0178045D02*
X0181800Y0178045D01*
X0181800Y0179644D02*
X0181800Y0179644D01*
X0181800Y0181242D02*
X0181800Y0181242D01*
X0181800Y0182841D02*
X0181800Y0182841D01*
X0181800Y0184439D02*
X0181800Y0184439D01*
X0181800Y0186038D02*
X0181800Y0186038D01*
X0183785Y0186038D02*
X0201850Y0186038D01*
X0201850Y0187636D02*
X0160793Y0187636D01*
X0160800Y0187643D02*
X0158457Y0185300D01*
X0155143Y0185300D01*
X0152800Y0187643D01*
X0152800Y0190957D01*
X0155143Y0193300D01*
X0158457Y0193300D01*
X0160800Y0190957D01*
X0160800Y0187643D01*
X0160800Y0189235D02*
X0201850Y0189235D01*
X0201850Y0190833D02*
X0160800Y0190833D01*
X0159977Y0192400D02*
X0161800Y0192400D01*
X0163623Y0192400D01*
X0166200Y0194977D01*
X0166200Y0196800D01*
X0166200Y0198623D01*
X0163623Y0201200D01*
X0161800Y0201200D01*
X0161800Y0196800D01*
X0166200Y0196800D01*
X0161800Y0196800D01*
X0161800Y0196800D01*
X0161800Y0196800D01*
X0161800Y0192400D01*
X0161800Y0196800D01*
X0161800Y0196800D01*
X0161800Y0196800D01*
X0157400Y0196800D01*
X0157400Y0198623D01*
X0159977Y0201200D01*
X0161800Y0201200D01*
X0161800Y0196800D01*
X0157400Y0196800D01*
X0157400Y0194977D01*
X0159977Y0192400D01*
X0159946Y0192432D02*
X0159325Y0192432D01*
X0158347Y0194030D02*
X0154687Y0194030D01*
X0155800Y0195143D02*
X0153457Y0192800D01*
X0150143Y0192800D01*
X0147800Y0195143D01*
X0147800Y0198457D01*
X0150143Y0200800D01*
X0153457Y0200800D01*
X0155800Y0198457D01*
X0155800Y0195143D01*
X0155800Y0195629D02*
X0157400Y0195629D01*
X0157400Y0197227D02*
X0155800Y0197227D01*
X0155431Y0198826D02*
X0157603Y0198826D01*
X0159202Y0200424D02*
X0153832Y0200424D01*
X0149767Y0200424D02*
X0133503Y0200424D01*
X0134066Y0200191D02*
X0132596Y0200800D01*
X0131004Y0200800D01*
X0129534Y0200191D01*
X0128409Y0199066D01*
X0127800Y0197596D01*
X0127800Y0196004D01*
X0128409Y0194534D01*
X0129534Y0193409D01*
X0131004Y0192800D01*
X0132596Y0192800D01*
X0134066Y0193409D01*
X0135191Y0194534D01*
X0135800Y0196004D01*
X0135800Y0197596D01*
X0135191Y0199066D01*
X0134066Y0200191D01*
X0135290Y0198826D02*
X0148169Y0198826D01*
X0147800Y0197227D02*
X0135800Y0197227D01*
X0135644Y0195629D02*
X0147800Y0195629D01*
X0148913Y0194030D02*
X0134687Y0194030D01*
X0133623Y0191200D02*
X0131800Y0191200D01*
X0131800Y0186800D01*
X0131800Y0186800D01*
X0136200Y0186800D01*
X0136200Y0188623D01*
X0133623Y0191200D01*
X0133989Y0190833D02*
X0152800Y0190833D01*
X0152800Y0189235D02*
X0135588Y0189235D01*
X0136200Y0187636D02*
X0152807Y0187636D01*
X0154405Y0186038D02*
X0136200Y0186038D01*
X0136200Y0186800D02*
X0131800Y0186800D01*
X0131800Y0186800D01*
X0131800Y0186800D01*
X0127400Y0186800D01*
X0127400Y0188623D01*
X0129977Y0191200D01*
X0131800Y0191200D01*
X0131800Y0186800D01*
X0131800Y0182400D01*
X0133623Y0182400D01*
X0136200Y0184977D01*
X0136200Y0186800D01*
X0135662Y0184439D02*
X0138782Y0184439D01*
X0134729Y0182841D02*
X0134063Y0182841D01*
X0133131Y0181242D02*
X0109402Y0181242D01*
X0111142Y0179644D02*
X0131532Y0179644D01*
X0131800Y0182400D02*
X0129977Y0182400D01*
X0127400Y0184977D01*
X0127400Y0186800D01*
X0131800Y0186800D01*
X0131800Y0186800D01*
X0131800Y0182400D01*
X0131800Y0182841D02*
X0131800Y0182841D01*
X0131800Y0184439D02*
X0131800Y0184439D01*
X0131800Y0186038D02*
X0131800Y0186038D01*
X0131800Y0187636D02*
X0131800Y0187636D01*
X0131800Y0189235D02*
X0131800Y0189235D01*
X0131800Y0190833D02*
X0131800Y0190833D01*
X0129611Y0190833D02*
X0088945Y0190833D01*
X0089000Y0190889D02*
X0089000Y0192711D01*
X0088507Y0193205D01*
X0089052Y0193430D01*
X0090170Y0194548D01*
X0090737Y0195918D01*
X0091304Y0194548D01*
X0092422Y0193430D01*
X0093883Y0192825D01*
X0095465Y0192825D01*
X0096926Y0193430D01*
X0098044Y0194548D01*
X0098219Y0194971D01*
X0098564Y0194138D01*
X0099886Y0192816D01*
X0101613Y0192100D01*
X0103483Y0192100D01*
X0105210Y0192816D01*
X0106532Y0194138D01*
X0107248Y0195865D01*
X0107248Y0197735D01*
X0106532Y0199462D01*
X0105210Y0200784D01*
X0103483Y0201500D01*
X0101613Y0201500D01*
X0099886Y0200784D01*
X0098564Y0199462D01*
X0098219Y0198629D01*
X0098044Y0199052D01*
X0096926Y0200170D01*
X0095465Y0200775D01*
X0093883Y0200775D01*
X0092422Y0200170D01*
X0091304Y0199052D01*
X0090737Y0197682D01*
X0090170Y0199052D01*
X0089052Y0200170D01*
X0087591Y0200775D01*
X0086009Y0200775D01*
X0084548Y0200170D01*
X0083430Y0199052D01*
X0082863Y0197682D01*
X0082296Y0199052D01*
X0081178Y0200170D01*
X0079717Y0200775D01*
X0078135Y0200775D01*
X0076674Y0200170D01*
X0075556Y0199052D01*
X0075381Y0198629D01*
X0075036Y0199462D01*
X0073714Y0200784D01*
X0071987Y0201500D01*
X0070117Y0201500D01*
X0068390Y0200784D01*
X0067067Y0199462D01*
X0066352Y0197735D01*
X0066352Y0195865D01*
X0067067Y0194138D01*
X0068390Y0192816D01*
X0070117Y0192100D01*
X0071987Y0192100D01*
X0073714Y0192816D01*
X0075036Y0194138D01*
X0075381Y0194971D01*
X0075556Y0194548D01*
X0076674Y0193430D01*
X0078135Y0192825D01*
X0079717Y0192825D01*
X0081178Y0193430D01*
X0082296Y0194548D01*
X0082863Y0195918D01*
X0083430Y0194548D01*
X0084548Y0193430D01*
X0085093Y0193205D01*
X0080889Y0189000D01*
X0060223Y0189000D01*
X0061200Y0189977D01*
X0061200Y0191800D01*
X0061200Y0193623D01*
X0058623Y0196200D01*
X0056800Y0196200D01*
X0056800Y0191800D01*
X0056800Y0191800D01*
X0061200Y0191800D01*
X0056800Y0191800D01*
X0056800Y0191800D01*
X0056800Y0191800D01*
X0052400Y0191800D01*
X0052400Y0193623D01*
X0054977Y0196200D01*
X0056800Y0196200D01*
X0056800Y0191800D01*
X0052400Y0191800D01*
X0052400Y0189981D01*
X0049439Y0189981D01*
X0048619Y0189161D01*
X0048619Y0184439D01*
X0049439Y0183619D01*
X0054161Y0183619D01*
X0054981Y0184439D01*
X0054981Y0184600D01*
X0082711Y0184600D01*
X0089000Y0190889D01*
X0089000Y0192432D02*
X0100812Y0192432D01*
X0098671Y0194030D02*
X0097526Y0194030D01*
X0098137Y0198826D02*
X0098300Y0198826D01*
X0099526Y0200424D02*
X0096311Y0200424D01*
X0093037Y0200424D02*
X0088437Y0200424D01*
X0090263Y0198826D02*
X0091211Y0198826D01*
X0090857Y0195629D02*
X0090617Y0195629D01*
X0089652Y0194030D02*
X0091823Y0194030D01*
X0086800Y0191800D02*
X0081800Y0186800D01*
X0051800Y0186800D01*
X0054981Y0184439D02*
X0127938Y0184439D01*
X0127400Y0186038D02*
X0084149Y0186038D01*
X0085748Y0187636D02*
X0127400Y0187636D01*
X0128012Y0189235D02*
X0087346Y0189235D01*
X0084321Y0192432D02*
X0072788Y0192432D01*
X0074929Y0194030D02*
X0076074Y0194030D01*
X0081123Y0189235D02*
X0060457Y0189235D01*
X0061200Y0190833D02*
X0082722Y0190833D01*
X0081777Y0194030D02*
X0083948Y0194030D01*
X0082983Y0195629D02*
X0082743Y0195629D01*
X0082389Y0198826D02*
X0083337Y0198826D01*
X0085163Y0200424D02*
X0080563Y0200424D01*
X0077289Y0200424D02*
X0074074Y0200424D01*
X0075300Y0198826D02*
X0075463Y0198826D01*
X0069316Y0192432D02*
X0061200Y0192432D01*
X0060792Y0194030D02*
X0067175Y0194030D01*
X0066450Y0195629D02*
X0059194Y0195629D01*
X0056800Y0195629D02*
X0056800Y0195629D01*
X0056800Y0194030D02*
X0056800Y0194030D01*
X0056800Y0192432D02*
X0056800Y0192432D01*
X0054406Y0195629D02*
X0018628Y0195629D01*
X0018457Y0195800D02*
X0015143Y0195800D01*
X0012800Y0193457D01*
X0012800Y0190143D01*
X0015143Y0187800D01*
X0018457Y0187800D01*
X0020800Y0190143D01*
X0020800Y0193457D01*
X0018457Y0195800D01*
X0017892Y0197100D02*
X0016023Y0197100D01*
X0014295Y0197816D01*
X0012973Y0199138D01*
X0012257Y0200865D01*
X0012257Y0202735D01*
X0012973Y0204462D01*
X0014295Y0205784D01*
X0016023Y0206500D01*
X0017892Y0206500D01*
X0019620Y0205784D01*
X0020942Y0204462D01*
X0021657Y0202735D01*
X0021657Y0200865D01*
X0020942Y0199138D01*
X0019620Y0197816D01*
X0017892Y0197100D01*
X0018200Y0197227D02*
X0034383Y0197227D01*
X0036458Y0197227D02*
X0036827Y0197227D01*
X0036827Y0196700D02*
X0037044Y0196700D01*
X0037837Y0196826D01*
X0038600Y0197074D01*
X0039316Y0197438D01*
X0039965Y0197910D01*
X0040533Y0198478D01*
X0041004Y0199127D01*
X0041369Y0199842D01*
X0041617Y0200606D01*
X0041743Y0201399D01*
X0041742Y0201616D01*
X0036827Y0201616D01*
X0036827Y0196700D01*
X0036827Y0198826D02*
X0036458Y0198826D01*
X0036458Y0200424D02*
X0036827Y0200424D01*
X0038902Y0197227D02*
X0066352Y0197227D01*
X0066804Y0198826D02*
X0040786Y0198826D01*
X0041558Y0200424D02*
X0068030Y0200424D01*
X0052808Y0194030D02*
X0020227Y0194030D01*
X0020800Y0192432D02*
X0052400Y0192432D01*
X0052400Y0190833D02*
X0020800Y0190833D01*
X0019892Y0189235D02*
X0048693Y0189235D01*
X0048619Y0187636D02*
X0008600Y0187636D01*
X0008600Y0186038D02*
X0048619Y0186038D01*
X0048619Y0184439D02*
X0008600Y0184439D01*
X0008600Y0182841D02*
X0129537Y0182841D01*
X0134558Y0176447D02*
X0152800Y0176447D01*
X0152800Y0178045D02*
X0143702Y0178045D01*
X0145301Y0179644D02*
X0153987Y0179644D01*
X0153095Y0174848D02*
X0132959Y0174848D01*
X0136156Y0178045D02*
X0139898Y0178045D01*
X0152400Y0168454D02*
X0109981Y0168454D01*
X0109981Y0166856D02*
X0152400Y0166856D01*
X0152400Y0166800D02*
X0152400Y0164977D01*
X0154977Y0162400D01*
X0156800Y0162400D01*
X0158623Y0162400D01*
X0161200Y0164977D01*
X0161200Y0166800D01*
X0156800Y0166800D01*
X0156800Y0162400D01*
X0156800Y0166800D01*
X0156800Y0166800D01*
X0152400Y0166800D01*
X0152400Y0165257D02*
X0109981Y0165257D01*
X0109201Y0163659D02*
X0153719Y0163659D01*
X0156800Y0163659D02*
X0156800Y0163659D01*
X0156800Y0165257D02*
X0156800Y0165257D01*
X0156800Y0166856D02*
X0156800Y0166856D01*
X0156800Y0168454D02*
X0156800Y0168454D01*
X0156800Y0170053D02*
X0156800Y0170053D01*
X0159770Y0170053D02*
X0169396Y0170053D01*
X0170143Y0170800D02*
X0167800Y0168457D01*
X0167800Y0165143D01*
X0170143Y0162800D01*
X0173457Y0162800D01*
X0175800Y0165143D01*
X0175800Y0168457D01*
X0173457Y0170800D01*
X0170143Y0170800D01*
X0167800Y0168454D02*
X0161200Y0168454D01*
X0161200Y0166856D02*
X0167800Y0166856D01*
X0167800Y0165257D02*
X0161200Y0165257D01*
X0159881Y0163659D02*
X0169285Y0163659D01*
X0174315Y0163659D02*
X0178719Y0163659D01*
X0179977Y0162400D02*
X0177400Y0164977D01*
X0177400Y0166800D01*
X0181800Y0166800D01*
X0186200Y0166800D01*
X0186200Y0168623D01*
X0183623Y0171200D01*
X0181800Y0171200D01*
X0181800Y0166800D01*
X0181800Y0166800D01*
X0181800Y0166800D01*
X0186200Y0166800D01*
X0186200Y0164977D01*
X0183623Y0162400D01*
X0181800Y0162400D01*
X0181800Y0166800D01*
X0181800Y0166800D01*
X0181800Y0166800D01*
X0181800Y0171200D01*
X0179977Y0171200D01*
X0177400Y0168623D01*
X0177400Y0166800D01*
X0181800Y0166800D01*
X0181800Y0162400D01*
X0179977Y0162400D01*
X0181800Y0163659D02*
X0181800Y0163659D01*
X0181800Y0165257D02*
X0181800Y0165257D01*
X0181800Y0166856D02*
X0181800Y0166856D01*
X0181800Y0168454D02*
X0181800Y0168454D01*
X0181800Y0170053D02*
X0181800Y0170053D01*
X0184770Y0170053D02*
X0201850Y0170053D01*
X0201850Y0171651D02*
X0088752Y0171651D01*
X0087000Y0171651D02*
X0086600Y0171651D01*
X0086600Y0173250D02*
X0087000Y0173250D01*
X0087000Y0174848D02*
X0086600Y0174848D01*
X0086600Y0176447D02*
X0087000Y0176447D01*
X0087000Y0178045D02*
X0086600Y0178045D01*
X0086600Y0179644D02*
X0087000Y0179644D01*
X0087000Y0181242D02*
X0086600Y0181242D01*
X0083557Y0181242D02*
X0079402Y0181242D01*
X0081142Y0179644D02*
X0082076Y0179644D01*
X0081651Y0174848D02*
X0081512Y0174848D01*
X0080462Y0173250D02*
X0082581Y0173250D01*
X0084848Y0171651D02*
X0079000Y0171651D01*
X0072458Y0179644D02*
X0071142Y0179644D01*
X0069402Y0181242D02*
X0074198Y0181242D01*
X0064198Y0181242D02*
X0008600Y0181242D01*
X0008600Y0179644D02*
X0062458Y0179644D01*
X0061796Y0178045D02*
X0008600Y0178045D01*
X0008600Y0176447D02*
X0014843Y0176447D01*
X0015000Y0176526D02*
X0014284Y0176162D01*
X0013635Y0175690D01*
X0013067Y0175122D01*
X0012596Y0174473D01*
X0012231Y0173758D01*
X0011983Y0172994D01*
X0011857Y0172201D01*
X0011857Y0171984D01*
X0016773Y0171984D01*
X0016773Y0176900D01*
X0016556Y0176900D01*
X0015763Y0176774D01*
X0015000Y0176526D01*
X0016773Y0176447D02*
X0017142Y0176447D01*
X0017142Y0174848D02*
X0016773Y0174848D01*
X0016773Y0173250D02*
X0017142Y0173250D01*
X0019072Y0176447D02*
X0035579Y0176447D01*
X0037706Y0176447D02*
X0061700Y0176447D01*
X0041743Y0202023D02*
X0201850Y0202023D01*
X0201850Y0203621D02*
X0041413Y0203621D01*
X0040435Y0205220D02*
X0201850Y0205220D01*
X0201850Y0206818D02*
X0037559Y0206818D01*
X0035726Y0206818D02*
X0008600Y0206818D01*
X0008600Y0205220D02*
X0013731Y0205220D01*
X0012625Y0203621D02*
X0008600Y0203621D01*
X0008600Y0202023D02*
X0012257Y0202023D01*
X0012440Y0200424D02*
X0008600Y0200424D01*
X0008600Y0198826D02*
X0013285Y0198826D01*
X0015715Y0197227D02*
X0008600Y0197227D01*
X0008600Y0195629D02*
X0014972Y0195629D01*
X0013373Y0194030D02*
X0008600Y0194030D01*
X0008600Y0192432D02*
X0012800Y0192432D01*
X0012800Y0190833D02*
X0008600Y0190833D01*
X0008600Y0189235D02*
X0013708Y0189235D01*
X0020630Y0198826D02*
X0032499Y0198826D01*
X0031727Y0200424D02*
X0021475Y0200424D01*
X0021657Y0202023D02*
X0031543Y0202023D01*
X0031872Y0203621D02*
X0021290Y0203621D01*
X0020184Y0205220D02*
X0032850Y0205220D01*
X0033044Y0174848D02*
X0021047Y0174848D01*
X0021849Y0173250D02*
X0032156Y0173250D01*
X0017142Y0170053D02*
X0016773Y0170053D01*
X0016773Y0168454D02*
X0017142Y0168454D01*
X0012066Y0173250D02*
X0008600Y0173250D01*
X0008600Y0174848D02*
X0012868Y0174848D01*
X0076417Y0125294D02*
X0080194Y0125294D01*
X0078015Y0123696D02*
X0086647Y0123696D01*
X0121800Y0142878D02*
X0121800Y0142878D01*
X0121800Y0144476D02*
X0121800Y0144476D01*
X0121800Y0146075D02*
X0121800Y0146075D01*
X0121800Y0147673D02*
X0121800Y0147673D01*
X0121800Y0149272D02*
X0121800Y0149272D01*
X0121800Y0150870D02*
X0121800Y0150870D01*
X0127324Y0154068D02*
X0143619Y0154068D01*
X0138262Y0139681D02*
X0127176Y0139681D01*
X0128198Y0138082D02*
X0139600Y0138082D01*
X0139600Y0136484D02*
X0128400Y0136484D01*
X0127936Y0134885D02*
X0139600Y0134885D01*
X0139600Y0133287D02*
X0126371Y0133287D01*
X0144000Y0133287D02*
X0144600Y0133287D01*
X0144600Y0134885D02*
X0144000Y0134885D01*
X0144000Y0136484D02*
X0144600Y0136484D01*
X0144600Y0138082D02*
X0144000Y0138082D01*
X0144000Y0131688D02*
X0144600Y0131688D01*
X0144600Y0130090D02*
X0144000Y0130090D01*
X0144000Y0128491D02*
X0144600Y0128491D01*
X0144600Y0126893D02*
X0144000Y0126893D01*
X0144000Y0125294D02*
X0144600Y0125294D01*
X0144600Y0123696D02*
X0144000Y0123696D01*
X0144000Y0122097D02*
X0144600Y0122097D01*
X0144600Y0120499D02*
X0144000Y0120499D01*
X0168034Y0094923D02*
X0171811Y0094923D01*
X0173410Y0096521D02*
X0169632Y0096521D01*
X0171231Y0098120D02*
X0175008Y0098120D01*
X0170213Y0093324D02*
X0166435Y0093324D01*
X0164837Y0091726D02*
X0169600Y0091726D01*
X0169600Y0090127D02*
X0164000Y0090127D01*
X0164000Y0088529D02*
X0169600Y0088529D01*
X0169600Y0086930D02*
X0164000Y0086930D01*
X0164000Y0085332D02*
X0169600Y0085332D01*
X0169600Y0083733D02*
X0164000Y0083733D01*
X0164000Y0082134D02*
X0169600Y0082134D01*
X0169600Y0080536D02*
X0164000Y0080536D01*
X0164000Y0078937D02*
X0169600Y0078937D01*
X0169228Y0077339D02*
X0164000Y0077339D01*
X0163852Y0075740D02*
X0167629Y0075740D01*
X0166031Y0074142D02*
X0162253Y0074142D01*
X0160655Y0072543D02*
X0164432Y0072543D01*
X0162834Y0070945D02*
X0159056Y0070945D01*
X0157458Y0069346D02*
X0161235Y0069346D01*
X0159637Y0067748D02*
X0155859Y0067748D01*
X0154261Y0066149D02*
X0158038Y0066149D01*
X0156440Y0064551D02*
X0152662Y0064551D01*
X0151064Y0062952D02*
X0154841Y0062952D01*
X0153243Y0061354D02*
X0149465Y0061354D01*
X0147867Y0059755D02*
X0151644Y0059755D01*
X0150046Y0058157D02*
X0146268Y0058157D01*
X0144670Y0056558D02*
X0148447Y0056558D01*
X0146849Y0054960D02*
X0143071Y0054960D01*
X0141473Y0053361D02*
X0145250Y0053361D01*
X0143652Y0051763D02*
X0139874Y0051763D01*
X0138276Y0050164D02*
X0142053Y0050164D01*
X0140454Y0048566D02*
X0136677Y0048566D01*
X0135079Y0046967D02*
X0138856Y0046967D01*
X0137257Y0045369D02*
X0133480Y0045369D01*
X0133071Y0054960D02*
X0136849Y0054960D01*
X0138447Y0056558D02*
X0134670Y0056558D01*
X0134000Y0055889D02*
X0134000Y0055889D01*
X0136268Y0058157D02*
X0140046Y0058157D01*
X0141644Y0059755D02*
X0137867Y0059755D01*
X0139465Y0061354D02*
X0143243Y0061354D01*
X0144841Y0062952D02*
X0141064Y0062952D01*
X0142662Y0064551D02*
X0146440Y0064551D01*
X0148038Y0066149D02*
X0144000Y0066149D01*
X0144000Y0067748D02*
X0149637Y0067748D01*
X0151235Y0069346D02*
X0144000Y0069346D01*
X0139600Y0069346D02*
X0127989Y0069346D01*
X0128705Y0067748D02*
X0139600Y0067748D01*
X0138038Y0066149D02*
X0128752Y0066149D01*
X0128192Y0064551D02*
X0136440Y0064551D01*
X0134841Y0062952D02*
X0126540Y0062952D01*
X0127102Y0059755D02*
X0131644Y0059755D01*
X0133243Y0061354D02*
X0075497Y0061354D01*
X0095563Y0062952D02*
X0117060Y0062952D01*
X0116894Y0063037D02*
X0117511Y0062722D01*
X0118170Y0062508D01*
X0118854Y0062400D01*
X0121800Y0062400D01*
X0121800Y0066800D01*
X0114800Y0066800D01*
X0114800Y0066454D01*
X0114908Y0065770D01*
X0115122Y0065111D01*
X0115437Y0064494D01*
X0115844Y0063934D01*
X0116334Y0063444D01*
X0116894Y0063037D01*
X0115408Y0064551D02*
X0097798Y0064551D01*
X0098400Y0066149D02*
X0114848Y0066149D01*
X0114895Y0067748D02*
X0098337Y0067748D01*
X0097510Y0069346D02*
X0115611Y0069346D01*
X0121800Y0069346D02*
X0121800Y0069346D01*
X0121800Y0067748D02*
X0121800Y0067748D01*
X0121800Y0066149D02*
X0121800Y0066149D01*
X0121800Y0064551D02*
X0121800Y0064551D01*
X0121800Y0062952D02*
X0121800Y0062952D01*
X0116498Y0059755D02*
X0097102Y0059755D01*
X0098168Y0058157D02*
X0115432Y0058157D01*
X0115200Y0056558D02*
X0098400Y0056558D01*
X0097967Y0054960D02*
X0115633Y0054960D01*
X0117049Y0053361D02*
X0096551Y0053361D01*
X0086127Y0029384D02*
X0070439Y0029384D01*
X0071200Y0027785D02*
X0085278Y0027785D01*
X0085200Y0026187D02*
X0071200Y0026187D01*
X0070811Y0024588D02*
X0085787Y0024588D01*
X0087947Y0022990D02*
X0069212Y0022990D01*
X0066800Y0022990D02*
X0066800Y0022990D01*
X0066800Y0024588D02*
X0066800Y0024588D01*
X0066800Y0026187D02*
X0066800Y0026187D01*
X0066800Y0027785D02*
X0066800Y0027785D01*
X0066800Y0029384D02*
X0066800Y0029384D01*
X0066800Y0030982D02*
X0066800Y0030982D01*
X0063764Y0034179D02*
X0008600Y0034179D01*
X0008600Y0035778D02*
X0062800Y0035778D01*
X0062800Y0037376D02*
X0008600Y0037376D01*
X0008600Y0038975D02*
X0063318Y0038975D01*
X0064916Y0040573D02*
X0008600Y0040573D01*
X0121800Y0070945D02*
X0121800Y0070945D01*
X0174019Y0110908D02*
X0196195Y0110908D01*
X0196381Y0112506D02*
X0175617Y0112506D01*
X0177216Y0114105D02*
X0194896Y0114105D01*
X0195154Y0083733D02*
X0186844Y0083733D01*
X0199100Y0075740D02*
X0199500Y0075740D01*
X0199500Y0074142D02*
X0199100Y0074142D01*
X0199100Y0072543D02*
X0199500Y0072543D01*
X0197794Y0022990D02*
X0175806Y0022990D01*
X0177753Y0021391D02*
X0195847Y0021391D01*
X0194822Y0019793D02*
X0178778Y0019793D01*
X0179440Y0018194D02*
X0179440Y0015406D01*
X0178692Y0013600D01*
X0194908Y0013600D01*
X0194160Y0015406D01*
X0194160Y0018194D01*
X0194160Y0016596D02*
X0179440Y0016596D01*
X0179271Y0014997D02*
X0194329Y0014997D01*
X0198692Y0152469D02*
X0201850Y0152469D01*
X0201850Y0154068D02*
X0200290Y0154068D01*
X0201200Y0155666D02*
X0201850Y0155666D01*
X0201850Y0157265D02*
X0201200Y0157265D01*
X0200959Y0158863D02*
X0201850Y0158863D01*
X0201850Y0163659D02*
X0184881Y0163659D01*
X0186200Y0165257D02*
X0201850Y0165257D01*
X0201850Y0166856D02*
X0186200Y0166856D01*
X0186200Y0168454D02*
X0201850Y0168454D01*
X0201850Y0173250D02*
X0158906Y0173250D01*
X0160505Y0174848D02*
X0201850Y0174848D01*
X0201850Y0176447D02*
X0160800Y0176447D01*
X0159195Y0186038D02*
X0179815Y0186038D01*
X0178217Y0184439D02*
X0174818Y0184439D01*
X0175800Y0182841D02*
X0177400Y0182841D01*
X0177400Y0181242D02*
X0175800Y0181242D01*
X0175301Y0179644D02*
X0177734Y0179644D01*
X0184268Y0178045D02*
X0201850Y0178045D01*
X0201850Y0179644D02*
X0185866Y0179644D01*
X0186200Y0181242D02*
X0201850Y0181242D01*
X0201850Y0182841D02*
X0186200Y0182841D01*
X0185383Y0184439D02*
X0201850Y0184439D01*
X0201850Y0192432D02*
X0163654Y0192432D01*
X0161800Y0192432D02*
X0161800Y0192432D01*
X0161800Y0194030D02*
X0161800Y0194030D01*
X0161800Y0195629D02*
X0161800Y0195629D01*
X0161800Y0197227D02*
X0161800Y0197227D01*
X0161800Y0198826D02*
X0161800Y0198826D01*
X0161800Y0200424D02*
X0161800Y0200424D01*
X0164398Y0200424D02*
X0169767Y0200424D01*
X0170143Y0200800D02*
X0167800Y0198457D01*
X0167800Y0195143D01*
X0170143Y0192800D01*
X0173457Y0192800D01*
X0175800Y0195143D01*
X0175800Y0198457D01*
X0173457Y0200800D01*
X0170143Y0200800D01*
X0168169Y0198826D02*
X0165997Y0198826D01*
X0166200Y0197227D02*
X0167800Y0197227D01*
X0167800Y0195629D02*
X0166200Y0195629D01*
X0165253Y0194030D02*
X0168913Y0194030D01*
X0174687Y0194030D02*
X0178913Y0194030D01*
X0177800Y0195143D02*
X0180143Y0192800D01*
X0183457Y0192800D01*
X0185800Y0195143D01*
X0185800Y0198457D01*
X0183457Y0200800D01*
X0180143Y0200800D01*
X0177800Y0198457D01*
X0177800Y0195143D01*
X0177800Y0195629D02*
X0175800Y0195629D01*
X0175800Y0197227D02*
X0177800Y0197227D01*
X0178169Y0198826D02*
X0175431Y0198826D01*
X0173832Y0200424D02*
X0179767Y0200424D01*
X0183832Y0200424D02*
X0194767Y0200424D01*
X0195143Y0200800D02*
X0192800Y0198457D01*
X0192800Y0195143D01*
X0195143Y0192800D01*
X0198457Y0192800D01*
X0200800Y0195143D01*
X0200800Y0198457D01*
X0198457Y0200800D01*
X0195143Y0200800D01*
X0193169Y0198826D02*
X0185431Y0198826D01*
X0185800Y0197227D02*
X0192800Y0197227D01*
X0192800Y0195629D02*
X0185800Y0195629D01*
X0184687Y0194030D02*
X0193913Y0194030D01*
X0199687Y0194030D02*
X0201850Y0194030D01*
X0201850Y0195629D02*
X0200800Y0195629D01*
X0200800Y0197227D02*
X0201850Y0197227D01*
X0201850Y0198826D02*
X0200431Y0198826D01*
X0201850Y0200424D02*
X0198832Y0200424D01*
X0178830Y0170053D02*
X0174204Y0170053D01*
X0175800Y0168454D02*
X0177400Y0168454D01*
X0177400Y0166856D02*
X0175800Y0166856D01*
X0175800Y0165257D02*
X0177400Y0165257D01*
X0192641Y0158863D02*
X0127875Y0158863D01*
X0128400Y0157265D02*
X0192400Y0157265D01*
X0192400Y0155666D02*
X0128260Y0155666D01*
X0126013Y0160462D02*
X0194239Y0160462D01*
X0154275Y0192432D02*
X0104284Y0192432D01*
X0106425Y0194030D02*
X0128913Y0194030D01*
X0127956Y0195629D02*
X0107150Y0195629D01*
X0107248Y0197227D02*
X0127800Y0197227D01*
X0128310Y0198826D02*
X0106796Y0198826D01*
X0105570Y0200424D02*
X0130097Y0200424D01*
X0104198Y0181242D02*
X0099402Y0181242D01*
X0101142Y0179644D02*
X0102458Y0179644D01*
X0102088Y0174848D02*
X0101512Y0174848D01*
X0100462Y0173250D02*
X0103138Y0173250D01*
X0094198Y0181242D02*
X0090043Y0181242D01*
X0091524Y0179644D02*
X0092458Y0179644D01*
X0092088Y0174848D02*
X0091949Y0174848D01*
X0091019Y0173250D02*
X0093138Y0173250D01*
D20*
X0086800Y0166800D03*
X0106800Y0166800D03*
X0146800Y0151800D03*
X0146800Y0111800D03*
X0146800Y0031800D03*
X0026800Y0151800D03*
X0051800Y0186800D03*
X0021800Y0046800D03*
M02*
